<?xml version="1.0" encoding="UTF-8" standalone="no"?>
<!-- Created with Inkscape (http://www.inkscape.org/) -->

<svg
   xmlns:dc="http://purl.org/dc/elements/1.1/"
   xmlns:cc="http://creativecommons.org/ns#"
   xmlns:rdf="http://www.w3.org/1999/02/22-rdf-syntax-ns#"
   xmlns:svg="http://www.w3.org/2000/svg"
   xmlns="http://www.w3.org/2000/svg"
   xmlns:sodipodi="http://sodipodi.sourceforge.net/DTD/sodipodi-0.dtd"
   xmlns:inkscape="http://www.inkscape.org/namespaces/inkscape"
   width="210mm"
   height="297mm"
   id="svg2"
   version="1.1"
   inkscape:version="0.48.4 r9939"
   sodipodi:docname="AMS-02.svg">
  <defs
     id="defs4" />
  <sodipodi:namedview
     id="base"
     pagecolor="#ffffff"
     bordercolor="#666666"
     borderopacity="1.0"
     inkscape:pageopacity="0.0"
     inkscape:pageshadow="2"
     inkscape:zoom="1.979899"
     inkscape:cx="291.65062"
     inkscape:cy="688.62386"
     inkscape:document-units="px"
     inkscape:current-layer="layer1"
     showgrid="false"
     inkscape:window-width="1920"
     inkscape:window-height="1033"
     inkscape:window-x="0"
     inkscape:window-y="20"
     inkscape:window-maximized="1" />
  <metadata
     id="metadata7">
    <rdf:RDF>
      <cc:Work
         rdf:about="">
        <dc:format>image/svg+xml</dc:format>
        <dc:type
           rdf:resource="http://purl.org/dc/dcmitype/StillImage" />
        <dc:title></dc:title>
      </cc:Work>
    </rdf:RDF>
  </metadata>
  <g
     inkscape:label="Calque 1"
     inkscape:groupmode="layer"
     id="layer1">
    <path
       style="fill:#000000"
       d="m 399.57008,692.97112 0.32485,-1.68683 3.24847,-0.84176 3.24847,-0.84176 0,-3.24891 0,-3.2489 1.5567,-2.2225 1.55671,-2.22251 -1.55671,-2.22251 -1.5567,-2.2225 0,-3.69804 0,-3.69804 -3,-0.65891 -3,-0.65891 0,-1.81523 0,-1.81524 3.57311,0.80587 3.57312,0.80587 1.92688,1.74381 1.92689,1.74381 0,3.78599 0,3.786 1.16271,0.71859 c 0.63949,0.39523 2.55199,1.00273 4.25,1.35001 l 3.08729,0.63142 0,1.45901 0,1.459 -3,0.33849 c -1.65,0.18616 -3.5625,0.80376 -4.25,1.37244 l -1.25,1.03396 0,2.9433 0,2.94329 -0.97889,1.82908 -0.97889,1.82907 -3.17033,1.10519 c -1.74369,0.60785 -4.03618,1.10518 -5.09444,1.10518 l -1.9241,0 0.32486,-1.68683 z m -132.17821,-9.8286 0,-8.48457 -2.34501,0 -2.34501,0 -1.65499,-1.82874 -1.65499,-1.82874 0,-2.67126 0,-2.67126 2,-2 c 2.31085,-2.31085 3.01158,-2.40748 6.36819,-0.8781 l 2.4623,1.1219 0.53652,2.05164 0.53651,2.05164 -0.51077,0.82646 -0.51078,0.82646 -3.44099,0 -3.44098,0 0,0.94098 c 0,0.51754 0.4317,1.20779 0.95932,1.53388 l 0.95933,0.59289 1.99519,-1.24602 1.9952,-1.24602 0.68798,0.68798 0.68798,0.68798 -1.285,1.54833 -1.285,1.54833 0.56714,0.56714 0.56714,0.56714 2.07179,-0.65756 2.0718,-0.65756 -0.22884,-5.64635 -0.22884,-5.64635 3.24931,-0.66455 3.24931,-0.66456 0.54211,0.87716 0.54211,0.87716 7.8736,0 7.87359,0 0.76336,-2.25 0.76335,-2.25 -0.21751,-8.75 -0.21752,-8.75 2.52155,0 2.52155,0 -6.2e-4,4.75 -6.2e-4,4.75 5.00062,-0.34651 5.00062,-0.34652 0,1.68907 0,1.68906 -5.43724,-0.34255 -5.43725,-0.34255 -0.61607,3.5 c -0.33884,1.925 -0.84741,4.2875 -1.13015,5.25 l -0.51407,1.75 43.59561,0 43.59561,0 -0.27822,13.75 -0.27822,13.75 -59.25,0.23457 -59.25,0.23458 0,-8.48458 z m 16.25,5.77819 c -2.8875,-0.202 -7.6125,-0.202 -10.5,0 l -5.25,0.36728 10.5,0 10.5,0 -5.25,-0.36728 z m 77.56913,-0.0117 c -13.02447,-0.15781 -34.62447,-0.15797 -48,-3.6e-4 l -24.31913,0.28657 48,3.5e-4 48,3.6e-4 -23.68087,-0.28692 z m -76.53262,-2.98703 c -2.86742,-0.2013 -7.81742,-0.20315 -11,-0.004 l -5.78651,0.36191 11,0.004 11,0.004 -5.21349,-0.36602 z m 76.46349,-0.0131 c -13.0625,-0.15789 -34.4375,-0.15789 -47.5,0 l -23.75,0.28709 47.5,0 47.5,0 -23.75,-0.28709 z m -70.75,-3.09872 0,-0.84783 -10.25,0.42445 c -14.0617,0.5823 -14.49389,1.09758 -1,1.19227 l 11.25,0.0789 0,-0.84784 z m 48.5,-0.12758 -46,-0.52458 -0.95,0.75 -0.95,0.75 46.95,-0.22542 46.95,-0.22543 -46,-0.52457 z m -55.25,-2.76182 c -2.8875,-0.202 -7.6125,-0.202 -10.5,0 l -5.25,0.36728 10.5,0 10.5,0 -5.25,-0.36728 z m 78.56858,-0.0116 c -12.47479,-0.15858 -33.17479,-0.15875 -46,-3.8e-4 l -23.31858,0.28787 46,3.8e-4 46,3.9e-4 -22.68142,-0.28834 z m -71.36858,-3.01878 -0.95,-0.76765 -11,0.5845 -11,0.58451 11.95,0.18314 11.95,0.18315 -0.95,-0.76765 z m 49.8,0.0179 -44.25,-0.27107 -3e-4,-0.7396 -3.1e-4,-0.7396 44.00031,0.24255 44.0003,0.24255 0,-0.99255 0,-0.99255 -27.25,-0.0654 c -14.9875,-0.036 -34.675,-0.0127 -43.75,0.0517 l -16.5,0.11709 -1.97222,1.94834 -1.97222,1.94835 45.97222,-0.23933 45.97222,-0.23933 -44.25,-0.27107 z m -52.78622,-2.19166 0.58181,-0.94139 -4.2728,-0.3839 -4.27279,-0.38391 6.75,-0.1747 6.75,-0.17477 0,-1 0,-1 -6.75,-0.1681 -6.75,-0.16811 3.75,-0.39226 3.75,-0.39226 0,-0.87927 0,-0.87927 -3.75,-0.39226 -3.75,-0.39226 6.75,-0.16811 6.75,-0.1681 0,-1 0,-1 -6.25,0.0136 c -3.4375,0.008 -7.22049,0.27401 -8.40664,0.59222 l -2.15664,0.57856 -0.35618,4.47831 c -0.43847,5.5131 -0.62874,5.33731 5.77711,5.33731 l 5.27432,0 0.58181,-0.94139 z m 96.53622,-3.04254 0,-0.97387 -42.25,-0.27113 c -23.2375,-0.14912 -43.2625,-0.12733 -44.5,0.0484 l -2.25,0.31955 0,0.90296 0,0.90295 44.5,0.0225 44.5,0.0225 0,-0.97387 z m 0,-2.98209 0,-0.96596 -24.25,-0.28404 c -13.3375,-0.15622 -32.2375,-0.16116 -42,-0.011 l -17.75,0.27308 0,0.97692 0,0.97693 42,0 42,0 0,-0.96596 z m -118.14324,-1.92435 1.35677,-0.85969 -1.10677,-0.68402 -1.10676,-0.68401 -1,0.61803 c -1.16642,0.72089 -1.34614,2.50707 -0.25,2.48469 0.4125,-0.008 1.36054,-0.40217 2.10676,-0.875 z m 118.14324,-1.13525 0,-1.00957 -44.5,0.0557 -44.5,0.0557 0,0.94809 0,0.94808 44.5,0.006 44.5,0.006 0,-1.00956 z m -198,22.80889 c 0,-0.76083 0.48078,-1.86411 1.0684,-2.45173 l 1.06841,-1.06841 -1.56841,-3.75372 c -0.86262,-2.06454 -1.5684,-4.14876 -1.5684,-4.63159 l 0,-0.87788 1.39159,0 1.39159,0 0.69442,2.75 0.69443,2.75 1.44592,-2.75 1.44592,-2.75 0.96807,0 0.96806,0 -0.0321,1.25 c -0.0177,0.6875 -1.25515,3.70685 -2.75,6.70966 l -2.7179,5.45967 -1.25,0.37367 -1.25,0.37367 0,-1.38334 z m 249.43878,-0.0823 c -0.29537,-0.76971 -0.40243,-4.50483 -0.23791,-8.30026 l 0.29913,-6.90077 5.75,-0.2999 5.75,-0.29991 0,1.54991 0,1.5499 -4,0 -4,0 0,2 0,2 4.08333,0 4.08334,0 -0.41657,1.25 -0.41656,1.25 -2.91677,0.14286 c -1.60422,0.0786 -3.25427,0.19107 -3.66677,0.25 l -0.75,0.10714 0,2 0,2 4.58333,0 4.58334,0 -0.41234,1.25 -0.41234,1.25 -5.68309,0.30026 -5.68309,0.30027 -0.53703,-1.39948 z m 17.96092,0.53364 c -0.60516,-0.40408 -1.61766,-1.71761 -2.25,-2.91895 l -1.1497,-2.18424 0,-2.93088 0,-2.93088 2.07258,-2.63486 2.07258,-2.63486 3.27243,0 3.27243,0 1.65499,1.82874 c 0.91025,1.00581 1.65499,2.35581 1.65499,3 l 0,1.17126 -1.17126,0 c -0.64419,0 -1.97743,-0.72958 -2.96275,-1.62128 l -1.7915,-1.62128 -1.55225,0.59565 -1.55226,0.59566 -0.96024,2.52562 -0.96024,2.52563 0.9505,2.5 0.9505,2.5 2.41776,0 2.41776,0 0.57561,-1.5 0.5756,-1.5 1.53139,0 1.53138,0 0,1.34501 0,1.34501 -1.82874,1.65499 -1.82874,1.65499 -2.92126,-0.0153 c -1.60669,-0.008 -3.41639,-0.34592 -4.02156,-0.75 z m 13.26318,0.0153 -0.45515,-0.75 2.72057,-7.5 2.72056,-7.5 1.87942,0 1.87942,0 2.73327,7 c 1.5033,3.85 2.76157,7.5625 2.79615,8.25 l 0.0629,1.25003 -1.46482,0 -1.46481,0 -1.07037,-2 -1.07037,-2 -2.42963,0 -2.42963,0 -1.07037,2 c -1.09628,2.04841 -2.52729,2.58443 -3.33712,1.25 z m 8.15667,-7.5 -0.31955,-2.25 -1,0 -1,0 -0.31955,2.25 -0.31955,2.25 1.6391,0 1.6391,0 -0.31955,-2.25 z m 9.18045,-0.3333 0,-8.58334 1.25,0.41303 1.25,0.41303 0.29569,6.67031 0.29569,6.6703 3.95431,0 3.95431,0 0,1.5 0,1.5 -5.5,0 -5.5,0 0,-8.58333 z m -313.5609,-2.37757 -0.9609,-0.96091 -9.9891,-0.28909 -9.9891,-0.2891 -0.28599,-10.96323 -0.286,-10.96323 -1.01808,-0.6292 -1.01807,-0.62921 1.17706,-4.67456 c 0.64739,-2.57101 1.52709,-4.89089 1.95489,-5.15528 l 0.77781,-0.48072 1.24708,5.19842 1.24708,5.19842 -1.14789,0.38263 -1.14789,0.38263 0,10.41666 0,10.41667 9.3,0 9.3,0 1.05173,-1.05173 1.05174,-1.05173 4.64827,1.17044 4.64826,1.17045 0,0.76257 0,0.76257 -4.44282,1.11872 c -5.35104,1.3474 -4.93911,1.33678 -6.11808,0.15781 z m 34.0569,-5.2891 c -0.24268,-0.6875 -0.56605,-3.70671 -0.71862,-6.70936 l -0.27738,-5.45936 -2.22002,-0.54064 -2.22002,-0.54064 0.81278,-1.3046 0.81278,-1.30459 5.82823,0.30459 5.82824,0.3046 0.41234,1.25 0.41234,1.25 -2.58334,0 -2.58333,0 0,7 0,7 -1.53138,0 -1.53139,0 -0.44123,-1.25 z m 8.504,-4.64059 0,-5.8906 3.5,-0.4086 3.5,-0.40861 0,1.7992 0,1.7992 -1.39301,0 -1.39301,0 -0.60699,1.58179 c -0.33385,0.86998 -0.60699,2.89498 -0.60699,4.5 l 0,2.91821 -1.5,0 -1.5,0 0,-5.89059 z m 9.08526,4.0499 -0.94571,-1.76707 0.88023,-1.42424 0.88023,-1.42424 3.29999,-1.15849 3.3,-1.1585 -1.94003,-0.79329 -1.94003,-0.7933 -0.3933,1.17991 -0.39331,1.17991 -1.41666,0 -1.41667,0 0,-1.52144 0,-1.52144 2.5,-1.13907 2.5,-1.13908 2.5,1.13908 2.5,1.13907 0,5.39462 0,5.39461 -4.48452,0.09 -4.48451,0.09 -0.94571,-1.76707 z m 5.91474,-1.65931 1.24489,-1.5 -2.12245,0 -2.12244,0 0,1.5 0,1.5 0.87756,0 c 0.48265,0 1.43775,-0.675 2.12244,-1.5 z m 7.03518,1.56574 c -0.56935,-1.06384 -1.03518,-3.08884 -1.03518,-4.5 l 0,-2.56574 2,-2 2,-2 1.38922,0 c 0.76406,0 2.45156,0.86126 3.75,1.91392 l 2.36078,1.91392 -0.79548,0.79823 -0.79548,0.79822 -2.03288,-1.26956 -2.03288,-1.26955 -1.42164,1.17985 -1.42164,1.17986 0,1.90894 0,1.90894 1.42186,0.54562 1.42186,0.54562 1.94666,-1.04182 1.94665,-1.04182 0.5963,0.5963 0.5963,0.5963 -1,1.86851 -1,1.86852 -3.42963,0 -3.42963,0 -1.03519,-1.93426 z m 12.72356,1.18426 c -0.19762,-0.4125 -0.30317,-4.00851 -0.23456,-7.99112 l 0.12473,-7.24113 0.60901,-0.60901 0.60902,-0.60901 1.06653,0.65915 1.06653,0.65915 0,3.59597 0,3.59598 1.82874,-1.65499 1.82874,-1.65499 1.82625,0 1.82625,0 -1.8793,2.0766 -1.8793,2.0766 1.72431,3.00444 c 0.94837,1.65244 1.72431,3.41797 1.72431,3.9234 l 0,0.91896 -1.46482,0 -1.46481,0 -1.07037,-2 c -0.5887,-1.1 -1.50453,-2 -2.03518,-2 l -0.96482,0 0,2 0,2 -1.44098,0 c -0.79254,0 -1.60267,-0.3375 -1.80028,-0.75 z m 66.90793,-15.91667 c -0.36667,-0.36666 -0.66667,-1.32291 -0.66667,-2.125 l 0,-1.45833 3,0.6 3,0.6 0,-0.975 0,-0.975 -2.3,0 -2.3,0 -1.2,-1.2 -1.2,-1.2 0,-2.14501 0,-2.14501 1.82874,-1.65499 1.82874,-1.65499 2.09868,0 2.09868,0 2.07258,2.63486 2.07258,2.63486 0,2.64263 0,2.64264 -1.5567,2.2225 -1.55671,2.22251 -3.27663,0 c -1.80214,0 -3.57663,-0.3 -3.94329,-0.66667 z m 5.65799,-7.99132 0.65799,-0.65799 -1.10463,-1.331 -1.10463,-1.331 -0.8867,0.54801 c -0.48768,0.3014 -0.88669,1.19645 -0.88669,1.98899 l 0,1.44098 1.33333,0 c 0.73334,0 1.62943,-0.2961 1.99133,-0.65799 z m -61.32466,5.65799 0,-1 1.5,0 1.5,0 0,-1 0,-1 -1.75,-0.15483 c -3.66587,-0.32433 15.71298,-1.65115 25.5,-1.74592 l 10.25,-0.0992 0,1.63588 0,1.63587 -15,-0.48147 -15,-0.48148 0,0.8456 0,0.8456 15.5,0 15.5,0 0,1 0,1 -19,0 -19,0 0,-1 z m 6,-2 c 0,-0.55 -0.45,-1 -1,-1 -0.55,0 -1,0.45 -1,1 0,0.55 0.45,1 1,1 0.55,0 1,-0.45 1,-1 z m 37,2 0,-1 5,0 5,0 0,1 0,1 -5,0 -5,0 0,-1 z m 24,0 0,-1 30,0 30,0 5e-4,-0.75 4.9e-4,-0.75 -30.11382,0.33999 -30.11383,0.33999 0.4459,-1.33999 0.4459,-1.33999 19.91743,-0.31454 19.91743,-0.31453 13.5,0.68956 13.5,0.68956 -2.5,1.04841 -2.5,1.04841 2.25,0.39612 2.25,0.39611 0,0.93045 0,0.93045 -33.5,0 -33.5,0 0,-1 z m 130,-3.26226 0,-2.42116 4.05731,-1.21561 4.05732,-1.2156 1.94268,-1.94268 1.94269,-1.94269 0.006,-18.75 0.006,-18.75 1.5277,-2.92956 c 0.84023,-1.61126 2.43041,-3.56185 3.53373,-4.33465 l 2.00603,-1.40508 -3.53989,-3.91824 -3.53989,-3.91823 0,-13.54258 0,-13.54257 -2.37779,-2.37779 -2.37779,-2.37779 -4.12221,-1.23504 -4.12221,-1.23505 0,-2.23541 0,-2.23542 4.10504,0.92235 c 2.25777,0.50728 5.40354,1.59381 6.99058,2.41451 l 2.88554,1.49217 1.75646,2.68068 1.75645,2.68068 0.50296,14.25818 0.50297,14.25817 2,1.52005 c 2.15879,1.64074 7.92013,3.54602 10.75,3.55504 l 1.75032,0.006 0,1.93261 0,1.93261 -1.75,0.49274 c -0.9625,0.271 -3.17694,0.77927 -4.92098,1.12948 l -3.17099,0.63676 -2.57901,2.39015 -2.57902,2.39015 0,19.14346 0,19.14346 -1.75,2.99946 -1.75,2.99946 -3.5,1.78279 c -1.925,0.98054 -4.9625,2.09847 -6.75,2.48429 l -3.25,0.70149 0,-2.42117 z m -188,-4.73774 0,-1 -30,0 -30,0 0,-7 0,-7 -1.57946,0 -1.57945,0 0.55091,-2.75 c 0.30301,-1.5125 1.94106,-10.85 3.64012,-20.75 1.69907,-9.9 4.15019,-23.85 5.44696,-31 1.29676,-7.15 2.50696,-14.34779 2.68933,-15.99508 l 0.33159,-2.99509 -1.25,-0.12991 c -0.6875,-0.0715 -2.15,-0.18617 -3.25,-0.25492 l -2,-0.125 0,-3 0,-3 53.875,0 53.875,0 0.625,-3.125 c 0.34375,-1.71875 0.625,-3.74375 0.625,-4.5 l 0,-1.375 -8,0 -8,0 0,-1 0,-1 -9,0 -9,0 0,1 0,1 -11,0 -11,0 0,-1 0,-1 -23,0 -23,0 0,-1.5 0,-1.5 -5.5,0 -5.5,0 0,-2.4469 0,-2.44689 56.75,-0.30311 56.75,-0.3031 1.5,-1 1.5,-1 -63,-0.51128 -63,-0.51128 62.67054,-0.23872 62.67055,-0.23872 0.5467,-2.75 c 0.30069,-1.5125 1.22059,-7.025 2.04424,-12.25 0.82365,-5.225 1.74991,-11.075 2.05837,-13 0.30846,-1.925 0.83726,-5.8625 1.17512,-8.75 l 0.61429,-5.25 -47.63991,0 -47.6399,0 0,-1.5 0,-1.5 48.2,0 48.2,0 -0.99055,-0.99055 -0.99054,-0.99054 -49.95946,-0.269 -49.95945,-0.26901 50.25,-0.24045 50.25,-0.24045 0,-1.5 0,-1.5 -41,0 -41,0 0,-1.5 0,-1.5 40.94098,0 40.94099,0 0.61803,-1 0.61803,-1 2.5,0 2.5,0 -0.61803,1 -0.61803,1 35.05901,0 35.05902,0 0,1.48704 0,1.48704 -34.50054,0.26296 -34.50054,0.26296 -1.3e-4,1 -1.4e-4,1 43.75068,0.5158 43.75067,0.5158 -43.5,0.24951 -43.5,0.24952 -1.5,0.96937 -1.5,0.96937 42.75,0.0153 42.75,0.0153 0,1.61488 0,1.61488 -40.75,-0.36488 c -22.4125,-0.20068 -38.1625,-0.22992 -35,-0.065 l 5.75,0.29991 0,0.98528 c 0,0.5419 -0.72943,2.09853 -1.62096,3.45917 -0.89153,1.36065 -2.19969,4.15732 -2.90703,6.21482 l -1.28606,3.74092 -1.32928,0 -1.32928,0 -0.34448,-1.78873 -0.34447,-1.78872 2.06473,-3.96128 2.06473,-3.96127 -3.48395,0 -3.48395,0 0,-1.39301 0,-1.39301 -1.33825,-0.51354 -1.33826,-0.51353 -3.25579,19.15654 c -1.79069,10.5361 -3.48642,20.16573 -3.7683,21.39917 l -0.51251,2.24261 64.35656,0.26486 64.35655,0.26487 -64.33333,0.24252 -64.33334,0.24252 0.41656,1.25 0.41656,1.25 58.66678,0.25799 58.66677,0.258 0,2.492 0,2.49201 -27.44098,0 -27.44099,0 -0.60635,0.9811 -0.60636,0.98111 22.54852,0.26889 22.54852,0.2689 0.24882,1 0.24882,1 -23.75,0.2681 -23.75,0.2681 0,-1.0181 0,-1.0181 -9,0 -9,0 0,1 0,1 -11.5,0 -11.5,0 0,-1 0,-1 -9,0 -9,0 0,1 0,1 -2,0 -2,0 -0.0137,2.25 c -0.008,1.2375 -0.285,3.2625 -0.61664,4.5 l -0.60297,2.25 59.67999,0 59.67999,0 -0.31336,3.25 -0.31336,3.25 -3.17881,-0.0467 -3.17882,-0.0468 0.54279,5.04675 c 0.48336,4.49422 9.28818,57.16344 10.92058,65.32546 l 0.64431,3.22131 -1.625,0 -1.625,0 0,7 0,7 -29.44098,0 -29.44099,0 -0.61803,1 -0.61803,1 -27.86387,0 -27.86387,0 0.56722,-7.5 0.56723,-7.5 -2.14434,0 -2.14434,0 0,4.58333 0,4.58334 -1.25,-0.4216 -1.25,-0.42159 0.13141,-4.16174 0.13141,-4.16174 -2.38141,0 -2.38141,0 0,4.5 0,4.5 -1,0 -1,0 0,-4.5 0,-4.5 -2.5,0 -2.5,0 0,5.5 0,5.5 1,0 1,0 0,2 0,2 -4.5,0 -4.5,0 0,-2 0,-2 3,0 3,0 0,-5.57332 0,-5.57333 -1.71994,0.33123 -1.71993,0.33123 -0.83394,4.21693 -0.83393,4.21692 -1.94613,-1.21538 -1.94613,-1.21537 0,-1.31847 0,-1.31847 1.16994,0.72306 1.16994,0.72306 -0.66994,-1.74583 c -0.36847,-0.96021 -0.66994,-2.15903 -0.66994,-2.66405 l 0,-0.91821 -1.88251,0 -1.88251,0 -0.70281,7.5 -0.70281,7.5 -13.91468,0 -13.91468,0 0,-1 z m -54,-8.5 0,-5.5 -2.5,0 -2.5,0 0,5.5 0,5.5 2.5,0 2.5,0 0,-5.5 z m 7,0 0,-5.5 -2.5,0 -2.5,0 0,5.5 0,5.5 2.5,0 2.5,0 0,-5.5 z m 6.63066,-0.006 0.13065,-5.49382 -2.38065,0 -2.38066,0 0,5.5 0,5.5 2.25,-0.006 2.25,-0.006 0.13066,-5.49382 z m 5.36934,0.006 0,-5.5 -2,0 -2,0 0,5.5 0,5.5 2,0 2,0 0,-5.5 z m 7,0 0,-5.5 -2,0 -2,0 0,5.5 0,5.5 2,0 2,0 0,-5.5 z m 7,0 0,-5.5 -2,0 -2,0 0,5.5 0,5.5 2,0 2,0 0,-5.5 z m 7,0 0,-5.5 -2.83787,0 -2.83786,0 -0.17315,4.57767 c -0.0952,2.51772 0.0834,4.99272 0.39688,5.5 l 0.57003,0.92233 2.44099,0 2.44098,0 0,-5.5 z m 6,0 0,-5.5 -2.5,0 -2.5,0 0,5.5 0,5.5 2.5,0 2.5,0 0,-5.5 z m 7,0 0,-5.5 -2.5,0 -2.5,0 0,5.5 0,5.5 2.5,0 2.5,0 0,-5.5 z m 8,0 0,-5.5 -2,0 -2,0 0,5.5 0,5.5 2,0 2,0 0,-5.5 z m 7,0 0,-5.5 -2.5,0 -2.5,0 0,5.5 0,5.5 2.5,0 2.5,0 0,-5.5 z m 6,0 0,-5.5 -2,0 -2,0 0,5.5 0,5.5 2,0 2,0 0,-5.5 z m 7,0 0,-5.5 -2,0 -2,0 0,5.5 0,5.5 2,0 2,0 0,-5.5 z m 39,0 0,-5.5 -2,0 -2,0 0,5.5 0,5.5 2,0 2,0 0,-5.5 z m 7,0 0,-5.5 -2,0 -2,0 0,5.5 0,5.5 2,0 2,0 0,-5.5 z m 7,0 0,-5.5 -2.5,0 -2.5,0 0,5.5 0,5.5 2.5,0 2.5,0 0,-5.5 z m 7,0 0,-5.5 -3,0 -3,0 0,5.5 0,5.5 3,0 3,0 0,-5.5 z m 6,0 0,-5.5 -2.5,0 -2.5,0 0,5.5 0,5.5 2.5,0 2.5,0 0,-5.5 z m 6.67227,-0.25 0.17227,-5.25 -2.42227,0 -2.42227,0 0,5.56955 0,5.56955 2.25,-0.31955 2.25,-0.31955 0.17227,-5.25 z m 6.32773,0.25 0,-5.5 -2,0 -2,0 0,5.5 0,5.5 2,0 2,0 0,-5.5 z m 7,0 0,-5.5 -2.5,0 -2.5,0 0,5.5 0,5.5 2.5,0 2.5,0 0,-5.5 z m 8,0 0,-5.5 -2,0 -2,0 0,5.5 0,5.5 2,0 2,0 0,-5.5 z m 7,0 0,-5.5 -2.5,0 -2.5,0 0,5.5 0,5.5 2.5,0 2.5,0 0,-5.5 z m 7,0 0,-5.5 -2.5,0 -2.5,0 0,5.5 0,5.5 2.5,0 2.5,0 0,-5.5 z m 7,0 0,-5.5 -3,0 -3,0 0,5.5 0,5.5 3,0 3,0 0,-5.5 z m 5.11256,4.25 c 0.0619,-0.6875 0.18436,-3.1625 0.2721,-5.5 l 0.15953,-4.25 -2.27209,0 -2.2721,0 0,5.5 0,5.5 2,0 2,0 0.11256,-1.25 z m 6.88744,-4.25 0,-5.5 -2,0 -2,0 0,5.5 0,5.5 2,0 2,0 0,-5.5 z m 7,0 0,-5.5 -2,0 -2,0 0,5.5 0,5.5 2,0 2,0 0,-5.5 z m 6,0 0,-5.5 -2,0 -2,0 0,5.5 0,5.5 2,0 2,0 0,-5.5 z m 7,0 0,-5.5 -2.5,0 -2.5,0 0,5.5 0,5.5 2.5,0 2.5,0 0,-5.5 z m -213.52694,-10.8428 c 0.58068,-2.69629 8.32535,-60.906 8.72989,-65.61473 l 0.29705,-3.45752 -6.1598,-0.3414 -6.1598,-0.3414 -0.57455,2.79892 c -0.31601,1.53941 -2.83039,16.74893 -5.58753,33.79893 -2.75713,17.05 -5.23987,31.98111 -5.51719,33.18025 l -0.50422,2.18024 2.25154,0.31976 c 1.23835,0.17586 4.61596,0.16549 7.50579,-0.0231 l 5.25424,-0.34279 0.46458,-2.15721 z m 26.97054,-1.96518 c 0.30182,-2.30561 1.67875,-16.34202 3.05985,-31.19202 1.38109,-14.85 2.76443,-29.06033 3.07407,-31.57852 l 0.56299,-4.57852 -11.07026,-0.23686 c -6.08864,-0.13028 -11.08089,-0.095 -11.0939,0.0785 -0.013,0.17346 -2.21424,16.29038 -4.89162,35.81538 -2.67739,19.525 -4.73587,35.725 -4.57442,36 0.16145,0.275 5.71402,0.36141 12.33904,0.19202 l 12.04549,-0.30797 0.54876,-4.19203 z m 32.57592,3.44135 c 0.0107,-0.34835 0.90195,-15.93337 1.98048,-34.63337 1.07853,-18.7 1.96974,-34.5625 1.98048,-35.25 l 0.0195,-1.25 -14.40616,0 -14.40616,0 -0.5819,4.75 c -0.32004,2.6125 -1.71188,16.9 -3.09297,31.75 -1.38109,14.85 -2.76216,28.89999 -3.06905,31.2222 l -0.55797,4.22219 14.30711,0.27781 c 14.41284,0.27985 17.7908,0.0735 17.82662,-1.08883 z m 15.51601,-0.63337 c 0.24648,-1.1 3.38977,-16.82919 6.9851,-34.95376 l 6.53697,-32.95376 -0.46899,-1.22217 -0.46899,-1.22216 -10.9477,0 -10.94771,0 -0.60441,8.17592 c -0.33243,4.49676 -1.05733,17.17593 -1.6109,28.17593 -0.55357,11 -1.24456,22.8125 -1.53554,26.25 l -0.52906,6.25 1.41122,0 1.41122,0 0.45763,1.75 0.45764,1.75 4.70269,0 4.70269,0 0.44814,-2 z m 16.71447,1.58124 4.75,-0.0812 0,-36 0,-36 -2.25,0.004 -2.25,0.004 -7.08047,35.74633 -7.08047,35.74633 1.99825,0.52568 c 1.09905,0.28912 3.16026,0.43818 4.58048,0.33124 1.42021,-0.10694 4.71971,-0.231 7.33221,-0.27568 z m 41.30863,-8.37979 c -0.33706,-4.5108 -1.27249,-20.32295 -2.07875,-35.13812 l -1.46593,-26.93668 -1.25698,-0.79801 -1.25697,-0.79801 -14.25,-0.0153 -14.25,-0.0153 0,34.39301 0,34.39301 1.50928,0.57917 c 0.8301,0.31854 1.45181,0.92918 1.38157,1.35698 -0.0702,0.42781 -0.075,1.00283 -0.0107,1.27783 0.0644,0.275 7.35624,0.36565 16.20415,0.20145 l 16.08711,-0.29855 -0.61282,-8.20145 z m 30.005,-26.47977 c -1.87003,-19.33139 -3.68841,-35.61456 -4.04085,-36.18483 l -0.64081,-1.03685 -13.44099,0 -13.44098,0 0.022,1.75 c 0.0121,0.9625 0.6789,16.6 1.48181,34.75 0.8029,18.15 1.46802,33.55107 1.47802,34.22461 l 0.0182,1.2246 15.75,0.2754 c 8.6625,0.15146 15.85433,0.24606 15.98183,0.21022 0.12751,-0.0358 -1.29818,-15.88176 -3.1682,-35.21315 z m 47.06934,34.42149 c 0.12242,-0.13181 -9.77452,-60.92665 -11.14222,-68.44439 l -0.60059,-3.30121 -6.99095,0.20413 -6.99095,0.20413 0.50916,2.59708 c 0.28004,1.4284 2.58405,16.77209 5.12003,34.09709 2.53597,17.325 4.97632,32.42138 5.423,33.54751 l 0.81215,2.0475 6.8637,-0.40433 c 3.77503,-0.22239 6.92354,-0.46877 6.99667,-0.54751 z m -227.1581,-1.89317 c 0.67062,-2.9415 10.29444,-62.3832 10.7075,-66.1351 l 0.31763,-2.88509 -1.69185,-0.26789 -1.69186,-0.26788 -0.54197,2.65298 c -0.29808,1.45914 -2.79459,16.60298 -5.54778,33.65298 -2.7532,17.05 -5.24405,32.0125 -5.53523,33.25 l -0.52941,2.25 2,0 2,0 0.51297,-2.25 z m 208.99873,-0.5 c -1.02258,-5.90277 -4.42696,-33.09274 -4.91438,-39.25 -0.84244,-10.64209 -2.77827,-25.34452 -3.64364,-27.67308 l -0.80759,-2.17307 -10.54252,0 -10.54252,0 -0.41446,0.67307 c -0.37709,0.61238 5.73839,60.27587 6.96208,67.92308 l 0.52006,3.25 11.92968,0 11.92969,0 -0.4764,-2.75 z m 21.39908,-13.5 c -1.57715,-8.9375 -4.29126,-24.575 -6.03135,-34.75 l -3.16382,-18.5 -1.31494,-1.44048 c -2.36011,-2.5854 -2.28766,-0.73985 0.68566,17.46726 1.61432,9.88527 3.16755,20.67322 3.45162,23.97322 0.47189,5.48198 2.69366,20.01607 4.08917,26.75 l 0.56989,2.75 2.29065,0 2.29066,0 -2.86754,-16.25 z m -221.87268,-58.25 0,-1.5 -4,0 -4,0 0,1.5 0,1.5 4,0 4,0 0,-1.5 z m 21,0 0,-1.5 -10,0 -10,0 0,1.5 0,1.5 10,0 10,0 0,-1.5 z m 7,0 0,-1.5 -2.5,0 -2.5,0 0,1.5 0,1.5 2.5,0 2.5,0 0,-1.5 z m 46,0 0,-1.5 -22.5,0 -22.5,0 0,1.5 0,1.5 22.5,0 22.5,0 0,-1.5 z m 3,0 0,-1.5 -0.83333,0 -0.83334,0 0,1.5 0,1.5 0.83334,0 0.83333,0 0,-1.5 z m 21,0 0,-1.5 -10,0 -10,0 0,1.5 0,1.5 10,0 10,0 0,-1.5 z m 7,0.11663 0,-1.38337 -2,-0.52301 -2,-0.52301 0,1.90638 0,1.90638 2,0 2,0 0,-1.38337 z m 29,-0.11663 0,-1.5 -13.5,0 -13.5,0 0,1.5 0,1.5 13.5,0 13.5,0 0,-1.5 z m 1.68311,-0.6875 -0.52522,-1.3125 -0.0789,1.91667 -0.079,1.91666 0.60417,-0.60416 0.60416,-0.60417 -0.52522,-1.3125 z m 47.31689,0.6875 0,-1.5 -23,0 -23,0 0,1.5 0,1.5 23,0 23,0 0,-1.5 z m 6,0 0,-1.5 -2.5,0 -2.5,0 0,1.5 0,1.5 2.5,0 2.5,0 0,-1.5 z m 21,0 0,-1.5 -10,0 -10,0 0,1.5 0,1.5 10,0 10,0 0,-1.5 z m 10,0 0,-1.5 -4,0 -4,0 0,1.5 0,1.5 4,0 4,0 0,-1.5 z m -157,-16.5 0,-1 -9,0 -9,0 0,1 0,1 9,0 9,0 0,-1 z m 37,0 0,-1 -7,0 -7,0 0,1 0,1 7,0 7,0 0,-1 z m 46,0 0,-1 -9.5,0 -9.5,0 0,1 0,1 9.5,0 9.5,0 0,-1 z m -154.27083,-4.60417 -0.60417,-0.60416 -1.3125,0.52522 -1.3125,0.52522 1.91667,0.0789 1.91666,0.079 -0.60416,-0.60417 z m 7.03249,-0.0829 c -0.95609,-0.25029 -2.75609,-0.25937 -4,-0.0202 l -2.26166,0.4349 4,0.0202 4,0.0202 -1.73834,-0.45508 z m 7.50737,0.0311 c -0.67703,-0.27392 -2.02703,-0.29059 -3,-0.0371 l -1.76903,0.46107 3,0.0371 3,0.0371 -1.23097,-0.49805 z m 28.48097,-0.0886 c -4.8125,-0.18331 -12.6875,-0.18331 -17.5,0 l -8.75,0.3333 17.5,0 17.5,0 -8.75,-0.3333 z m 47,-0.003 c -7.0125,-0.1719 -18.4875,-0.1719 -25.5,0 l -12.75,0.31255 25.5,0 25.5,0 -12.75,-0.31255 z m 70.5,-7.7e-4 c -8.3875,-0.16726 -22.1125,-0.16726 -30.5,0 l -15.25,0.3041 30.5,0 30.5,0 -15.25,-0.3041 z m 42.5,0.003 c -4.8125,-0.18331 -12.6875,-0.18331 -17.5,0 l -8.75,0.3333 17.5,0 17.5,0 -8.75,-0.3333 z m 13.5,0.0823 -1.25,-0.50439 -1.25,0.50439 -1.25,0.50439 2.5,0 2.5,0 -1.25,-0.50439 z m 8.51166,-0.0248 c -0.95609,-0.25029 -2.75609,-0.25937 -4,-0.0202 l -2.26166,0.4349 4,0.0202 4,0.0202 -1.73834,-0.45508 z m 5.96751,0.0829 -0.60417,-0.60416 -1.3125,0.52522 -1.3125,0.52522 1.91667,0.0789 1.91666,0.079 -0.60416,-0.60417 z m -302.19325,108.66228 -0.65178,-1.0546 1.55793,-2.22426 c 0.85686,-1.22258 1.55793,-2.57336 1.55793,-3.00099 l 0,-0.77749 -1.5,0 -1.5,0 0,-1 0,-1 4,0 4,0 0,0.86514 c 0,0.47583 -0.93266,2.05083 -2.07258,3.5 l -2.07258,2.63486 2.15592,0 2.15591,0 -0.41035,1.25 -0.41034,1.25 -3.07914,0.30636 -3.07914,0.30636 -0.65178,-1.05461 z m 361.46408,-45.05734 0,-8 6.02144,0 6.02144,0 1.12558,2.47039 1.12558,2.47038 -1.0598,1.27962 -1.0598,1.27961 0.77851,4.25 0.7785,4.25 -1.86572,0 -1.86573,0 0,-2.46482 0,-2.46481 -2.02067,-1.08143 -2.02066,-1.08143 -0.97934,0.60526 -0.97933,0.60526 0,2.94099 0,2.94098 -2,0 -2,0 0,-8 z m 9.78987,-3.12071 0.30698,-1.6207 -1.79843,-0.46654 c -0.98913,-0.2566 -2.36092,-0.27728 -3.04842,-0.046 l -1.25,0.42058 0,1.98309 0,1.98308 2.74145,-0.31642 2.74145,-0.31642 0.30697,-1.62071 z m 6.81,8.37071 -0.55904,-2.75 0.42931,-4.5 c 0.23612,-2.475 0.45193,-4.8375 0.47958,-5.25 0.0277,-0.4125 0.72528,-0.75 1.55028,-0.75 l 1.5,0 0,8 0,8 -1.42054,0 -1.42055,0 -0.55904,-2.75 z m 8.06699,0.93438 -1.64311,-1.81561 -0.60917,-3.04589 -0.60918,-3.04588 1.57992,-3.05523 1.57992,-3.05522 2.95873,-0.64985 2.95873,-0.64985 1.89089,1.01198 c 1.04,0.55659 2.46707,1.70622 3.17128,2.55474 l 1.28038,1.54276 -1.58693,0.60896 -1.58692,0.60896 -1.59713,-1.59712 c -1.99977,-1.99977 -2.90401,-2.00453 -4.88284,-0.0257 l -1.57143,1.57143 0,2.34678 c 0,1.29073 0.27314,3.05859 0.60699,3.92857 l 0.60699,1.58179 2.06427,0 2.06427,0 1.85237,-1.67637 1.85237,-1.67637 0.9671,0.9671 0.9671,0.9671 -1.54743,2.20927 -1.54744,2.20927 -3.78831,0 -3.7883,0 -1.64312,-1.81562 z m 14.33314,-6.18438 0,-8 2,0 2,0 0,3 0,3 3,0 3,0 0,-3 0,-3 2.04206,0 2.04207,0 -0.29207,7.73916 -0.29206,7.73915 -1.75,0.33417 -1.75,0.33417 0,-3.57333 0,-3.57332 -3,0 -3,0 0,3.5 0,3.5 -2,0 -2,0 0,-8 z m -55.20431,-60.75 -0.29569,-6.75 -2.26483,-0.32149 -2.26483,-0.3215 0.57385,-0.9285 0.57384,-0.92851 4.88197,0 4.88197,0 0.61803,1 0.61803,1 -2.55901,0 -2.55902,0 0,7 0,7 -0.95431,0 -0.95431,0 -0.29569,-6.75 z m 9.89887,5.63888 -1.80544,-1.05031 -0.97457,-2.56333 -0.97458,-2.56332 1.05894,-3.20863 1.05894,-3.20862 2.52838,-1.15201 2.52838,-1.152 2.46907,0.6197 2.46908,0.6197 0.97362,1.81923 0.97362,1.81923 0,3.56574 0,3.56574 -2,2 -2,2 -2.25,-0.0304 c -1.2375,-0.0167 -3.06245,-0.50305 -4.05544,-1.08071 z m 7.75402,-4.20695 0.98538,-2.81808 -1.50135,-2.67485 -1.50136,-2.67485 -1.59425,-0.30702 -1.59424,-0.30703 -1.62138,1.62138 -1.62138,1.62138 0,2.49431 c 0,1.37187 0.48027,3.3917 1.06726,4.4885 l 1.06726,1.99419 2.66433,-0.30993 2.66434,-0.30993 0.98539,-2.81807 z m 6.49196,5.06807 c -0.0327,-0.1375 -0.13541,-3.625 -0.22826,-7.75 l -0.1688,-7.5 3.35542,-0.32284 3.35542,-0.32284 1.07284,1.07284 1.07284,1.07284 -3.2,0 -3.2,0 0,2.5 0,2.5 2.44098,0 2.44099,0 0.61803,1 0.61803,1 -3.05901,0 -3.05902,0 0,3.5 0,3.5 -1,0 c -0.55,0 -1.02676,-0.1125 -1.05946,-0.25 z m -332.94054,-105.25 0,-83.54723 17.25,0.27362 17.25,0.27361 0,83 0,83 -17.25,0.27361 -17.25,0.27362 0,-83.54723 z m 27.54112,43.43347 0.65915,-1.06653 -0.50709,-0.5071 c -0.27891,-0.2789 -3.51086,-0.81146 -7.18213,-1.18347 l -6.67503,-0.67637 6.62885,-1.88743 6.62885,-1.88742 -0.29686,-1.51444 -0.29686,-1.51443 -5.87559,-2.19134 -5.87558,-2.19134 6.37558,-0.9068 6.37559,-0.9068 -0.19718,-1 -0.19718,-1 -1.70708,-0.35303 c -0.9389,-0.19417 -5.03861,-0.0408 -9.11048,0.34072 l -7.4034,0.69376 0.30766,2.15875 0.30766,2.15876 5.91039,2.09238 5.91038,2.09238 -0.91038,0.52499 c -0.50072,0.28875 -3.27289,1.29607 -6.16039,2.23851 l -5.25,1.71351 0,2.37192 0,2.37192 6.25,0.35503 c 3.4375,0.19527 7.46094,0.44175 8.94098,0.54772 l 2.69099,0.19268 0.65915,-1.06653 z m -0.16612,-21.73122 0.49303,-0.79774 -0.68401,-1.06747 c -0.37621,-0.58711 -1.69652,-1.38345 -2.93402,-1.76965 l -2.25,-0.70217 0,-2.40693 0,-2.40693 3,-1.55136 c 2.89592,-1.49754 3.60153,-2.56513 2.4539,-3.71276 l -0.5461,-0.5461 -8.7039,2.79901 -8.7039,2.79902 0,2.24587 0,2.24587 8,2.75618 c 9.20979,3.17298 9.2199,3.17514 9.875,2.11516 z m -11.875,-6.1624 -2,-0.81958 2.8151,-1.11014 c 3.6724,-1.44821 3.6849,-1.44519 3.6849,0.88987 l 0,2 -1.25,-0.0703 c -0.6875,-0.0387 -2.15,-0.43909 -3.25,-0.88986 z m 7.6504,-11.12034 2.01892,-1.08049 1.45077,-3.47219 1.45077,-3.47219 -0.64672,-3.44732 -0.64672,-3.44732 -4.88871,0 -4.88871,0 0,3 0,3 1.5,0 1.5,0 0,-1.5 0,-1.5 2.5,0 2.5,0 0,2.38922 0,2.38921 -1.81043,2.23579 -1.81043,2.23578 -2.7227,0 -2.72271,0 -1.96687,-1.77999 -1.96686,-1.77999 0,-3.84501 0,-3.84501 -1.62723,0 -1.62723,0 0.49881,5.19116 0.4988,5.19116 2.68419,2.30884 2.68419,2.30884 3.00998,0 3.00997,0 2.01892,-1.08049 z m 4.11655,-20.41951 -0.23306,-1 -6.26694,-0.5 -6.26695,-0.5 6,-3.38518 c 3.3,-1.86185 6.30781,-3.86536 6.68402,-4.45225 l 0.68401,-1.06708 -0.49303,-0.79774 -0.49303,-0.79775 -9.02432,0 -9.02432,0 0.41098,1.25 0.41098,1.25 5.42235,0.5 5.42236,0.5 -5.75,3.32339 -5.75,3.32339 0,1.96414 0,1.96413 9.25,-0.28752 9.25,-0.28753 -0.23305,-1 z m 0.53531,-23.25 0.30226,-5.25 -1.4919,0 -1.49189,0 -0.31036,3.75 -0.31037,3.75 -2.5,0 -2.5,0 -0.31336,-3.25 -0.31336,-3.25 -1.43664,0 -1.43664,0 0,3.57332 0,3.57333 -1.75,-0.33468 -1.75,-0.33468 -0.5,-3.40915 -0.5,-3.40916 -1.25,-0.41282 -1.25,-0.41283 0,5.62086 0,5.62086 9.25,-0.28752 9.25,-0.28753 0.30226,-5.25 z m -15.80226,-9.80902 0,-2.44098 8,0 8,0 0,-1.45794 0,-1.45793 -7.70783,-0.29207 -7.70783,-0.29206 -0.54217,-2.30902 -0.54217,-2.30901 -1,0.0475 -1,0.0475 -0.30402,5.64953 c -0.16721,3.10724 -0.0579,6.29094 0.24293,7.07488 l 0.54696,1.42535 1.00707,-0.62239 1.00706,-0.6224 0,-2.44099 z m 26,49.05902 0,-83.5 5,0 5,0 0,83.5 0,83.5 -5,0 -5,0 0,-83.5 z m 7.66317,80.06461 -0.55082,-1.43539 1.18207,-0.39403 1.18206,-0.39402 -1.17134,-2.57081 -1.17135,-2.57082 0.68311,-0.68289 c 0.3757,-0.37559 0.7387,-2.6791 0.80665,-5.1189 l 0.12355,-4.43602 -0.85307,-0.52722 -0.85307,-0.52723 1.20448,-1.92868 1.20448,-1.92868 -1.15329,-1.15329 -1.15329,-1.15329 1.15329,-1.84671 1.15329,-1.84671 -1.15329,-1.15329 -1.15329,-1.15329 1.15149,-1.84382 1.15148,-1.84383 -3.41932,-3.52784 c -1.88063,-1.94032 -3.78105,-3.52785 -4.22316,-3.52785 l -0.80383,0 0,1.42327 0,1.42328 2.7148,3.32672 2.71481,3.32673 -2.22094,-1.91054 -2.22093,-1.91053 -0.72509,0.72509 -0.7251,0.72509 1.64848,2.87231 1.64848,2.8723 -1.21613,-0.46667 -1.21614,-0.46667 0.0838,14.58789 0.0838,14.5879 1.46504,0.9266 c 0.80577,0.50963 2.30067,0.9335 3.32202,0.94192 l 1.85699,0.0153 -0.55081,-1.43539 z m 1.33683,-39.50559 0,-1.94099 -1.04856,-0.64804 -1.04856,-0.64805 1.11796,-1.34705 1.11795,-1.34705 -1.03421,-1.93243 -1.03421,-1.93244 0.67094,-0.67095 0.67094,-0.67094 0.13917,-7.21054 0.13917,-7.21054 -0.8373,-1.66933 -0.83731,-1.66933 1.23025,-0.41008 1.23025,-0.41009 -1.2168,-2.67058 -1.2168,-2.67059 0.97856,0 0.97856,0 0,-1.70239 0,-1.7024 -3.19617,-3.2976 c -1.75789,-1.81369 -3.55789,-3.29761 -4,-3.29761 l -0.80383,0 0,1.67126 0,1.67126 1.69393,1.87177 1.69394,1.87178 -1.69394,-0.65002 -1.69393,-0.65003 0,1.77825 0,1.77825 1.69393,1.87177 1.69394,1.87178 -1.56305,-0.5998 -1.56305,-0.5998 0.1878,5.35888 c 0.10329,2.94738 0.49719,5.85949 0.87534,6.47135 l 0.68755,1.11248 -1.24447,0.41482 -1.24447,0.41483 1.2168,2.67058 1.2168,2.67059 -0.97856,0 -0.97856,0 0,1.36514 c 0,0.75083 0.97702,2.66333 2.17116,4.25 l 2.17117,2.88486 -1.37117,-1.25 c -0.75414,-0.6875 -1.73116,-1.25 -2.17116,-1.25 l -0.8,0 0,1.4652 0,1.46521 3.10359,3.53479 c 1.70698,1.94414 3.50698,3.5348 4,3.5348 l 0.89641,0 0,-1.94098 z m 0,-42.57371 0,-1.51468 -3.43073,-3.73532 -3.43073,-3.73531 -0.70155,1.81591 -0.70155,1.81592 3.32844,3.43408 c 1.83065,1.88875 3.69018,3.43409 4.13229,3.43409 l 0.80383,0 0,-1.51469 z m 0,-5.95051 0,-1.46521 -3.10359,-3.53479 c -1.70698,-1.94414 -3.50698,-3.5348 -4,-3.5348 l -0.89641,0 0,1.70239 0,1.7024 3.19617,3.2976 c 1.75789,1.81369 3.55789,3.29761 4,3.29761 l 0.80383,0 0,-1.4652 z m -0.0153,-5.7848 c -0.008,-0.6875 -0.43467,-1.91312 -0.94722,-2.72361 l -0.9319,-1.4736 1.14036,-0.70478 1.14036,-0.70478 -1.14157,-2.50548 -1.14157,-2.50547 1.18666,-0.39555 1.18667,-0.39556 -1.2168,-2.67058 -1.2168,-2.67059 0.97856,0 0.97856,0 0,-1.36514 c 0,-0.75083 -1.00048,-2.66333 -2.22329,-4.25 l -2.22328,-2.88486 1.74745,1.3925 1.74745,1.3925 0.70706,-0.70706 0.70706,-0.70705 -1.64848,-2.87231 -1.64848,-2.8723 1.41726,0.54385 1.41725,0.54385 0,-1.62168 0,-1.62167 -3.43073,-3.73532 -3.43073,-3.73531 -0.69055,1.78725 -0.69055,1.78724 1.84322,2.03673 1.84322,2.03674 -1.40508,-0.32398 -1.40507,-0.32398 -0.0669,13.49995 -0.0669,13.49995 2.85359,3.25005 c 1.56948,1.78753 3.25698,3.25005 3.75,3.25005 l 0.89641,0 -0.0153,-1.25 z m 0,-36 c -0.008,-0.6875 -0.43467,-1.91312 -0.94722,-2.72361 l -0.9319,-1.4736 1.14036,-0.70478 1.14036,-0.70478 -1.17171,-2.57162 -1.1717,-2.57161 0.82358,0 0.82359,0 -0.13883,-7.89909 -0.13883,-7.89908 -1.37547,-1.65734 -1.37547,-1.65734 0.91928,0.30643 0.91927,0.30642 0,-1 0,-1 -2.98729,0 -2.98728,0 -0.10106,13 -0.10106,13 3.03451,3.25 c 3.20761,3.43538 4.6521,4.05978 4.62687,2 z m 203.25954,50.05246 0.25576,-83.30246 5,0 5,0 0,83 0,83 -5.25576,0.30246 -5.25575,0.30246 0.25575,-83.30246 z m 7.75576,79.69754 -1.24489,-1.5 1.00783,0 1.00783,0 -0.0157,-38.25 -0.0157,-38.25 -1.56363,-1.79303 -1.56364,-1.79304 1.53208,0.58791 1.53208,0.58792 -0.0881,-22.94006 -0.0881,-22.94006 -1.97347,-2.35482 -1.97346,-2.35482 1.42346,1.25 c 0.78291,0.6875 1.71219,1.25 2.06507,1.25 l 0.64159,0 -0.0238,-16.39586 -0.0238,-16.39586 -3.20818,0.0909 -3.20818,0.0909 0.0362,80.05492 0.0362,80.05492 0.97657,1.25 0.97656,1.25 2.5,0 2.5,0 -1.24482,-1.49992 z m -2.59549,-39.65451 -0.71353,-1.15451 1.15451,0.71353 c 1.15275,0.71244 1.54767,1.59549 0.71353,1.59549 -0.24254,0 -0.76207,-0.51953 -1.15451,-1.15451 z m 0,-48 -0.71353,-1.15451 1.15451,0.71353 c 0.63498,0.39244 1.15451,0.91197 1.15451,1.15451 0,0.83414 -0.88305,0.43922 -1.59549,-0.71353 z m 0,-36 -0.71353,-1.15451 1.15451,0.71353 c 0.63498,0.39244 1.15451,0.91197 1.15451,1.15451 0,0.83414 -0.88305,0.43922 -1.59549,-0.71353 z m 8.59549,43.65451 0,-83.54723 17.25,0.27362 17.25,0.27361 0,83 0,83 -17.25,0.27361 -17.25,0.27362 0,-83.54723 z m -90.09572,65.11534 1.34061,-1.61534 -1.12245,0 -1.12244,0 0,-1.94098 c 0,-1.06754 0.35899,-2.16285 0.79775,-2.43402 l 0.79774,-0.49303 1.28233,0.79252 1.28233,0.79252 -0.33007,2.88295 -0.33008,2.88294 -1.96817,0.37389 -1.96817,0.37389 1.34062,-1.61534 z m 7.89271,-2.29562 -1.70301,-0.44827 -0.44421,-1.68573 c -0.6741,-2.55816 -0.25401,-9.52373 0.65953,-10.93572 l 0.80873,-1.25 3.31854,0 3.31854,0 1.20506,1.45201 1.20507,1.45201 -0.6233,1.96384 -0.62329,1.96383 1.04067,0.64317 1.04068,0.64317 0,1.88428 0,1.88428 -2.22251,1.55671 -2.2225,1.5567 -1.5275,-0.116 c -0.84012,-0.0638 -2.29385,-0.31773 -3.2305,-0.56428 z m 5.20301,-4.36769 c 0,-0.4587 -0.48921,-1.13634 -1.08713,-1.50588 l -1.08713,-0.67189 -1.02574,1.02574 -1.02574,1.02574 0.6449,1.04345 0.64489,1.04346 1.46798,-0.56331 c 0.80738,-0.30983 1.46797,-0.93861 1.46797,-1.39731 z m -1.5,-5.95203 0.61803,-1 -1.55901,0 -1.55902,0 0,1 c 0,0.55 0.42344,1 0.94098,1 0.51754,0 1.2191,-0.45 1.55902,-1 z m -30.05936,-24.25 c 0.3691,-2.8875 1.25024,-9.4125 1.95809,-14.5 l 1.28701,-9.25 -37.84287,0 -37.84287,0 0,-1.5 0,-1.5 37.5,0 37.5,0 0,-0.99124 0,-0.99123 -53.25,-0.26772 -53.25,-0.26771 53.25,-0.24105 53.25,-0.24105 0,-1 0,-1 -37.5,0 -37.5,0 0,-1.5 0,-1.5 37.5,0 37.5,0 0,-1 0,-1 2.5,0 2.5,0 0,3.48891 0,3.4889 41.25,0.2725 41.25,0.27249 -41.14301,0.2386 -41.14301,0.2386 -0.65229,1.69984 c -0.56216,1.46496 -4.56169,29.02594 -4.56169,31.43485 l 0,0.86531 -1.61522,0 -1.61523,0 0.67109,-5.25 z M 261.825,464.34427 c -0.30402,-0.79224 -0.41334,-3.62161 -0.24294,-6.28748 l 0.30981,-4.84705 3.25,-0.15888 3.25,-0.15888 0,0.88299 c 0,0.48564 -0.9,1.78298 -2,2.88298 l -2,2 0,2.94098 0,2.94099 -1.00706,0.6224 -1.00707,0.62239 -0.55274,-1.44044 z m 9.08855,-0.3075 c -1.92291,-1.92291 -1.91338,-2.84427 0.0497,-4.80739 l 1.57148,-1.57143 1.92857,0 1.92857,0 0,-1.07946 0,-1.07945 -3,0.65891 -3,0.65891 0,-0.87945 c 0,-0.48371 0.54,-1.41946 1.2,-2.07946 l 1.2,-1.2 2.67756,0 2.67755,0 1.18041,1.42231 1.18041,1.4223 -0.30797,4.69816 -0.30796,4.69816 -3.72832,0.32978 -3.72833,0.32978 -1.52167,-1.52167 z m 5.53114,-2.87882 -0.0528,-1 -1.16667,0 -1.16666,0 -0.4485,1.3455 -0.44851,1.34551 1.66799,-0.34551 1.66799,-0.3455 -0.0528,-1 z m 8.16969,2.9433 -2.22251,-1.55671 0,-3.28831 0,-3.2883 1.82874,-1.65499 1.82874,-1.65499 2.09983,0 2.09983,0 1.58062,1.58062 1.58062,1.58062 -0.5449,0.88167 -0.5449,0.88167 -2.5359,-1.15543 -2.53591,-1.15544 -0.91307,1.44315 c -1.1549,1.82535 -1.15324,3.06349 0.007,4.89693 l 0.91965,1.45378 2.56353,-1.37196 2.56353,-1.37196 0.7515,0.75426 0.75151,0.75425 -2.36078,1.91392 c -2.86183,2.32013 -4.02826,2.38037 -6.91671,0.35722 z m 24.77749,-0.4433 -2,-2 0,-2.27749 0,-2.2775 1.5567,-2.2225 1.55671,-2.22251 2.25216,0 2.25217,0 1.59016,1.25 c 0.87458,0.6875 1.89091,2.2625 2.25851,3.5 l 0.66837,2.25 -4.06739,0 -4.06739,0 0,1.61129 0,1.61129 3.5,-0.6566 3.5,-0.65661 0,1.01013 c 0,1.22442 -3.27427,3.0805 -5.43426,3.0805 l -1.56574,0 -2,-2 z m 5.5,-7 c -0.33992,-0.55 -1.26648,-1 -2.05902,-1 l -1.44098,0 0,1 0,1 2.05902,0 2.05901,0 -0.61803,-1 z m -62.5,1.56955 0,-6.43045 -2.25,-0.31955 -2.25,-0.31955 0.24094,-1 0.24095,-1 6.50905,-0.29569 6.50906,-0.29569 0,1.54569 0,1.54569 -2.5,0 -2.5,0 0,6.5 0,6.5 -2,0 -2,0 0,-6.43045 z m 43.35853,-1.3062 0.14147,-7.73665 1.75,-0.33667 1.75,-0.33668 0,4.24764 0,4.24764 2.31445,-2.17432 c 3.78461,-3.55545 6.34688,-2.66754 2.99388,1.03748 l -1.69166,1.86927 1.69166,2.86376 c 2.14715,3.63483 2.12217,4.05518 -0.24094,4.05518 l -1.93261,0 -0.63478,-2 -0.63478,-2 -0.93261,0 -0.93261,0 0,2 0,2 -1.89147,0 -1.89147,0 0.14147,-7.73665 z m 25.25802,2.9842 c 0.0641,-2.61115 0.1766,-5.25739 0.25,-5.88053 l 0.13345,-1.13299 2.9311,0.14742 c 1.6121,0.0811 3.23092,0.44724 3.59738,0.81369 l 0.66628,0.66628 -2.09738,1.30984 -2.09738,1.30983 0,3.75946 0,3.75945 -1.75,-0.002 -1.75,-0.002 0.11655,-4.74755 z m 34.5775,-1.70573 -0.13315,-3.54182 2.03291,0 2.03291,0 -0.31336,3.24181 -0.31336,3.24181 -1.5864,0.30001 -1.5864,0.3 -0.13315,-3.54181 z m -10.94405,-0.57298 -2.25,-0.90439 0,-1.57754 0,-1.57754 3.5,0.65661 3.5,0.6566 0,-1.61129 0,-1.61129 -3.5,0 -3.5,0 0.0136,-1.75 c 0.008,-0.9625 0.285,-2.7625 0.61664,-4 l 0.60297,-2.25 4.38337,0 4.38337,0 0,1.5 0,1.5 -3,0 -3,0 0,1 0,1 2.3,0 2.3,0 1.2,1.2 1.2,1.2 0,2.2433 0,2.24329 -2.22251,1.55671 c -2.49797,1.74965 -3.31785,1.81566 -6.52749,0.52554 z m 20.75,0.33718 c -0.825,-0.29485 -2.0625,-1.24533 -2.75,-2.11218 l -1.25,-1.5761 0,-3.65388 0,-3.65388 1.82874,-1.65499 1.82874,-1.65499 2.08947,0 c 1.14921,0 2.80128,0.27314 3.67126,0.60699 l 1.58179,0.60699 0,1.5043 0,1.5043 -3.5,-0.6566 -3.5,-0.65661 0,1.04532 0,1.04531 2.96482,0 2.96481,0 1.03519,1.93426 c 1.47061,2.74787 1.30371,3.79721 -0.96482,6.06574 l -2,2 -1.25,-0.079 c -0.6875,-0.0434 -1.925,-0.32018 -2.75,-0.61503 z m 3.42997,-5.41933 c -0.3014,-0.48768 -1.19645,-0.88669 -1.98899,-0.88669 l -1.44098,0 0,1.33333 c 0,0.73334 0.2961,1.62943 0.65799,1.99133 l 0.65799,0.65799 1.331,-1.10463 1.331,-1.10463 -0.54801,-0.8867 z m -28.42818,-10.63669 -0.002,-1.25 25.5,0 25.5,0 0,1.53451 0,1.53452 -25.49821,-0.28452 -25.49821,-0.28451 -0.002,-1.25 z m 0.99821,-7.75 0,-1.5 25,0 25,0 0,1.5 0,1.5 -25,0 -25,0 0,-1.5 z m -3.45665,-7.68681 c 0.24096,-1.82225 0.90616,-8.97771 1.47823,-15.90101 l 1.04012,-12.58782 -0.63458,-1.65369 -0.63458,-1.65369 -54.64627,-0.26721 -54.64627,-0.2672 54.75,-0.24129 54.75,-0.24128 -0.079,-2.25 -0.0789,-2.25 -0.50439,1.25 -0.50439,1.25 -51.91666,0 -51.91667,0 0,-1.5 0,-1.5 52.5,0 52.5,0 0,-1 0,-1 2.64674,0 2.64673,0 -0.75891,7.75 c -0.4174,4.2625 -1.27094,13.81939 -1.89674,21.23753 l -1.13782,13.48753 -1.69738,0.32566 -1.69739,0.32566 0.43812,-3.31319 z m 23.62778,-12.81319 -0.15673,-4 1.52418,0 1.52419,0 0.57646,1.50224 0.57646,1.50223 -0.6269,2.49777 -0.62689,2.49776 -1.31702,0 -1.31701,0 -0.15674,-4 z m -11.09216,-0.27189 -2.42103,-1.22811 -0.44833,-1.35806 -0.44832,-1.35807 4.11936,0.69597 4.11935,0.69596 0,-1.5879 0,-1.5879 -1.5,0 -1.5,0 0,-1.3 c 0,-0.715 0.5625,-1.8981 1.25,-2.62911 l 1.25,-1.32911 -2.79599,0.65971 -2.79599,0.6597 -1.00257,-0.61962 -1.00257,-0.61963 1.17101,-1.41097 1.171,-1.41097 3.25511,0 3.25511,0 1.20506,1.45201 1.20507,1.45201 -0.6233,1.96384 -0.62329,1.96383 1.04067,0.64317 1.04068,0.64317 0,1.81854 0,1.81854 -1.25,1.00006 c -0.6875,0.55003 -2.15,1.27028 -3.25,1.60055 l -2,0.60051 -2.42103,-1.22812 z m 23.5594,-0.22811 -0.5756,-1.5 -3.03139,0 -3.03138,0 0,-2.05864 0,-2.05864 3.12459,-3.88813 3.1246,-3.88814 2.1254,-0.30323 c 1.16898,-0.16677 -5.41209,-0.25972 -14.62459,-0.20656 l -16.75,0.0967 0,-1.34667 0,-1.34666 30,0 30,0 0,1.5 0,1.5 -13,0 -13,0 0,4.44098 0,4.44099 0.98888,0.61116 0.98889,0.61116 -1.6039,2.44786 -1.60389,2.44785 -1.278,0 -1.278,0 -0.57561,-1.5 z m -0.56337,-5.775 c -0.12369,-1.1957 -1.49529,-0.96414 -1.925,0.325 l -0.4,1.2 1.2,-0.4 c 0.66,-0.22 1.16625,-0.72625 1.125,-1.125 z m -126.075,-9.225 0,-1.5 46,0 46,0 0,1.5 0,1.5 -46,0 -46,0 0,-1.5 z m 116.68378,-4.24846 c 10.55108,-0.16184 28.10108,-0.16207 39,-5.1e-4 l 19.81622,0.29375 -39,5.1e-4 -39,5.2e-4 19.18378,-0.29427 z m -18.68378,-3.75154 0,-1.5 36.5,0 36.5,0 0,1.5 0,1.5 -36.5,0 -36.5,0 0,-1.5 z m -4.5894,-25.99988 0.0894,-21.49987 2.37898,-1.3e-4 2.37899,-1.2e-4 -0.61117,8.75 c -0.33614,4.8125 -0.90512,14.4875 -1.2644,21.5 l -0.65325,12.75 -1.20397,0 -1.20397,0 0.0894,-21.49988 z m 9.09631,4.62224 -2.99309,-0.63961 4.3893,-4.76183 4.38931,-4.76183 -0.64772,-0.64772 -0.64772,-0.64772 -2.49699,1.33635 -2.49699,1.33635 -0.71613,-0.71614 -0.71614,-0.71614 1.07058,-1.70203 1.07059,-1.70204 4.39404,-0.67588 4.39405,-0.67587 19.75,-0.0741 19.75,-0.0742 0,1.5 0,1.5 -19,0 -19,0 0,-1 0,-1 -1.7,0 -1.7,0 1.2,1.2 1.2,1.2 0,1.84545 0,1.84546 -2.5,2.5 c -1.375,1.375 -2.5,2.70454 -2.5,2.95454 0,0.25 1.125,0.45455 2.5,0.45455 l 2.5,0 0,1 c 0,0.55 -0.3375,1.037 -0.75,1.08223 -0.4125,0.0452 -1.875,0.21667 -3.25,0.38099 -1.375,0.16431 -3.84689,0.0109 -5.49309,-0.34086 z m -95.50691,-13.62236 0,-1.5 42.5,0 42.5,0 0,1.5 0,1.5 -42.5,0 -42.5,0 0,-1.5 z m 91,0 0,-1.5 2.12244,0 2.12245,0 -1.24489,1.5 c -0.68469,0.825 -1.63979,1.5 -2.12244,1.5 l -0.87756,0 0,-1.5 z m -111.67656,-4.24967 c 19.70289,-0.15167 51.65289,-0.15159 71,1.7e-4 l 35.17656,0.27592 -71,-1.7e-4 -71,-1.8e-4 35.82344,-0.27574 z m 139.42656,3.5e-4 c 14.9875,-0.15555 39.5125,-0.15555 54.5,0 l 27.25,0.28283 -54.5,0 -54.5,0 27.25,-0.28283 z m 106.04569,-12.00068 -0.29569,-6.75 -2.26483,-0.32149 -2.26483,-0.3215 0.57385,-0.9285 0.57384,-0.92851 4.88197,0 4.88197,0 0.61803,1 0.61803,1 -2.55901,0 -2.55902,0 0,7 0,7 -0.95431,0 -0.95431,0 -0.29569,-6.75 z m 9.27689,4.11514 -2.07258,-2.63486 0,-2.91059 0,-2.9106 2.45455,-2.45454 2.45454,-2.45455 1.9106,0 1.91059,0 2.63486,2.07258 2.63486,2.07258 0,3.92742 0,3.92742 -2,2 -2,2 -2.92742,0 -2.92742,0 -2.07258,-2.63486 z m 7.66236,-0.18016 1.23494,-0.7844 0.59754,-2.98766 0.59753,-2.98765 -1.965,-2.42668 -1.965,-2.42667 -2.61748,1.1926 -2.61747,1.1926 0,3.82144 0,3.82144 1.2,1.2 c 1.36958,1.36958 3.72668,1.53353 5.53494,0.38498 z m 7.26506,-5.18498 0,-8 4,0 4,0 0,1 0,1 -3,0 -3,0 0,2.5 0,2.5 3,0 3,0 0,1 0,1 -3,0 -3,0 0,3.5 0,3.5 -1,0 -1,0 0,-8 z m -228.25,3.26687 -66.75,-0.28105 0,-2.99291 0,-2.99291 8.5,0 8.5,0 0,-1 0,-1 19.5,0 19.5,0 0,-1.5 0,-1.5 11.5,0 11.5,0 0,1.5 0,1.5 9,0 9,0 0,-1.5 0,-1.5 11,0 11,0 0,1.44236 0,1.44237 6.87072,-0.19237 6.87072,-0.19236 0.62928,-7.40088 c 0.3461,-4.07048 0.62928,-8.68298 0.62928,-10.25 l 0,-2.84912 -77.5,0 -77.5,0 0,-3.43045 0,-3.43045 -2.17167,-0.31955 -2.17167,-0.31955 -0.97828,-3 c -0.53805,-1.65 -1.39923,-3.27531 -1.91373,-3.6118 -0.51451,-0.3365 -0.91054,-0.8932 -0.88008,-1.23713 0.12869,-1.45289 -19.21177,-43.42719 -32.66902,-70.90107 l -9.67394,-19.75 -4.2708,0 -4.27081,0 0,-1 0,-1 108,0 108,0 0,-1.5 0,-1.5 -108,0 -108,0 0,-8 0,-8 7,0 7,0 0,-4.5 0,-4.5 -10.5,0 -10.5,0 0,-1.04983 0,-1.04982 26.25,0.16621 26.25,0.16622 0.3075,-4.11639 0.3075,-4.11639 -26.5575,0 -26.5575,0 0,-1 0,-1 205,0 205,0 0,1 0,1 -26.5,0 -26.5,0 -5e-5,4.25 -5e-5,4.25 26.50005,-0.21814 26.50005,-0.21815 0,0.96815 0,0.96814 -11,0 -11,0 0,4.45619 0,4.45619 7.25,0.29381 7.25,0.29381 0.29206,7.75 0.29207,7.75 -45.29207,-0.23933 -45.29206,-0.23933 44.25,-0.27107 44.25,-0.27107 0,-6.4896 0,-6.4896 -6.43045,0 -6.43045,0 -0.31955,2.25 -0.31955,2.25 -81.25,0.25588 -81.25,0.25588 0,3.99412 0,3.99412 3.75,0.16004 3.75,0.16003 -3.25,0.40333 -3.25,0.40332 0,1.43664 0,1.43664 3,0 3,0 0,1.5 0,1.5 -3,0 -3,0 0,0.93664 0,0.93664 3.25,0.40332 3.25,0.40333 -3.25,0.16003 -3.25,0.16004 0,2 0,2 7.43045,0 7.43045,0 0.43337,-2.25 0.43337,-2.25 0.13618,2.25 0.13618,2.25 8,0 8,0 0,-2 0,-2 1,0 1,0 0,2 0,2 9,0 9,0 0,-2 0,-2 1,0 1,0 0.0703,1.75 0.0703,1.75 0.85943,-2 0.85943,-2 0.0703,2.25 0.0702,2.25 6.38342,0 6.38343,0 0.46327,-2.42346 0.46327,-2.42346 -1.80116,-0.47101 -1.80115,-0.47101 -0.6892,-2.74596 -0.68919,-2.74597 0.91171,-2.60956 0.91171,-2.60957 3.29727,-0.31823 3.29727,-0.31823 1.43467,1.19067 1.43468,1.19068 0,2.37755 0,2.37756 -4.21429,0 -4.21428,0 1.59762,1.59762 1.59762,1.59762 1.98518,-1.06244 1.98518,-1.06243 0.62281,0.6228 0.62281,0.62281 -1.11377,1.34201 c -0.61257,0.73811 -1.73367,1.34201 -2.49132,1.34201 l -1.37756,0 0,2.5 0,2.5 8,0 8,0 0,-2.5 0,-2.5 28,0 28,0 0,8.89059 0,8.8906 3.36809,0.3932 3.3681,0.39321 4.95124,-10.2838 4.95124,-10.2838 -36.31933,0 -36.31934,0 0,-1.5 0,-1.5 45,0 45,0 0,1 0,1 -4.83575,0 -4.83574,0 -7.80086,16.25 c -13.09172,27.27143 -21.93398,46.07107 -23.88098,50.77365 -1.01934,2.46199 -4.59486,10.504 -7.9456,17.87112 l -6.09227,13.39477 -1.8044,0.47186 -1.8044,0.47186 0,3.38337 0,3.38337 -60,0 -60,0 0,4.35331 c 0,2.39432 -0.21093,7.23182 -0.46873,10.75 l -0.46872,6.39669 0.54205,-1.75 0.54205,-1.75 11.42667,0 11.42668,0 0,1.5 0,1.5 9,0 9,0 0,-1.5 0,-1.5 21,0 21,0 0,1.5 0,1.5 -19.5,0 -19.5,0 0,1 0,1 27.5,0 27.5,0 0,3 0,3 -49.25,0.0137 c -27.0875,0.008 -50.15,0.1308 -51.25,0.27397 -1.1,0.14316 -32.0375,0.13383 -68.75,-0.0207 z m -63.02083,-1.87104 -0.60417,-0.60416 -1.3125,0.52522 -1.3125,0.52522 1.91667,0.0789 1.91666,0.0789 -0.60416,-0.60417 z m 7.52083,-0.10156 c -1.2375,-0.23836 -3.2625,-0.23836 -4.5,0 l -2.25,0.43337 4.5,0 4.5,0 -2.25,-0.43337 z m 34.94458,-0.0413 c -6.21799,-0.17573 -16.11799,-0.17511 -22,0.001 l -10.69458,0.32089 22,-10e-4 22,-10e-4 -11.30542,-0.31952 z m 68.62124,-10e-4 c -10.2763,-0.1624 -27.3763,-0.16264 -38,-5.4e-4 l -19.31582,0.29473 38,5.4e-4 38,5.3e-4 -18.68418,-0.29526 z m 52.93418,0.002 c -5.9125,-0.1768 -15.5875,-0.1768 -21.5,0 l -10.75,0.32145 21.5,0 21.5,0 -10.75,-0.32145 z m 44,0 c -5.9125,-0.1768 -15.5875,-0.1768 -21.5,0 l -10.75,0.32145 21.5,0 21.5,0 -10.75,-0.32145 z m 18.01166,0.0591 c -0.95609,-0.25029 -2.75609,-0.25937 -4,-0.0202 l -2.26166,0.4349 4,0.0202 4,0.0202 -1.73834,-0.45508 z m 4.96751,0.0829 -0.60417,-0.60416 -1.3125,0.52522 -1.3125,0.52522 1.91667,0.0789 1.91666,0.0789 -0.60416,-0.60417 z m -231,-3 -0.60417,-0.60416 -1.3125,0.52522 -1.3125,0.52522 1.91667,0.0789 1.91666,0.0789 -0.60416,-0.60417 z m 7.03249,-0.0829 c -0.95609,-0.25029 -2.75609,-0.25937 -4,-0.0202 l -2.26166,0.4349 4,0.0202 4,0.0202 -1.73834,-0.45508 z m 35.43292,-0.0599 c -6.21799,-0.17573 -16.11799,-0.17511 -22,0.001 l -10.69458,0.32089 22,-10e-4 22,-10e-4 -11.30542,-0.31952 z m 68.62124,-10e-4 c -10.2763,-0.1624 -27.3763,-0.16264 -38,-5.4e-4 l -19.31582,0.29473 38,5.4e-4 38,5.3e-4 -18.68418,-0.29526 z m 22.85085,0.0817 -0.66667,-0.6672 -0.66667,0.66666 -0.66666,0.66667 1.33333,0 1.33333,0 -0.66666,-0.66667 z m 33.58333,-0.0758 c -3.9875,-0.18981 -10.5125,-0.18981 -14.5,0 l -7.25,0.34512 14.5,0 14.5,0 -7.25,-0.34512 z m 40.5,-0.004 c -5.9125,-0.1768 -15.5875,-0.1768 -21.5,0 l -10.75,0.32145 21.5,0 21.5,0 -10.75,-0.32145 z m 18.01166,0.0591 c -0.95609,-0.25029 -2.75609,-0.25937 -4,-0.0202 l -2.26166,0.4349 4,0.0202 4,0.0202 -1.73834,-0.45508 z m 4.90501,0.0204 -0.66667,-0.6669 -0.66667,0.66666 -0.66666,0.66667 1.33333,0 1.33333,0 -0.66666,-0.66667 z m -210.90501,-2.02041 c -0.95609,-0.25029 -2.75609,-0.25937 -4,-0.0202 l -2.26166,0.4349 4,0.0202 4,0.0202 -1.73834,-0.45508 z m 25.98834,-0.0562 c -4.2625,-0.18745 -11.2375,-0.18745 -15.5,0 l -7.75,0.34082 15.5,0 15.5,0 -7.75,-0.34082 z m 26.25,-0.25696 0,-1 -9,0 -9,0 0,1 0,1 9,0 9,0 0,-1 z m 16.78352,0.26633 c -2.59406,-0.20525 -7.09406,-0.20738 -10,-0.005 l -5.28352,0.36844 10,0.005 10,0.005 -4.71648,-0.37317 z m 24.21648,-0.26633 0,-1 -9.5,0 -9.5,0 0,1 0,1 9.5,0 9.5,0 0,-1 z m 6.26903,0.34406 c -0.67703,-0.27392 -2.02703,-0.29059 -3,-0.0371 l -1.76903,0.46104 3,0.037 3,0.0371 -1.23097,-0.49805 z m 34.23097,-0.34406 -0.61803,-1 -4,0 -4,0 0.61803,1 0.61803,1 4,0 4,0 -0.61803,-1 z m 16.75,0.26276 c -2.8875,-0.202 -7.6125,-0.202 -10.5,0 l -5.25,0.36728 10.5,0 10.5,0 -5.25,-0.36728 z m -27.52083,-0.86693 -0.60417,-0.60416 -1.3125,0.52522 -1.3125,0.52522 1.91667,0.0789 1.91666,0.0789 -0.60416,-0.60417 z m -85,-2 -0.60417,-0.60416 -1.3125,0.52522 -1.3125,0.52522 1.91667,0.0789 1.91666,0.0789 -0.60416,-0.60417 z m 11.99853,-0.12563 c -2.07477,-0.21647 -5.22477,-0.21284 -7,0.008 l -3.2277,0.40166 7,-0.008 7,-0.008 -3.7723,-0.39359 z m 37,0 c -2.07477,-0.21647 -5.22477,-0.21284 -7,0.008 l -3.2277,0.40166 7,-0.008 7,-0.008 -3.7723,-0.39359 z m 5.93897,0.0631 -0.66667,-0.66663 -0.66667,0.66666 -0.66666,0.66667 1.33333,0 1.33333,0 -0.66666,-0.66667 z m 29.59708,-0.0373 c -1.22994,-0.23736 -3.47994,-0.24351 -5,-0.0136 l -2.76375,0.41792 5,0.0136 5,0.0137 -2.23625,-0.43157 z m 8.98625,-0.002 c -1.2375,-0.23836 -3.2625,-0.23836 -4.5,0 l -2.25,0.43337 4.5,0 4.5,0 -2.25,-0.43337 z m 47.04571,-0.0359 c -3.96237,-0.18931 -10.71237,-0.19045 -15,-0.003 l -7.79571,0.34164 15,0.003 15,0.003 -7.20429,-0.34419 z m 14.45429,0.0522 c -0.9625,-0.25152 -2.5375,-0.25152 -3.5,0 l -1.75,0.45733 3.5,0 3.5,0 -1.75,-0.45733 z m -156.93045,-24.0603 0.31955,-2.25 -39.56955,0 -39.56955,0 0,2.51161 0,2.5116 39.25,-0.2616 39.25,-0.26161 0.31955,-2.25 z m 57.18045,0.25 0,-2.5 -28,0 -28,0 0,2.5 0,2.5 28,0 28,0 0,-2.5 z m 17,0 0,-2.5 -7.5,0 -7.5,0 0,2.5 0,2.5 7.5,0 7.5,0 0,-2.5 z m 40,-0.0771 0,-2.42293 -18.5,0 -18.5,0 0,1.83333 c 0,1.00834 0.31307,2.14641 0.69572,2.52906 l 0.69572,0.69572 17.80428,-0.10613 17.80428,-0.10612 0,-2.42293 z m 81,0.0771 0,-2.5 -39.5,0 -39.5,0 0,2.5 0,2.5 39.5,0 39.5,0 0,-2.5 z m -278.45846,-12.75 c -1.89315,-3.9875 -5.93902,-12.80618 -8.99084,-19.59706 l -5.54875,-12.34707 0.65353,-1.05744 0.65354,-1.05745 -1.04972,0.64877 -1.04973,0.64876 -0.60803,-1.5845 -0.60803,-1.58449 0.65776,-1.06427 0.65775,-1.06427 -1.08251,0.66903 -1.08251,0.66903 -0.63655,-2.00557 -0.63654,-2.00557 0.72487,-1.25895 0.72487,-1.25895 -0.85615,0.77916 -0.85615,0.77916 -4.73357,-8.77916 c -2.60347,-4.82854 -7.88593,-15.19166 -11.73882,-23.02916 l -7.00524,-14.25 -1.06536,0 c -0.58595,0 -1.06536,0.1593 -1.06536,0.35399 0,0.69728 14.89513,32.48459 23.49778,50.14601 4.82216,9.9 11.60154,23.9625 15.06529,31.25 l 6.29773,13.25 1.56141,0 1.56142,0 -3.44209,-7.25 z m 13.45846,0.25 0,-7 9,0 9,0 0,-1.5 0,-1.5 -2.75,-0.0325 c -15.12511,-0.17867 -30.55834,0.007 -30.92389,0.37305 -0.24887,0.24886 1.38097,4.09905 3.62186,8.55596 l 4.07435,8.10348 3.98884,0 3.98884,0 0,-7 z m 18,5 0,-2 -8,0 -8,0 0,2 0,2 8,0 8,0 0,-2 z m 17,0 0,-2 -8,0 -8,0 0,2 0,2 8,0 8,0 0,-2 z m 19,0 0,-2 -8.5,0 -8.5,0 0,2 0,2 8.5,0 8.5,0 0,-2 z m 14.8,0.8 1.2,-1.2 0.0153,1.45 0.0153,1.45 0.9694,-1.5 c 0.53316,-0.825 0.96937,-1.95 0.96937,-2.5 l 0,-1 -0.96937,1.5 -0.96937,1.5 -0.0153,-1.44113 -0.0153,-1.44113 -1.4682,1.94113 -1.46819,1.94113 -0.0318,-1.75 -0.0318,-1.75 -6,0 -6,0 0,2 0,2 6.3,0 6.3,0 1.2,-1.2 z m 4.93073,-12.08017 -0.38132,-4.21983 0.006,9 0.006,9 0.37577,-4.78017 c 0.20668,-2.6291 0.20418,-6.6791 -0.006,-9 z m 17.26927,11.28017 0,-2 -8,0 -8,0 0,2 0,2 8,0 8,0 0,-2 z m 18,0 0,-2 -8,0 -8,0 0,2 0,2 8,0 8,0 0,-2 z m 18,0 0,-2 -8.5,0 -8.5,0 0,2 0,2 8.5,0 8.5,0 0,-2 z m 17,0 0,-2 -7.5,0 -7.5,0 0,2 0,2 7.5,0 7.5,0 0,-2 z m 20,0 0,-2 -8,0 -8,0 0,2 0,2 8,0 8,0 0,-2 z m 17,0 0,-2 -8,0 -8,0 0,2 0,2 8,0 8,0 0,-2 z m 20,0 0,-2 -5.88337,0 -5.88337,0 -0.52301,2 -0.52301,2 6.40638,0 6.40638,0 0,-2 z m 17,0 0,-2 -8,0 -8,0 0,2 0,2 8,0 8,0 0,-2 z m 18,0 0,-2 -8,0 -8,0 0,2 0,2 8,0 8,0 0,-2 z m 19,0 0,-2 -8.33333,0 -8.33334,0 -0.59776,0.59777 -0.59777,0.59776 0.53809,1.40224 0.53809,1.40223 8.39301,0 8.39301,0 0,-2 z m 12.50192,-5.25 c 1.87184,-3.9875 3.53716,-7.83144 3.70071,-8.54209 l 0.29737,-1.29209 -7.75074,-0.20791 -7.75074,-0.20791 7.4e-4,8.75 7.4e-4,8.75 4.04929,0 4.04929,0 3.40334,-7.25 z m 11.61529,-13.5 c 11.13229,-22.94093 32.19709,-68.47515 33.30827,-72 l 0.7093,-2.25 -1.13275,0 -1.13275,0 -6.9703,14.75 c -3.83366,8.1125 -8.70065,18.125 -10.81553,22.25 -2.11487,4.125 -5.99298,12.45 -8.61802,18.5 -2.62503,6.05 -7.82422,17.4125 -11.55375,25.25 l -6.78096,14.25 1.45869,0 1.45869,0 10.06911,-20.75 z m -94.45054,17.08333 -0.66667,-0.66666 0,1.33333 0,1.33333 0.66667,-0.66666 0.66666,-0.66667 -0.66666,-0.66667 z m -166.66667,-2.83333 0,-1.5 -8,0 -8,0 0,1.5 0,1.5 8,0 8,0 0,-1.5 z m 17,0 0,-1.5 -8,0 -8,0 0,1.5 0,1.5 8,0 8,0 0,-1.5 z m 19,0 0,-1.5 -8.5,0 -8.5,0 0,1.5 0,1.5 8.5,0 8.5,0 0,-1.5 z m 13.56598,0.39324 0.68402,-1.10677 0.85969,1.35677 0.85968,1.35676 0.0306,-1.5 0.0306,-1.5 0.96937,1.5 0.96937,1.5 0.0153,-1.74373 0.0153,-1.74372 -1.75,0.27265 c -0.9625,0.14997 -2.3125,0.6237 -3,1.05275 l -1.25,0.78008 0,-1.05901 0,-1.05902 -5.5,0 -5.5,0 0,1.5 0,1.5 5.94098,0 5.94099,0 0.68401,-1.10676 z m 23.43402,-0.39324 0,-1.5 -8,0 -8,0 0,1.5 0,1.5 8,0 8,0 0,-1.5 z m 18,0 0,-1.5 -8,0 -8,0 0,1.5 0,1.5 8,0 8,0 0,-1.5 z m 18,0 0,-1.5 -8.5,0 -8.5,0 0,1.5 0,1.5 8.5,0 8.5,0 0,-1.5 z m 17,0 0,-1.5 -7.5,0 -7.5,0 0,1.5 0,1.5 7.5,0 7.5,0 0,-1.5 z m 20,0 0,-1.5 -8,0 -8,0 0,1.5 0,1.5 8,0 8,0 0,-1.5 z m 17,0 0,-1.5 -8,0 -8,0 0,1.5 0,1.5 8,0 8,0 0,-1.5 z m 4.36163,0 0.5756,-1.5 -0.96861,0 -0.96862,0 0,1.5 c 0,0.825 0.17686,1.5 0.39301,1.5 0.21616,0 0.65203,-0.675 0.96862,-1.5 z m 15.63837,0 0,-1.5 -5.39301,0 -5.39301,0 -0.57561,1.5 -0.5756,1.5 5.96861,0 5.96862,0 0,-1.5 z m 17,0 0,-1.5 -8,0 -8,0 0,1.5 0,1.5 8,0 8,0 0,-1.5 z m 18,0 0,-1.5 -8,0 -8,0 0,1.5 0,1.5 8,0 8,0 0,-1.5 z m 19,0 0,-1.5 -8.39301,0 -8.39301,0 -0.57561,1.5 -0.5756,1.5 8.96861,0 8.96862,0 0,-1.5 z m -237,-4.5 0,-2 -8,0 -8,0 0,2 0,2 8,0 8,0 0,-2 z m 17,0 0,-2 -8,0 -8,0 0,2 0,2 8,0 8,0 0,-2 z m 19,0 0,-2 -8.5,0 -8.5,0 0,2 0,2 8.5,0 8.5,0 0,-2 z m 11.80963,0.25 -0.33702,-1.75 -4.97261,0 -4.97261,0 -0.33702,1.75 -0.33702,1.75 5.64665,0 5.64665,0 -0.33702,-1.75 z m 4.12008,0 0.0703,1.75 1.07332,0 1.07333,0 -0.33671,-1.75 -0.33672,-1.75 -2.10564,-0.10718 -2.10565,-0.10718 0.53704,2.05363 0.53704,2.05363 0.76171,-1.94645 0.76171,-1.94645 0.0703,1.75 z m 21.07029,-0.25 0,-2 -8,0 -8,0 0,2 0,2 8,0 8,0 0,-2 z m 18,0 0,-2 -8,0 -8,0 0,2 0,2 8,0 8,0 0,-2 z m 18,0 0,-2 -8.5,0 -8.5,0 0,2 0,2 8.5,0 8.5,0 0,-2 z m 17,0 0,-2 -7.5,0 -7.5,0 0,2 0,2 7.5,0 7.5,0 0,-2 z m 19.81248,0.25 -0.33417,-1.75 -7.73915,-0.29206 -7.73916,-0.29207 0,2.04207 0,2.04206 8.07332,0 8.07333,0 -0.33417,-1.75 z m 17.18752,-0.25 0,-2 -8,0 -8,0 0,2 0,2 8,0 8,0 0,-2 z m 5.28975,0 0.52301,-2 -1.40638,0 -1.40638,0 0,2 0,2 0.88337,0 0.88337,0 0.52301,-2 z m 14.71025,-0.0523 0,-2.05226 -5.24063,0.30226 -5.24064,0.30226 -0.33269,1.75 -0.33269,1.75 5.57333,0 5.57332,0 0,-2.05226 z m 17,0.0523 0,-2 -8,0 -8,0 0,2 0,2 8,0 8,0 0,-2 z m 18,0 0,-2 -8,0 -8,0 0,2 0,2 8,0 8,0 0,-2 z m 19,0 0,-2 -8.39301,0 -8.39301,0 -0.53809,1.40223 -0.53809,1.40224 0.59777,0.59776 0.59776,0.59777 8.33334,0 8.33333,0 0,-2 z m -220,-4.779 0,-1.779 -3.75,0.18751 c -2.0625,0.10314 -5.6625,0.22869 -8,0.27901 l -4.25,0.0914 0,1.5 0,1.5 8,0 8,0 0,-1.779 z m 19,0.279 0,-1.5 -1.75,-0.0974 c -2.47519,-0.1377 -11.41299,-0.14704 -13.5,-0.0141 l -1.75,0.11146 0,1.5 0,1.5 8.5,0 8.5,0 0,-1.5 z m 11,0.62244 c 0,-0.48265 -0.5625,-1.32643 -1.25,-1.87505 l -1.25,-0.9975 -2.5,0.29172 c -1.375,0.16045 -3.0625,0.32922 -3.75,0.37506 l -1.25,0.0833 0,1.5 0,1.5 5,0 5,0 0,-0.87756 z m 2.68311,-1.30994 -0.52522,-1.3125 -0.0789,1.91667 -0.0789,1.91666 0.60417,-0.60416 0.60416,-0.60417 -0.52522,-1.3125 z m 4.12652,0.4375 -0.33702,-1.75 -0.98631,0.19718 c -0.54246,0.10845 -1.1318,0.89595 -1.30962,1.75 l -0.32333,1.55278 1.64665,0 1.64665,0 -0.33702,-1.75 z m 19.19037,0.24996 0,-1.5 -8,0 -8,0 0,1.5 0,1.5 8,0 8,0 0,-1.5 z m 18,0.1165 0,-1.38351 -6.75,-0.45751 c -3.7125,-0.25164 -7.3125,-0.25592 -8,-0.01 l -1.25,0.44801 0,1.39301 0,1.39301 8,0 8,0 0,-1.3835 z m 18.00074,-0.3665 7.4e-4,-1.75 -7.75074,0.21435 c -4.26291,0.1179 -8.08824,0.2304 -8.50074,0.25 -0.4125,0.0196 -0.75,0.71065 -0.75,1.53565 l 0,1.5 8.5,0 8.5,0 7.4e-4,-1.75 z m 16.82177,0.0669 -0.32413,-1.6831 -7.24782,-0.0669 -7.24782,-0.0669 -10e-4,1.75 -0.001,1.75 7.57332,0 7.57333,0 -0.32414,-1.68309 z m 20.17749,0.1831 0,-1.5 -4.25,-0.10606 c -2.3375,-0.0583 -5.81897,-0.17015 -7.7366,-0.24846 l -3.4866,-0.14239 -0.33673,1.74845 -0.33672,1.74846 8.07333,0 8.07332,0 0,-1.5 z m 16.82332,-0.12686 -0.32332,-1.62686 -5.75,0.0644 c -3.1625,0.0354 -6.65,0.0925 -7.75,0.12686 l -2,0.0625 0,1.5 0,1.5 8.07332,0 8.07333,0 -0.32333,-1.62686 z m 6.17668,0.12686 0,-1.5 -1.5,0 -1.5,0 0,1.5 0,1.5 1.5,0 1.5,0 0,-1.5 z m 14,0.0733 0,-1.42667 -1.75,-0.34022 c -0.9625,-0.18711 -3.18188,-0.17445 -4.93195,0.0281 l -3.18194,0.36835 -0.53667,1.39854 -0.53667,1.39854 5.46861,0 5.46862,0 0,-1.42668 z m 17,0.0192 0,-1.40745 -5.25,-0.34255 c -2.8875,-0.1884 -6.4875,-0.20016 -8,-0.0261 l -2.75,0.31642 0,1.43358 0,1.43358 8,0 8,0 0,-1.40745 z m 18,0.004 0,-1.40348 -4.75,-0.34652 c -2.6125,-0.19058 -6.2125,-0.2055 -8,-0.0332 l -3.25,0.31336 0,1.43664 0,1.43664 8,0 8,0 0,-1.40349 z m 19,-0.0965 0,-1.5 -2.25,-0.0823 c -6.7234,-0.24605 -13.87337,0.0405 -14.76541,0.59186 l -1.01721,0.62868 0.57533,0.9309 0.57532,0.9309 8.44099,0 8.44098,0 0,-1.5 z m -262,-5 0,-1.5 -5,0 -5,0 0,1.5 0,1.5 5,0 5,0 0,-1.5 z m 19,0 0,-1.5 -8.5,0 -8.5,0 0,1.5 0,1.5 8.5,0 8.5,0 0,-1.5 z m 17.25664,0 -0.24336,-1 -8.00664,-0.29044 -8.00664,-0.29044 0,1.58088 0,1.58088 8.25,-0.29044 8.25,-0.29044 -0.24336,-1 z m 17.74336,0 0,-1.5 -8,0 -8,0 0,1.5 0,1.5 8,0 8,0 0,-1.5 z m 16.75396,0.25 -0.4127,-1.25 -6.3153,-0.30147 c -3.47342,-0.16581 -6.95372,-0.0565 -7.73401,0.24293 l -1.41871,0.54441 0.62239,1.00707 0.6224,1.00706 7.52432,0 7.52432,0 -0.41271,-1.25 z m 63.24604,-0.25 0,-1.5 -29.5,0 -29.5,0 0,1.5 0,1.5 29.5,0 29.5,0 0,-1.5 z m 17,0 1.24489,-1.5 -8.12245,0 -8.12244,0 0,1.5 0,1.5 6.87756,0 6.87755,0 1.24489,-1.5 z m 44,0 0,-1.5 -20,0 -20,0 0,1.5 0,1.5 20,0 20,0 0,-1.5 z m 19,-0.0421 0,-1.54207 -7.66975,0.29207 -7.66974,0.29206 -0.41359,1.25 -0.41359,1.25 8.08334,0 8.08333,0 0,-1.54206 z m 18,0.0421 0,-1.5 -8.5,0 -8.5,0 0,1.5 0,1.5 8.5,0 8.5,0 0,-1.5 z m 18,0 0,-1.5 -8,0 -8,0 0,1.5 0,1.5 8,0 8,0 0,-1.5 z m 18,0 0,-1.5 -8.5,0 -8.5,0 0,1.5 0,1.5 8.5,0 8.5,0 0,-1.5 z m 11,0 0,-1.5 -5,0 -5,0 0,1.5 0,1.5 5,0 5,0 0,-1.5 z m -282,-4.5 0,-1 -4.5,0 -4.5,0 0,1 0,1 4.5,0 4.5,0 0,-1 z m 18,0 0,-1 -8,0 -8,0 0,1 0,1 8,0 8,0 0,-1 z m 19,0 0,-1 -9,0 -9,0 0,1 0,1 9,0 9,0 0,-1 z m 17,0 0,-1 -8,0 -8,0 0,1 0,1 8,0 8,0 0,-1 z m 19,0 0,-1 -8.5,0 -8.5,0 0,1 0,1 8.5,0 8.5,0 0,-1 z m 2.66667,-0.66667 -0.66667,-0.66666 0,1.33333 0,1.33333 0.66667,-0.66666 0.66666,-0.66667 -0.66666,-0.66667 z m 61.33333,0.66667 0,-1 -30,0 -30,0 0,1 0,1 30,0 30,0 0,-1 z m 17,0 1.5,-0.96937 -8.25,-0.0153 -8.25,-0.0153 0,1 0,1 6.75,-0.0153 6.75,-0.0153 1.5,-0.9694 z m 45,0 0,-1 -20.5,0 -20.5,0 0,1 0,1 20.5,0 20.5,0 0,-1 z m 21,0 0,-1 -8.5,0 -8.5,0 0,1 0,1 8.5,0 8.5,0 0,-1 z m 18,0 0,-1 -8.5,0 -8.5,0 0,1 0,1 8.5,0 8.5,0 0,-1 z m 18,0 0,-1 -8,0 -8,0 0,1 0,1 8,0 8,0 0,-1 z m 19,0 0,-1 -9,0 -9,0 0,1 0,1 9,0 9,0 0,-1 z m 10,0 0,-1 -4.5,0 -4.5,0 0,1 0,1 4.5,0 4.5,0 0,-1 z m -288,-4.5 0,-1.5 -4,0 -4,0 0,1.5 0,1.5 4,0 4,0 0,-1.5 z m 18,0 0,-1.5 -8,0 -8,0 0,1.5 0,1.5 8,0 8,0 0,-1.5 z m 19,0 0,-1.5 -9,0 -9,0 0,1.5 0,1.5 9,0 9,0 0,-1.5 z m 17,0 0,-1.5 -8,0 -8,0 0,1.5 0,1.5 8,0 8,0 0,-1.5 z m 18,0 0,-1.5 -8,0 -8,0 0,1.5 0,1.5 8,0 8,0 0,-1.5 z m 3,0 0,-1.5 -1,0 -1,0 0,1.5 0,1.5 1,0 1,0 0,-1.5 z m 2.68311,-0.6875 -0.52522,-1.3125 -0.0789,1.91667 -0.0789,1.91666 0.60417,-0.60416 0.60416,-0.60417 -0.52522,-1.3125 z m 62.31689,0.6875 0,-1.5 -30.5,0 -30.5,0 0,1.5 0,1.5 30.5,0 30.5,0 0,-1.5 z m 16.55279,0.58541 -0.56525,-0.91459 1.25623,-0.50646 1.25623,-0.50647 -8.25,-0.0789 -8.25,-0.079 0,1.5 0,1.5 7.55902,0 7.55901,0 -0.56524,-0.91459 z m 46.44721,-0.58541 0,-1.5 -21,0 -21,0 0,1.5 0,1.5 21,0 21,0 0,-1.5 z m 1.68311,-0.6875 -0.52522,-1.3125 -0.0789,1.91667 -0.079,1.91666 0.60417,-0.60416 0.60416,-0.60417 -0.52522,-1.3125 z m 3.31689,0.6875 0,-1.5 -1,0 -1,0 0,1.5 0,1.5 1,0 1,0 0,-1.5 z m 19,0 0,-1.5 -9,0 -9,0 0,1.5 0,1.5 9,0 9,0 0,-1.5 z m 17,0 0,-1.5 -8,0 -8,0 0,1.5 0,1.5 8,0 8,0 0,-1.5 z m 18,0 0,-1.5 -8,0 -8,0 0,1.5 0,1.5 8,0 8,0 0,-1.5 z m 18,0 0,-1.5 -8.5,0 -8.5,0 0,1.5 0,1.5 8.5,0 8.5,0 0,-1.5 z m 10,0 0,-1.5 -4,0 -4,0 0,1.5 0,1.5 4,0 4,0 0,-1.5 z m -293,-5 0,-1.5 -3.5,0 -3.5,0 0,1.5 0,1.5 3.5,0 3.5,0 0,-1.5 z m 18,0 0,-1.5 -8,0 -8,0 0,1.5 0,1.5 8,0 8,0 0,-1.5 z m 19,0 0,-1.5 -9,0 -9,0 0,1.5 0,1.5 9,0 9,0 0,-1.5 z m 17,0 0,-1.5 -8,0 -8,0 0,1.5 0,1.5 8,0 8,0 0,-1.5 z m 18,0 0,-1.5 -8,0 -8,0 0,1.5 0,1.5 8,0 8,0 0,-1.5 z m 5,0 0,-1.5 -2,0 -2,0 0,1.5 0,1.5 2,0 2,0 0,-1.5 z m 2.68311,-0.6875 -0.52522,-1.3125 -0.0789,1.91667 -0.0789,1.91666 0.60417,-0.60416 0.60416,-0.60417 -0.52522,-1.3125 z m 63.31689,0.6875 0,-1.5 -31,0 -31,0 0,1.5 0,1.5 31,0 31,0 0,-1.5 z m 18,0 0,-1.5 -8,0 -8,0 0,1.5 0,1.5 8,0 8,0 0,-1.5 z m 46,0 0,-1.5 -21.5,0 -21.5,0 0,1.5 0,1.5 21.5,0 21.5,0 0,-1.5 z m 1.68311,-0.6875 -0.52522,-1.3125 -0.0789,1.91667 -0.079,1.91666 0.60417,-0.60416 0.60416,-0.60417 -0.52522,-1.3125 z m 5.31689,0.6875 0,-1.5 -2,0 -2,0 0,1.5 0,1.5 2,0 2,0 0,-1.5 z m 18.75263,0.25 -0.41403,-1.25 -8.6693,-0.28893 -8.6693,-0.28894 0,1.53894 0,1.53893 9.08333,0 9.08334,0 -0.41404,-1.25 z m 17.24737,-0.25 0,-1.5 -8,0 -8,0 0,1.5 0,1.5 8,0 8,0 0,-1.5 z m 18,0 0,-1.5 -8,0 -8,0 0,1.5 0,1.5 8,0 8,0 0,-1.5 z m 18,0 0,-1.5 -8.5,0 -8.5,0 0,1.5 0,1.5 8.5,0 8.5,0 0,-1.5 z m 9,0 0,-1.5 -3.5,0 -3.5,0 0,1.5 0,1.5 3.5,0 3.5,0 0,-1.5 z m -297.17776,-4.81546 0.32441,-1.68454 -4.07332,0 -4.07333,0 0,1.33333 c 0,0.73334 0.31475,1.64808 0.69944,2.03278 l 0.69944,0.69944 3.04947,-0.34823 3.04947,-0.34823 0.32442,-1.68455 z m 17.17776,0.22022 0,-1.90476 -8,0 -8,0 0,1.90476 0,1.90476 8,0 8,0 0,-1.90476 z m 17.80976,-0.15476 0.33689,-1.75 -8.07333,0 -8.07332,0 0,2.03748 0,2.03747 7.73643,-0.28747 7.73643,-0.28748 0.3369,-1.75 z m 18.19024,0.28964 0,-2.03964 -8.5,0 -8.5,0 0,1.87218 0,1.87219 8.5,0.16745 8.5,0.16745 0,-2.03963 z m 18,-0.0396 0,-2 -8,0 -8,0 0,1.33333 c 0,0.73334 0.3,1.63334 0.66667,2 l 0.66666,0.66667 7.33334,0 7.33333,0 0,-2 z m 7,0 0,-2 -3,0 -3,0 0,1.33333 c 0,1.927 1.01704,2.66667 3.66667,2.66667 l 2.33333,0 0,-2 z m 67,0 0,-2 -31.5,0 -31.5,0 0,2 0,2 31.5,0 31.5,0 0,-2 z m 15,1 0,-1 1.5,0 1.5,0 0,-1 0,-1 -8,0 -8,0 0,1.33333 c 0,0.73334 0.3,1.63334 0.66667,2 l 0.66666,0.66667 5.83334,0 5.83333,0 0,-1 z m 50,-1.07328 0,-1.92672 -22,0 -22,0 0,0.8 c 0,0.44 0.55442,1.35442 1.23206,2.03206 l 1.23205,1.23205 20.76795,-0.10534 20.76794,-0.10533 0,-1.92672 z m 9,0.0733 0,-2 -3,0 -3,0 0,1.33333 c 0,1.927 1.01704,2.66667 3.66667,2.66667 l 2.33333,0 0,-2 z m 18,-0.14079 0,-1.85921 -8.5,0 -8.5,0 0,1.33333 c 0,0.73334 0.32109,1.65443 0.71354,2.04688 l 0.71354,0.71354 7.78646,-0.18767 7.78646,-0.18767 0,-1.8592 z m 17.81163,-0.10921 0.33502,-1.75 -8.07333,0 -8.07332,0 0,2.00276 0,2.00276 7.73831,-0.25276 7.73831,-0.25276 0.33501,-1.75 z m 18.99821,0 0.33681,-1.75 -9.07333,0 -9.07332,0 0,1.33333 c 0,0.73334 0.28231,1.61564 0.62735,1.96068 l 0.62734,0.62735 8.10918,-0.21068 8.10917,-0.21068 0.3368,-1.75 z m 17.00169,0 0.33512,-1.75 -8.07333,0 -8.07332,0 0,2.05215 0,2.05214 7.73821,-0.30214 7.7382,-0.30215 0.33512,-1.75 z m 8.18847,0.24998 0,-2 -3,0 -3,0 0,2 0,2 3,0 3,0 0,-2 z m -218.31689,-1.1875 -0.52522,-1.3125 -0.0789,1.91667 -0.0789,1.91666 0.60417,-0.60416 0.60416,-0.60417 -0.52522,-1.3125 z m 131,0 -0.52522,-1.3125 -0.0789,1.91667 -0.079,1.91666 0.60417,-0.60416 0.60416,-0.60417 -0.52522,-1.3125 z m -214.92679,-3.5625 0.41035,-1.25 -3.58333,0 -3.58334,0 0,1.56336 0,1.56336 3.17299,-0.31336 3.17299,-0.31336 0.41034,-1.25 z m 17.24368,0.25 0,-1.5 -8,0 -8,0 0,1.5 0,1.5 8,0 8,0 0,-1.5 z m 18,0 0,-1.5 -8,0 -8,0 0,1.5 0,1.5 8,0 8,0 0,-1.5 z m 18,0 0,-1.5 -8.5,0 -8.5,0 0,1.5 0,1.5 8.5,0 8.5,0 0,-1.5 z m 18,0 0,-1.5 -8,0 -8,0 0,1.5 0,1.5 8,0 8,0 0,-1.5 z m 9,0 0,-1.5 -4,0 -4,0 0,0.83333 c 0,1.55256 1.3227,2.16667 4.66667,2.16667 l 3.33333,0 0,-1.5 z m 2.68311,-0.6875 -0.52522,-1.3125 -0.0789,1.91667 -0.0789,1.91666 0.60417,-0.60416 0.60416,-0.60417 -0.52522,-1.3125 z m 65.31689,0.6875 0,-1.5 -32,0 -32,0 0,1.5 0,1.5 32,0 32,0 0,-1.5 z m 17.36163,0 0.5756,-1.5 -7.96861,0 -7.96862,0 0,1.5 0,1.5 7.39301,0 7.39301,0 0.57561,-1.5 z m 48.63837,0 0,-1.5 -22.5,0 -22.5,0 0,1.5 0,1.5 22.5,0 22.5,0 0,-1.5 z m 12,0 0,-1.5 -4.5,0 -4.5,0 0,1.5 0,1.5 4.5,0 4.5,0 0,-1.5 z m 17,0 0,-1.5 -8,0 -8,0 0,1.5 0,1.5 8,0 8,0 0,-1.5 z m 18,0 0,-1.5 -8,0 -8,0 0,1.5 0,1.5 8,0 8,0 0,-1.5 z m 18.75284,-0.25 0.41383,-1.25 -9.08334,0 -9.08333,0 0,0.83333 c 0,0.45834 0.31672,1.15005 0.70382,1.53715 l 0.70381,0.70382 7.9657,-0.28715 7.96569,-0.28715 0.41382,-1.25 z m 17.24716,0.25 0,-1.5 -8,0 -8,0 0,1.5 0,1.5 8,0 8,0 0,-1.5 z m 7,0 0,-1.5 -2.5,0 -2.5,0 0,1.5 0,1.5 2.5,0 2.5,0 0,-1.5 z m -88.33333,-1.16667 -0.66667,-0.66666 0,1.33333 0,1.33333 0.66667,-0.66666 0.66666,-0.66667 -0.66666,-0.66667 z m -219.66667,-3.33333 0,-2 -2.5,0 -2.5,0 0,2 0,2 2.5,0 2.5,0 0,-2 z m 18,0 0,-2 -8.5,0 -8.5,0 0,2 0,2 8.5,0 8.5,0 0,-2 z m 18,0 0,-2 -8,0 -8,0 0,2 0,2 8,0 8,0 0,-2 z m 18.26443,1.40223 0.59777,-0.59776 -0.53809,-1.40224 -0.53809,-1.40223 -8.39301,0 -8.39301,0 0,2 0,2 8.33333,0 8.33334,0 0.59776,-0.59777 z m 17.73557,-1.40223 0,-2 -8,0 -8,0 0,2 0,2 8,0 8,0 0,-2 z m 12,1.58179 c 0,-0.23002 -0.27314,-1.13002 -0.60699,-2 l -0.60699,-1.58179 -4.39301,0 -4.39301,0 0,2 0,2 5,0 c 2.75,0 5,-0.1882 5,-0.41821 z m 2.12207,-2.25679 c -1.17884,-2.02721 -1.46351,-1.37835 -0.49853,1.13634 0.34294,0.8937 0.83419,1.41426 1.09166,1.15679 0.25747,-0.25747 -0.009,-1.28938 -0.59313,-2.29313 z m 65.87793,0.675 0,-2 -32.5,0 c -17.875,0 -32.5,0.1882 -32.5,0.41821 0,0.23002 0.27314,1.13002 0.60699,2 l 0.60699,1.58179 31.89301,0 31.89301,0 0,-2 z m 17,0.98469 -1.5,-0.98469 1.5,-0.98469 1.5,-0.98468 -8.25,-0.0153 -8.25,-0.0153 0,2 0,2 8.25,-0.0153 8.25,-0.0153 -1.5,-0.98468 z m 49,0.5971 c 0,-0.23002 0.27314,-1.13002 0.60699,-2 l 0.60699,-1.58179 -23.10699,0 -23.10699,0 0,2 0,2 22.5,0 c 12.375,0 22.5,-0.1882 22.5,-0.41821 z m 2.96937,-3.08179 0,-1 -0.96937,1.5 c -0.53316,0.825 -0.96937,1.95 -0.96937,2.5 l 0,1 0.96937,-1.5 c 0.53316,-0.825 0.96937,-1.95 0.96937,-2.5 z m 12.03063,1.5 0,-2 -5.5,0 c -3.025,0 -5.5,0.1882 -5.5,0.41821 0,0.23002 -0.27314,1.13002 -0.60699,2 l -0.60699,1.58179 6.10699,0 6.10699,0 0,-2 z m 17,0 0,-2 -8,0 -8,0 0,2 0,2 8,0 8,0 0,-2 z m 18,0 0,-2 -8,0 -8,0 0,2 0,2 8,0 8,0 0,-2 z m 19,0 0,-2 -9,0 -9,0 0,2 0,2 9,0 9,0 0,-2 z m 17,0 0,-2 -8,0 -8,0 0,2 0,2 8,0 8,0 0,-2 z m 7,0 0,-2 -2.5,0 -2.5,0 0,2 0,2 2.5,0 2.5,0 0,-2 z m -314,-5 0,-2 -2,0 -2,0 0,2 0,2 2,0 2,0 0,-2 z m 18,0 0,-2 -8.5,0 -8.5,0 0,2 0,2 8.5,0 8.5,0 0,-2 z m 18,0 0,-2 -8,0 -8,0 0,2 0,2 8,0 8,0 0,-2 z m 18,0 0,-2 -8.5,0 -8.5,0 0,2 0,2 8.5,0 8.5,0 0,-2 z m 18,0 0,-2 -8.5,0 -8.5,0 0,2 0,2 8.5,0 8.5,0 0,-2 z m 14,1.58179 c 0,-0.23002 -0.27314,-1.13002 -0.60699,-2 l -0.60699,-1.58179 -5.39301,0 -5.39301,0 0,2 0,2 6,0 c 3.3,0 6,-0.1882 6,-0.41821 z m 2.12207,-2.25679 c -1.17884,-2.02721 -1.46351,-1.37835 -0.49853,1.13634 0.34294,0.8937 0.83419,1.41426 1.09166,1.15679 0.25747,-0.25747 -0.009,-1.28938 -0.59313,-2.29313 z m 66.87793,0.675 0,-2 -33,0 c -18.15,0 -33,0.1882 -33,0.41821 0,0.23002 0.27314,1.13002 0.60699,2 l 0.60699,1.58179 32.39301,0 32.39301,0 0,-2 z m 17,1.58179 c 0,-0.23002 0.27314,-1.13002 0.60699,-2 l 0.60699,-1.58179 -8.10699,0 -8.10699,0 0,2 0,2 7.5,0 c 4.125,0 7.5,-0.1882 7.5,-0.41821 z m 50,0 c 0,-0.23002 0.27314,-1.13002 0.60699,-2 l 0.60699,-1.58179 -23.60699,0 -23.60699,0 0,2 0,2 23,0 c 12.65,0 23,-0.1882 23,-0.41821 z m 2.96937,-3.08179 0,-1 -0.96937,1.5 c -0.53316,0.825 -0.96937,1.95 -0.96937,2.5 l 0,1 0.96937,-1.5 c 0.53316,-0.825 0.96937,-1.95 0.96937,-2.5 z m 14.03063,1.5 0,-2 -6.5,0 c -3.575,0 -6.5,0.1882 -6.5,0.41821 0,0.23002 -0.27314,1.13002 -0.60699,2 l -0.60699,1.58179 7.10699,0 7.10699,0 0,-2 z m 17,0 0,-2 -8,0 -8,0 0,2 0,2 8,0 8,0 0,-2 z m 19,0 0,-2 -8.5,0 -8.5,0 0,2 0,2 8.5,0 8.5,0 0,-2 z m 17.28975,0 -0.52301,-2 -7.88337,0 -7.88337,0 0,2 0,2 8.40638,0 8.40638,0 -0.52301,-2 z m 17.71025,0 0,-2 -8,0 -8,0 0,2 0,2 8,0 8,0 0,-2 z m 6,0 0,-2 -2,0 -2,0 0,2 0,2 2,0 2,0 0,-2 z m -321.33333,-1.66667 -0.66667,-0.66666 0,1.33333 0,1.33333 0.66667,-0.66666 0.66667,-0.66667 -0.66667,-0.66667 z m 2.33333,-3.40665 0,-2.07333 -1.73851,0.33481 -1.73852,0.33481 -0.33481,1.73851 -0.3348,1.73852 2.07332,0 2.07332,0 0,-2.07332 z m 17,0.0733 0,-2 -8,0 -8,0 0,2 0,2 8,0 8,0 0,-2 z m 19,0 0,-2 -8.5,0 -8.5,0 0,2 0,2 8.5,0 8.5,0 0,-2 z m 17.80963,0.25 -0.33702,-1.75 -7.97261,0 -7.97261,0 -0.33702,1.75 -0.33702,1.75 8.64665,0 8.64665,0 -0.33702,-1.75 z m 18.19037,-0.25 0,-2 -8.5,0 -8.5,0 0,2 0,2 8.5,0 8.5,0 0,-2 z m 16,1.58179 c 0,-0.23002 -0.27314,-1.13002 -0.60699,-2 l -0.60699,-1.58179 -6.39301,0 -6.39301,0 0,2 0,2 7,0 c 3.85,0 7,-0.1882 7,-0.41821 z m 70,-1.58179 0,-2 -33.5,0 c -18.425,0 -33.5,0.1882 -33.5,0.41821 0,0.23002 0.27314,1.13002 0.60699,2 l 0.60699,1.58179 32.89301,0 32.89301,0 0,-2 z m 15.29283,0.75 c 1.48036,-0.6875 2.69508,-1.5875 2.69937,-2 l 0.008,-0.75 -8,0 -8,0 0,2 0,2 5.30064,0 5.30063,0 2.69156,-1.25 z m 52.70717,0.83179 c 0,-0.23002 0.27314,-1.13002 0.60699,-2 l 0.60699,-1.58179 -23.54797,0 -23.54798,0 -0.61803,1 -0.61803,1 1.55901,0 1.55902,0 0,1 0,1 22,0 c 12.1,0 22,-0.1882 22,-0.41821 z m 18.81361,-1.33179 -0.33305,-1.75 -5.87831,-0.30402 -5.87831,-0.30403 -1.61197,0.71279 c -0.88658,0.39203 -1.93328,0.64673 -2.32598,0.56602 l -0.71401,-0.14677 0.571,1.48801 0.571,1.488 7.96633,0 7.96634,0 -0.33304,-1.75 z m 17.18639,-0.25 0,-2 -8,0 -8,0 0,2 0,2 8,0 8,0 0,-2 z m 19,0 0,-2 -8.5,0 -8.5,0 0,2 0,2 8.5,0 8.5,0 0,-2 z m 17,0 0,-2 -8,0 -8,0 0,2 0,2 8,0 8,0 0,-2 z m 18,0 0,-2 -8,0 -8,0 0,2 0,2 8,0 8,0 0,-2 z m 5,-0.0733 0,-2.07332 -1.73852,0.3348 -1.73851,0.33481 -0.33481,1.73852 -0.33481,1.73851 2.07333,0 2.07332,0 0,-2.07332 z m -324.19166,-4.00168 c -0.19709,-0.59125 -0.78584,-1.075 -1.30834,-1.075 -0.5225,0 -1.11125,0.48375 -1.30833,1.075 l -0.35833,1.075 1.66666,0 1.66667,0 -0.35833,-1.075 z m 17.19166,0.16755 0,-0.90745 -5.25,-0.34255 c -2.8875,-0.1884 -6.4875,-0.20016 -8,-0.0261 l -2.75,0.31643 0,0.93357 0,0.93358 8,0 8,0 0,-0.90745 z m 19,-0.0925 0,-1 -8.5,0 -8.5,0 0,1 0,1 8.5,0 8.5,0 0,-1 z m 18,0.079 0,-0.921 -7.52302,-0.329 c -8.08814,-0.35371 -9.47698,-0.16989 -9.47698,1.25433 l 0,0.91667 8.5,0 8.5,0 0,-0.921 z m 17,-0.079 0,-1 -8,0 -8,0 0,1 0,1 8,0 8,0 0,-1 z m 19,0 0,-1 -7.5,0 c -4.125,0 -7.82625,-0.0337 -8.225,-0.075 -0.39875,-0.0412 -0.88625,0.40875 -1.08333,1 l -0.35834,1.075 8.58334,0 8.58333,0 0,-1 z m 71,0 0,-1 -33.5,0 -33.5,0 0,1 0,1 33.5,0 33.5,0 0,-1 z m 17.67236,-0.5 0.33286,-1 -8.00261,0.32615 -8.00261,0.32614 0,0.96592 0,0.96592 7.66975,-0.29207 7.66974,-0.29206 0.33287,-1 z m 51.32764,0.53651 0,-0.96349 -22.50872,-0.28651 c -23.29994,-0.29658 -24.49128,-0.2335 -24.49128,1.29682 l 0,0.91667 23.5,0 23.5,0 0,-0.96349 z m 21,0.0299 0,-0.93358 -2.75,-0.31642 c -1.5125,-0.17403 -5.3375,-0.16395 -8.5,0.0224 l -5.75,0.33882 0,0.91118 0,0.91118 8.5,0 8.5,0 0,-0.93358 z m 17,0.0301 0,-0.90348 -4.75,-0.34652 c -2.6125,-0.19058 -6.2125,-0.2055 -8,-0.0332 l -3.25,0.31336 0,0.93664 0,0.93664 8,0 8,0 0,-0.90348 z m 19,-0.0145 0,-0.91794 -6.88897,-0.33206 c -3.78893,-0.18263 -7.61393,-0.18656 -8.5,-0.009 l -1.61103,0.32329 0,0.92667 0,0.92668 8.5,0 8.5,0 0,-0.91794 z m 17,-0.0821 0,-1 -1.5,-0.0833 c -0.825,-0.0458 -3.075,-0.0833 -5,-0.0833 -1.925,0 -4.85,0.0375 -6.5,0.0833 l -3,0.0833 0,1 0,1 8,0 8,0 0,-1 z m 19,0 0,-1 -2,-0.10714 c -1.1,-0.0589 -3.575,-0.10715 -5.5,-0.10715 -1.925,0 -4.85,0.0482 -6.5,0.10715 l -3,0.10714 0,1 0,1 8.5,0 8.5,0 0,-1 z m 3,0 c 0,-0.55 -0.45,-1 -1,-1 -0.55,0 -1,0.45 -1,1 0,0.55 0.45,1 1,1 0.55,0 1,-0.45 1,-1 z m -330,-4.5 0,-1.5 -1,0 -1,0 0,1.5 0,1.5 1,0 1,0 0,-1.5 z m 19,0 0,-1.5 -9,0 -9,0 0,1.5 0,1.5 9,0 9,0 0,-1.5 z m 18,0 0,-1.5 -8.5,0 -8.5,0 0,1.5 0,1.5 8.5,0 8.5,0 0,-1.5 z m 18,0 0,-1.5 -8,0 -8,0 0,1.5 0,1.5 8,0 8,0 0,-1.5 z m 17,0 0,-1.5 -8,0 -8,0 0,1.5 0,1.5 8,0 8,0 0,-1.5 z m 19,0 0,-1.5 -8.5,0 -8.5,0 0,1.5 0,1.5 8.5,0 8.5,0 0,-1.5 z m 1.68311,-0.6875 -0.52522,-1.3125 -0.0789,1.91667 -0.0789,1.91666 0.60417,-0.60416 0.60416,-0.60417 -0.52522,-1.3125 z m 2.98356,0.52083 -0.66667,-0.66666 0,1.33333 0,1.33333 0.66667,-0.66666 0.66666,-0.66667 -0.66666,-0.66667 z m 69.33333,0.16667 0,-1.5 -34,0 -34,0 0,1.5 0,1.5 34,0 34,0 0,-1.5 z m 18,0 0,-1.5 -8,0 -8,0 0,1.5 0,1.5 8,0 8,0 0,-1.5 z m 52,0 0,-1.5 -24.5,0 -24.5,0 0,1.5 0,1.5 24.5,0 24.5,0 0,-1.5 z m 1.66667,-0.16667 -0.66667,-0.66666 0,1.33333 0,1.33333 0.66667,-0.66666 0.66666,-0.66667 -0.66666,-0.66667 z m 3.33333,0.10765 0,-1.55901 -1,0.61803 c -0.55,0.33992 -1,1.04148 -1,1.55902 0,0.51754 0.45,0.94098 1,0.94098 l 1,0 0,-1.55902 z m 17,0.059 0,-1.5 -8,0 -8,0 0,1.5 0,1.5 8,0 8,0 0,-1.5 z m 19,0 0,-1.5 -8.5,0 -8.5,0 0,1.5 0,1.5 8.5,0 8.5,0 0,-1.5 z m 18,0 0,-1.5 -8.5,0 -8.5,0 0,1.5 0,1.5 8.5,0 8.5,0 0,-1.5 z m 17,0 0,-1.5 -8,0 -8,0 0,1.5 0,1.5 8,0 8,0 0,-1.5 z m 19,0 0,-1.5 -8.5,0 -8.5,0 0,1.5 0,1.5 8.5,0 8.5,0 0,-1.5 z m 3,0 0,-1.5 -1,0 -1,0 0,1.5 0,1.5 1,0 1,0 0,-1.5 z m -336.31688,-5.6875 -0.52522,-1.3125 -0.0789,1.91667 -0.079,1.91666 0.60417,-0.60416 0.60417,-0.60417 -0.52522,-1.3125 z m 19.31688,0.6875 0,-1.5 -9,0 -9,0 0,1.5 0,1.5 9,0 9,0 0,-1.5 z m 17,0 0,-1.5 -8,0 -8,0 0,1.5 0,1.5 8,0 8,0 0,-1.5 z m 19,0 0,-1.5 -8.5,0 -8.5,0 0,1.5 0,1.5 8.5,0 8.5,0 0,-1.5 z m 17,0 0,-1.5 -8,0 -8,0 0,1.5 0,1.5 8,0 8,0 0,-1.5 z m 19,0 0,-1.5 -8.5,0 -8.5,0 0,1.5 0,1.5 8.5,0 8.5,0 0,-1.5 z m 4,0 0,-1.5 -1.5,0 -1.5,0 0,1.5 0,1.5 1.5,0 1.5,0 0,-1.5 z m 2.66667,-0.16667 -0.66667,-0.66666 0,1.33333 0,1.33333 0.66667,-0.66666 0.66666,-0.66667 -0.66666,-0.66667 z m 70.33333,0.16667 0,-1.5 -34.5,0 -34.5,0 0,1.5 0,1.5 34.5,0 34.5,0 0,-1.5 z m 16.75,0.86971 2.25,-0.60297 0,-0.88337 0,-0.88337 -8.5,0 -8.5,0 0,1.5 0,1.5 6.25,-0.0137 c 3.4375,-0.007 7.2625,-0.28499 8.5,-0.61663 z m 54.25,-0.86971 0,-1.5 -24.46862,0 -24.46861,0 0.5756,1.5 0.57561,1.5 23.89301,0 23.89301,0 0,-1.5 z m 1.66667,-0.16667 -0.66667,-0.66666 0,1.33333 0,1.33333 0.66667,-0.66666 0.66666,-0.66667 -0.66666,-0.66667 z m 5.33333,0.0933 0,-1.57332 -1.66713,0.32332 -1.66714,0.32333 -0.4162,1.25 -0.4162,1.25 2.08334,0 2.08333,0 0,-1.57333 z m 17,0.0733 0,-1.5 -8,0 -8,0 0,1.5 0,1.5 8,0 8,0 0,-1.5 z m 19,0 0,-1.5 -8.5,0 -8.5,0 0,1.5 0,1.5 8.5,0 8.5,0 0,-1.5 z m 18,0 0,-1.5 -8.5,0 -8.5,0 0,1.5 0,1.5 8.5,0 8.5,0 0,-1.5 z m 17,0 0,-1.5 -8,0 -8,0 0,1.5 0,1.5 8,0 8,0 0,-1.5 z m 19,0 0,-1.5 -8.5,0 -8.5,0 0,1.5 0,1.5 8.5,0 8.5,0 0,-1.5 z m 1.68311,-0.6875 -0.52522,-1.3125 -0.0789,1.91667 -0.079,1.91667 0.60417,-0.60417 0.60416,-0.60417 -0.52522,-1.3125 z m -333.68311,-11.81249 0,-9 37,0 37,0 0,2.5 0,2.5 6.8737,0 6.8737,0 -0.66456,-3.25 -0.66457,-3.25 -51.14851,-0.25905 -51.1485,-0.25905 3.80134,8.25905 c 2.09073,4.54248 4.07433,9.04655 4.40798,10.00905 l 0.60665,1.75 3.53139,0 3.53138,0 0,-9 z m 18.5,8 -0.61803,-1 -8.44098,0 -8.44099,0 0,1 0,1 9.05902,0 9.05902,0 -0.61804,-1 z m 18.5,0 0,-1 -8.5,0 -8.5,0 0,1 0,1 8.5,0 8.5,0 0,-1 z m 18,0 0,-1 -8,0 -8,0 0,1 0,1 8,0 8,0 0,-1 z m 17,0 0,-1 -8,0 -8,0 0,1 0,1 8,0 8,0 0,-1 z m 18,0 0,-1 -8,0 -8,0 0,1 0,1 8,0 8,0 0,-1 z m 2.66667,-0.66667 -0.66667,-0.66666 0,1.33333 0,1.33333 0.66667,-0.66666 0.66666,-0.66667 -0.66666,-0.66667 z m 16.33333,0.66667 0,-1 -7.5,0 -7.5,0 0,1 0,1 7.5,0 7.5,0 0,-1 z m 28.53753,-17 26.46247,0 0,-1 0,-1 -37,0 -37,0 -0.0153,1.25 -0.0153,1.25 -1.01506,-1.5 -1.01506,-1.5 0.67105,3 c 0.85011,3.80061 1.38967,4.44771 1.38967,1.66667 l 0,-2.16667 10,0 10,0 0.20754,9.25 0.20754,9.25 0.32999,-9.25 0.32998,-9.25 26.46248,0 z m -9.53753,17 0,-1 -8,0 -8,0 0,1 0,1 8,0 8,0 0,-1 z m 18,0 0,-1 -8,0 -8,0 0,1 0,1 8,0 8,0 0,-1 z m 18,0 0,-1 -8.5,0 -8.5,0 0,1 0,1 8.5,0 8.5,0 0,-1 z m 18,0 0,-1 -8,0 -8,0 0,1 0,1 8,0 8,0 0,-1 z m 19,0 0,-1 -7.5,0 -7.5,0 0,1 0,1 7.5,0 7.5,0 0,-1 z m 17,0 0,-1 -8,0 -8,0 0,1 0,1 8,0 8,0 0,-1 z m 18,0 0,-1 -7.5,0 -7.5,0 0,1 0,1 7.5,0 7.5,0 0,-1 z m 1.66667,-0.66667 -0.66667,-0.66666 0,1.33333 0,1.33333 0.66667,-0.66666 0.66666,-0.66667 -0.66666,-0.66667 z m 17.83333,0.66667 0.61803,-1 -8.55901,0 -8.55902,0 0,1 0,1 7.94098,0 7.94099,0 0.61803,-1 z m 17.5,0 0,-1 -8,0 -8,0 0,1 0,1 8,0 8,0 0,-1 z m 19,0 0,-1 -8.5,0 -8.5,0 0,1 0,1 8.5,0 8.5,0 0,-1 z m 17,0 0,-1 -8,0 -8,0 0,1 0,1 8,0 8,0 0,-1 z m 19,0 0,-1 -8.5,0 -8.5,0 0,1 0,1 8.5,0 8.5,0 0,-1 z m -309,-4.5 0,-1.5 -9,0 -9,0 0,1.5 0,1.5 9,0 9,0 0,-1.5 z m 18,0 0,-1.5 -8.5,0 -8.5,0 0,1.5 0,1.5 8.5,0 8.5,0 0,-1.5 z m 18,0 0,-1.5 -8,0 -8,0 0,1.5 0,1.5 8,0 8,0 0,-1.5 z m 17,0 0,-1.5 -8,0 -8,0 0,1.5 0,1.5 8,0 8,0 0,-1.5 z m 17,0 0,-1.5 -7.5,0 -7.5,0 0,1.5 0,1.5 7.5,0 7.5,0 0,-1.5 z m 20,0 0,-1.5 -8,0 -8,0 0,1.5 0,1.5 8,0 8,0 0,-1.5 z m 19,0 0,-1.5 -8,0 -8,0 0,1.5 0,1.5 8,0 8,0 0,-1.5 z m 18,0 0,-1.5 -8,0 -8,0 0,1.5 0,1.5 8,0 8,0 0,-1.5 z m 18,0 0,-1.5 -8.5,0 -8.5,0 0,1.5 0,1.5 8.5,0 8.5,0 0,-1.5 z m 18,0 0,-1.5 -8,0 -8,0 0,1.5 0,1.5 8,0 8,0 0,-1.5 z m 19,0 0,-1.5 -7.5,0 -7.5,0 0,1.5 0,1.5 7.5,0 7.5,0 0,-1.5 z m 17,0 0,-1.5 -8,0 -8,0 0,1.5 0,1.5 8,0 8,0 0,-1.5 z m 19,0 0,-1.5 -8,0 -8,0 0,1.5 0,1.5 8,0 8,0 0,-1.5 z m 18.36163,0 0.5756,-1.5 -7.96861,0 -7.96862,0 0,1.5 0,1.5 7.39301,0 7.39301,0 0.57561,-1.5 z m 17.63837,0 0,-1.5 -8,0 -8,0 0,1.5 0,1.5 8,0 8,0 0,-1.5 z m 19,-0.0389 0,-1.53893 -8.6693,0.28893 -8.6693,0.28893 -0.41403,1.25 -0.41404,1.25 9.08334,0 9.08333,0 0,-1.53893 z m 17,0.0389 0,-1.5 -8,0 -8,0 0,1.5 0,1.5 8,0 8,0 0,-1.5 z m 19,0 0,-1.5 -8.5,0 -8.5,0 0,1.5 0,1.5 8.5,0 8.5,0 0,-1.5 z m -309.19203,-4.75 0.33868,-1.75 -9.07332,0 -9.07333,0 0,1.33333 c 0,0.73334 0.25307,1.58641 0.56238,1.89571 l 0.56238,0.56238 8.17227,-0.14571 8.17226,-0.14571 0.33868,-1.75 z m 18.19203,0.0388 0,-1.78879 -8.5,0 -8.5,0 0,2.06482 0,2.06482 8.5,-0.27603 8.5,-0.27603 0,-1.78879 z m 17.81128,-0.0388 0.33537,-1.75 -8.07333,0 -8.07332,0 0,2.07773 0,2.07773 7.73795,-0.32773 7.73796,-0.32773 0.33537,-1.75 z m 11.11372,1 1.325,-1.25 0.45833,1.25 0.45834,1.25 1.91666,0 1.91667,0 0,-2 0,-2 -8,0 -8,0 0,2 0,2 4.3,0 4.3,0 1.325,-1.25 z m 22.075,-0.75 0,-2 -7,0 -7,0 0,1.33333 c 0,0.73334 0.3,1.63334 0.66667,2 l 0.66666,0.66667 6.33334,0 6.33333,0 0,-2 z m 20.81248,-0.25 0.33417,-1.75 -8.57333,0 -8.57332,0 0,1.33333 c 0,0.73334 0.31727,1.65061 0.70504,2.03838 l 0.70504,0.70504 7.53412,-0.28838 7.53411,-0.28837 0.33417,-1.75 z m 19.18752,0.25 0,-2 -8,0 -8,0 0,2 0,2 8,0 8,0 0,-2 z m 18,0 0,-2 -8,0 -8,0 0,2 0,2 8,0 8,0 0,-2 z m 18,0 0,-2 -8.5,0 -8.5,0 0,2 0,2 8.5,0 8.5,0 0,-2 z m 17.81248,-0.25 0.33417,-1.75 -8.07333,0 -8.07332,0 0,2.04206 0,2.04207 7.73916,-0.29207 7.73915,-0.29206 0.33417,-1.75 z m 19.00051,0 0.33366,-1.75 -7.57333,0 -7.57332,0 0,1.33333 c 0,0.73334 0.31843,1.65177 0.70762,2.04096 l 0.70763,0.70762 6.53204,-0.29095 6.53203,-0.29096 0.33367,-1.75 z m 17.18701,0.25 0,-2 -8,0 -8,0 0,2 0,2 8,0 8,0 0,-2 z m 20,0 0,-2 -8.5,0 -8.5,0 0,2 0,2 8.5,0 8.5,0 0,-2 z m 17,0 0,-2 -7,0 -7,0 0,2 0,2 7,0 7,0 0,-2 z m 18,0.0389 0,-2.03894 -8,0 -8,0 0,1.86816 0,1.86816 8,0.17078 8,0.17077 0,-2.03893 z m 18.81226,-0.28894 0.33439,-1.75 -8.40666,0 -8.40666,0 -0.59776,0.59777 -0.59777,0.59776 0.55285,1.44071 0.55286,1.44071 8.11718,-0.28848 8.11719,-0.28847 0.33438,-1.75 z m 17.18774,0.25 0,-2 -8,0 -8,0 0,2 0,2 8,0 8,0 0,-2 z m 19,0 0,-2 -8.5,0 -8.5,0 0,2 0,2 8.5,0 8.5,0 0,-2 z m -237.31689,-1.1875 -0.52522,-1.3125 -0.0789,1.91667 -0.0789,1.91666 0.60417,-0.60416 0.60416,-0.60417 -0.52522,-1.3125 z m 149,0 -0.52522,-1.3125 -0.0789,1.91667 -0.079,1.91666 0.60417,-0.60416 0.60416,-0.60417 -0.52522,-1.3125 z m -221.1145,-4.0625 0.25442,-1.75 -8.91151,0 -8.91152,0 0,2.03893 0,2.03894 8.6571,-0.28894 8.65709,-0.28893 0.25442,-1.75 z m 18.43139,0.25 0,-2 -8.5,0 -8.5,0 0,2 0,2 8.5,0 8.5,0 0,-2 z m 18,0 0,-2 -8,0 -8,0 0,2 0,2 8,0 8,0 0,-2 z m 17,0 0,-2 -8,0 -8,0 0,2 0,2 8,0 8,0 0,-2 z m 36.81248,-0.25 0.33417,-1.75 -8.57333,0 -8.57332,0 0,1.33333 c 0,0.73334 0.31727,1.65061 0.70504,2.03838 l 0.70504,0.70504 7.53412,-0.28838 7.53411,-0.28837 0.33417,-1.75 z m 19.18752,0.25 0,-2 -8,0 -8,0 0,2 0,2 8,0 8,0 0,-2 z m 18,0 0,-2 -8,0 -8,0 0,2 0,2 8,0 8,0 0,-2 z m 18,0 0,-2 -8.5,0 -8.5,0 0,2 0,2 8.5,0 8.5,0 0,-2 z m 18,0 0,-2 -8,0 -8,0 0,2 0,2 8,0 8,0 0,-2 z m 110,0 0,-2 -8.33333,0 -8.33334,0 -0.59776,0.59777 -0.59777,0.59776 0.53809,1.40224 0.53809,1.40223 8.39301,0 8.39301,0 0,-2 z m 17,0 0,-2 -8,0 -8,0 0,2 0,2 8,0 8,0 0,-2 z m 19,0 0,-2 -8.5,0 -8.5,0 0,2 0,2 8.5,0 8.5,0 0,-2 z m -145,-4 0,-1 -8.5,0 -8.5,0 0,1 0,1 8.5,0 8.5,0 0,-1 z m 74.80833,-7.075 c -0.19708,-0.59125 -0.78583,-1.075 -1.30833,-1.075 -0.5225,0 -1.11125,0.48375 -1.30833,1.075 l -0.35834,1.075 1.66667,0 1.66667,0 -0.35834,-1.075 z m -175.80833,-4.91575 0,-3.99075 -50.25,-0.25925 -50.25,-0.25925 -0.31955,-2.25 -0.31955,-2.25 -6.43045,0 -6.43045,0 0,6.5 0,6.5 57,0 57,0 0,-3.99075 z m 82,-0.009 0,-4 -40,0 -40,0 0,4 0,4 40,0 40,0 0,-4 z m 18,0 0,-4 -8,0 -8,0 0,4 0,4 8,0 8,0 0,-4 z m -147,-7.5 0,-1.5 -26,0 -26,0 0,1.5 0,1.5 26,0 26,0 0,-1.5 z m 47,0 0,-1.5 -22.5,0 -22.5,0 0,1.5 0,1.5 22.5,0 22.5,0 0,-1.5 z m 82,0 0,-1.5 -40,0 -40,0 0,1.5 0,1.5 40,0 40,0 0,-1.5 z m 17.56314,0.60216 -0.5549,-0.89785 0.64261,-7.60215 0.64262,-7.60216 2.35327,0 2.35326,0 0,4 0,4 4.91667,0 4.91666,0 0.50439,1.25 0.50439,1.25 0.0789,-4.31739 0.079,-4.31738 -2,0.63477 -2,0.63477 0,-1.65709 0,-1.6571 2.25,-1.87702 2.25,-1.87702 1.75,-0.0333 1.75,-0.0333 0.079,7.25 0.0789,7.25 0.50439,-1.25 0.50439,-1.25 16.91666,0 16.91667,0 0.116,-1.75 0.116,-1.75 0.45733,1.75 0.45732,1.75 5.92667,0 5.92668,0 0,2 0,2 21.5,0 21.5,0 0,-4.5 0,-4.5 -45,0 -45,0 0,-0.95913 0,-0.95913 55.99991,0.20913 55.9999,0.20913 10e-5,-4.25 9e-5,-4.25 -74.5,0 -74.5,0 -0.002,4.25 -0.002,4.25 7.50233,-0.329 7.50166,-0.32901 0,1.07901 0,1.079 -7.5,0 -7.5,0 0,2.5 0,2.5 7,0 7,0 0,3 0,3 -7,0 -7,0 0,1.5 0,1.5 8.05902,0 8.05901,0 -0.55489,-0.89784 z m 6.93686,-14.10216 c 0.33992,-0.55 1.23992,-1 2,-1 0.76008,0 1.66008,0.45 2,1 l 0.61803,1 -2.61803,0 -2.61803,0 0.61803,-1 z m 57.5,13.5 0,-1.5 -30.43045,0 -30.43045,0 -0.43337,-2.25 -0.43337,-2.25 -0.13618,3.08333 -0.13618,3.08334 0.66667,0.66666 0.66666,0.66667 30.33334,0 30.33333,0 0,-1.5 z m 47,0 0,-1.5 -23,0 -23,0 0,1.5 0,1.5 23,0 23,0 0,-1.5 z m 54,0 0,-1.5 -26.5,0 -26.5,0 0,1.5 0,1.5 26.5,0 26.5,0 0,-1.5 z m -312,-8 0,-4.5 -26,0 -26,0 0,4.5 0,4.5 26,0 26,0 0,-4.5 z m 45.63889,2.75 -0.13889,-1.75 23.45268,-0.26893 23.45268,-0.26893 0.78201,-1.23107 0.782,-1.23107 0.0153,1.25 0.0153,1.25 17.5,0 17.5,0 0,-2.5 0,-2.5 -63.5,0 -63.5,0 0,4.5 0,4.5 21.88889,0 21.88889,0 -0.13889,-1.75 z m 120.61111,1.08772 -1.25,-0.50439 -1.25,0.50439 -1.25,0.50439 2.5,0 2.5,0 -1.25,-0.50439 z m 145.75,-3.83772 0,-4.5 -26.5,0 -26.5,0 0,4.5 0,4.5 26.5,0 26.5,0 0,-4.5 z m -196.25,-6.48029 13.25,-0.0197 0,-4 0,-4 -75,0 -75,0 1.3e-4,4.25 1.4e-4,4.25 61.74986,-0.23029 c 33.96243,-0.12667 67.71237,-0.23917 74.99987,-0.25 z m 165.875,138.18254 -0.49303,-0.79774 0.88467,-1.43143 0.88467,-1.43143 3.3637,0.2898 3.36369,0.2898 2.07629,-1.81063 2.0763,-1.81062 9.6053,-20.5 c 5.28292,-11.275 10.22775,-21.625 10.9885,-23 l 1.38319,-2.5 3.09998,-1.5 3.09998,-1.5 -0.53581,-4.5 -0.5358,-4.5 8.05668,-16.91707 8.05669,-16.91708 0,-1.7562 0,-1.7562 -2.50629,-2.97855 -2.50628,-2.97856 0.61327,-1.59817 c 0.89891,-2.34252 1.84109,-1.99797 5.29571,1.93663 l 3.10359,3.53479 0,3.81974 0,3.81973 -7.63546,15.89547 -7.63546,15.89547 -0.0312,2.90649 -0.0312,2.90648 3.25036,2.90421 3.25037,2.9042 -0.53144,1.38492 -0.53145,1.38492 -3.49797,-0.56764 -3.49797,-0.56765 -2.4824,0.62305 -2.4824,0.62304 -3.17657,6.74899 c -1.74713,3.71194 -6.54571,13.94899 -10.66353,22.74899 l -7.48694,16 -2.92415,2.75 -2.92414,2.75 -4.92521,0 -4.92521,0 -0.49303,-0.79775 z m 63.375,-47.1327 0,-5.93045 -2.25,-0.31955 -2.25,-0.31955 0.25,-1 0.25,-1 5.5,0 5.5,0 0.0396,1 0.0396,1 -2.03961,0.31955 -2.03961,0.31955 0,5.93045 0,5.93045 -1.5,0 -1.5,0 0,-5.93045 z m 10,-1.56955 0,-7.5 4.42857,0 4.42857,0 1.64908,1.64908 1.64907,1.64907 -0.56399,2.10093 c -0.31019,1.1555 -0.57014,3.82592 -0.57765,5.93425 l -0.0136,3.83334 -1.22242,-0.40748 -1.22241,-0.40747 -0.56858,-2.42586 -0.56858,-2.42586 -2.209,-0.31955 -2.20906,-0.31955 0,3.06955 0,3.06955 -1.5,0 -1.5,0 0,-7.5 z m 7.86888,-1.84201 1.11377,-1.34201 -0.65799,-0.65799 c -0.3619,-0.36189 -1.70799,-0.65799 -2.99133,-0.65799 l -2.33333,0 0,2 0,2 1.87756,0 1.87755,0 1.11377,-1.34201 z m 7.04779,8.92959 c -0.22917,-0.22684 -0.26724,-3.60184 -0.0846,-7.5 l 0.33205,-7.08758 3.91794,0 3.91794,0 2,2 2,2 0,3.27749 0,3.2775 -1.5567,2.2225 -1.55671,2.22251 -4.27663,0 c -2.35214,0 -4.46413,-0.18559 -4.69329,-0.41242 z m 7.5119,-3.15901 1.57143,-1.57143 0,-1.84678 c 0,-1.01573 -0.27314,-2.55859 -0.60699,-3.42857 l -0.60699,-1.58179 -2.39301,0 -2.39301,0 0,4.33333 0,4.33334 0.66667,0.66666 c 1.042,1.042 2.05997,0.79717 3.7619,-0.90476 z m -216.42857,-64.85902 0,-6.43045 -2.17167,-0.31955 -2.17167,-0.31955 -0.41167,-1.25 -0.41166,-1.25 7.16667,0 7.16667,0 -0.41166,1.25 -0.41167,1.25 -2.17167,0.31955 -2.17167,0.31955 0,6.43045 0,6.43045 -2,0 -2,0 0,-6.43045 z m 9,0.43045 0,-6 3.5,0 3.5,0 0,1.38337 0,1.38337 -2,0.52301 -2,0.52301 0,4.09362 0,4.09362 -1.5,0 -1.5,0 0,-6 z m 8.30947,4.36408 -0.62776,-1.63593 1.00378,-1.59133 1.00379,-1.59133 2.33122,-0.55033 2.33122,-0.55033 0.40747,-1.22241 0.40748,-1.22242 -1.02432,0 c -0.56337,0 -1.30243,0.45 -1.64235,1 -0.33992,0.55 -1.26648,1 -2.05902,1 l -1.44098,0 0,-1.52475 0,-1.52475 2.63498,-1.00182 2.63498,-1.00182 2.36502,1.54962 2.36502,1.54963 0,4.97694 0,4.97695 -5.03138,0 -5.03139,0 -0.62776,-1.63592 z m 6.23165,-1.43061 0.65915,-1.06653 -0.55701,-0.55701 -0.557,-0.55701 -1.60651,0.61648 -1.60651,0.61647 0.62239,1.00707 c 0.81058,1.31153 2.21511,1.28411 3.04549,-0.0595 z m 7.65888,1.86653 -1.2,-1.2 0,-3.6 0,-3.6 1.2,-1.2 1.2,-1.2 3.26482,0 3.26481,0 1.07037,2 1.07037,2 -1.97617,0 -1.97617,0 -0.64804,-1.04856 -0.64805,-1.04856 -1.41097,1.17101 -1.41097,1.171 0,1.75511 0,1.75511 1.41097,1.171 1.41097,1.17101 0.64805,-1.04856 0.64804,-1.04856 1.97617,0 1.97617,0 -1.07037,2 -1.07037,2 -3.26481,0 -3.26482,0 -1.2,-1.2 z m 11.8,-6.8 0,-8 2,0 2,0 0,3.65499 0,3.65499 1.82874,-1.65499 1.82874,-1.65499 1.82625,0 1.82625,0 -1.65499,1.82874 c -2.01981,2.23186 -2.05386,4.05981 -0.12319,6.61239 0.80751,1.06762 1.4682,2.30512 1.4682,2.75 l 0,0.80887 -1.93261,0 -1.93261,0 -0.63478,-2 -0.63478,-2 -0.93261,0 -0.93261,0 0,2 0,2 -2,0 -2,0 0,-8 z m 25,2 0,-6 3.5,0 3.5,0 0,1.13976 c 0,0.62686 -0.78427,1.71323 -1.74283,2.41414 -0.95855,0.70091 -1.79001,1.87552 -1.84768,2.61024 -0.0577,0.73472 -0.1734,2.34836 -0.25718,3.58586 l -0.15231,2.25 -1.5,0 -1.5,0 0,-6 z"
       id="path3245"
       inkscape:connector-curvature="0" />
  </g>
</svg>
