<?xml version="1.0" encoding="UTF-8" standalone="no"?>
<!-- Created with Inkscape (http://www.inkscape.org/) -->

<svg
   xmlns:dc="http://purl.org/dc/elements/1.1/"
   xmlns:cc="http://creativecommons.org/ns#"
   xmlns:rdf="http://www.w3.org/1999/02/22-rdf-syntax-ns#"
   xmlns:svg="http://www.w3.org/2000/svg"
   xmlns="http://www.w3.org/2000/svg"
   version="1.1"
   width="492"
   height="639"
   id="svg3218">
  <metadata
     id="metadata3224">
    <rdf:RDF>
      <cc:Work
         rdf:about="">
        <dc:format>image/svg+xml</dc:format>
        <dc:type
           rdf:resource="http://purl.org/dc/dcmitype/StillImage" />
        <dc:title></dc:title>
      </cc:Work>
    </rdf:RDF>
  </metadata>
  <defs
     id="defs3222" />
  <g
     id="Magnet"
     class="substep">
    <rect
       width="45.184124"
       height="194.38586"
       x="75.30687"
       y="233.28423"
       id="rect4739"
       style="fill:#0000ff;fill-rule:evenodd;stroke:#000000;stroke-width:0px;stroke-linecap:butt;stroke-linejoin:miter;stroke-opacity:1" />
    <rect
       width="45.184124"
       height="194.38586"
       x="383.59439"
       y="233.04889"
       id="rect4739-4"
       style="fill:#0000ff;fill-rule:evenodd;stroke:#000000;stroke-width:0px;stroke-linecap:butt;stroke-linejoin:miter;stroke-opacity:1" />
  </g>
  <g
     id="Tracker"
     style="fill:none;stroke:firebrick;stroke-width:3"	 class="substep echelle">
    <path
       d="m 221.36803,586.54898 c 17.00234,-0.20308 44.82436,-0.20308 61.8267,0 l 30.91333,0.36922 -61.82668,0 -61.8267,0 z"
       id="path5096"
      />
    <path
       d="m 197.36498,387.15272 c 30.1125,-0.14699 79.3875,-0.14699 109.5,0 l 54.75,0.26725 -109.5,0 -109.5,0 z"
       id="path5094" />
    <path
       d="m 204.94068,379.15273 c 26.0292,-0.14843 68.3292,-0.14838 94,10e-5 l 46.6743,0.26997 -94,-10e-5 -94,-1e-4 z"
       id="path5092" />
    <path
       d="m 212.86498,335.15288 c 21.5875,-0.15046 56.9125,-0.15046 78.5,0 l 39.25,0.27355 -78.5,0 -78.5,0 z"
       id="path5090" />
    <path
       d="m 212.86498,328.15288 c 21.5875,-0.15046 56.9125,-0.15046 78.5,0 l 39.25,0.27355 -78.5,0 -78.5,0 z"
       id="path5088" />
    <path
       d="m 204.94068,282.15273 c 26.0292,-0.14843 68.3292,-0.14838 94,10e-5 l 46.6743,0.26997 -94,-10e-5 -94,-1e-4 z"
       id="path5086" />
    <path
       d="m 197.36498,275.15272 c 30.1125,-0.14699 79.3875,-0.14699 109.5,0 l 54.75,0.26725 -109.5,0 -109.5,0 z"
       id="path5084" />
    <path
       d="m 209.32198,229.13772 c 23.3531,-0.17441 61.56727,-0.17441 84.92037,0 l 42.46017,0.31713 -84.92036,0 -84.92037,0 z"
       id="path5082"
        />
        <path
       d="m 205.59757,29.873729 c 26.0292,-0.14843 68.3292,-0.14838 94,10e-5 l 46.6743,0.26997 -94,-10e-5 -94,-1e-4 z"
       id="path5086-7"
        />
               
        
  </g>
  
  
  
  
  
  
  
  
  
  
  
  
  
  
  
  
  
  
  
  
  
  
  
  <g
     id="ToF"
     style="fill:none;stroke:indigo" class="substep">
    <path
       d="m 123.11498,456.40254 0,-1.5 27,0 27,0 0,-1.5 0,-1.5 13.5,0 13.5,0 0,1.5 0,1.5 11,0 11,0 0,-1.5 0,-1.5 3.25,0.11831 3.25,0.11832 -3,0.76337 -3,0.76337 13,-0.0133 13,-0.0133 -3.5,-0.73677 -3.5,-0.73672 3.75,-0.13164 3.75,-0.13164 0,1.5 0,1.5 11,0 11,0 0,-1.5 0,-1.5 13.5,0 13.5,0 0,1.5 0,1.5 11,0 11,0 0,-1.5 0,-1.5 28.5,0 28.49997,0 0,1.5 0,1.5 -27.49997,0 -27.5,0 0,1.5 0,1.5 -13,0 -13,0 0,-1.5 0,-1.5 -11.5,0 -11.5,0 0,1.5 0,1.5 -13,0 -13,0 0,-1.5 0,-1.5 -11.5,0 -11.5,0 0,1.5 0,1.5 -13,0 -13,0 0,-1.5 0,-1.5 -11.5,0 -11.5,0 0,1.5 0,1.5 -28,0 -28,0 z"
       id="path5120" />
    <path
       d="m 137.39508,456.17181 c -2.3209,-0.20972 -6.3709,-0.21222 -9,-0.006 l -4.7801,0.37577 9,0.006 9,0.006 -4.2199,-0.38132 z"
       id="path5118" />
    <path
       d="m 169.36498,456.15751 c -5.0875,-0.18149 -13.4125,-0.18149 -18.5,0 l -9.25,0.32999 18.5,0 18.5,0 z"
       id="path5116" />
    <path
       d="m 221.36498,456.16251 c -3.4375,-0.19527 -9.0625,-0.19527 -12.5,0 l -6.25,0.35504 12.5,0 12.5,0 z"
       id="path5114" />
    <path
       d="m 270.36498,456.16251 c -3.4375,-0.19527 -9.0625,-0.19527 -12.5,0 l -6.25,0.35504 12.5,0 12.5,0 z"
       id="path5112" />
    <path
       d="m 319.36498,456.16251 c -3.4375,-0.19527 -9.0625,-0.19527 -12.5,0 l -6.25,0.35504 12.5,0 12.5,0 z"
       id="path5110" />
    <path
       d="m 197.40658,453.16359 c -3.4147,-0.19467 -9.2647,-0.19611 -13,-0.003 l -6.7916,0.35078 13,0.003 13,0.003 -6.2084,-0.35396 z"
       id="path5108" />
    <path
       d="m 295.40658,453.16359 c -3.4147,-0.19467 -9.2647,-0.19611 -13,-0.003 l -6.7916,0.35078 13,0.003 13,0.003 -6.2084,-0.35396 z"
       id="path5106" />
    <path
       d="m 352.36498,453.15759 c -5.0875,-0.18149 -13.4125,-0.18149 -18.5,0 l -9.25,0.32999 18.5,0 18.5,0 z"
       id="path5104" />
    <path
       d="m 375.86495,453.16759 c -2.6125,-0.206 -6.8875,-0.206 -9.5,0 l -4.74997,0.37454 9.49997,0 9.5,0 z"
       id="path5102" />
    <path
       d="m 111.11498,449.90254 0,-1 141,0 140.99997,0 0,2 -140.99997,0 -141,0 z"
       id="path5100" />
    <path
       d="m 111.11498,446.90254 0,-1 141,0 140.99997,0 0,2 -140.99997,0 -141,0 z"
       id="path5098" />
    <path
       d="m 111.11498,213.90254 0,-3 33,0 33,0 0,-1.5 0,-1.5 -23.5,0 -23.5,0 0,-1.5 0,-1.5 24.5,0 24.5,0 0,1.43045 0,1.43045 2.25,0.43337 2.25,0.43337 -3,0.23854 -3,0.23854 3.5,0.82843 3.5,0.82842 20.75,0.0677 20.75,0.0677 0,-1.49851 0,-1.49851 -10.9167,0 -10.9167,0 -0.3333,0.7589 -0.3333,0.7589 -3.5,-0.62726 -3.5,-0.62726 2.75,-0.13164 2.75,-0.13159 0,-1.5 0,-1.5 13,0 13,0 0,1.5 0,1.5 11.5,0 11.5,0 0,-1.5 0,-1.5 13,0 13,0 0,1.5 0,1.5 11.5,0 11.5,0 0,-1.5 0,-1.5 13,0 13,0 0,1.5 0,1.5 23.5,0 23.49997,0 0,1.5 0,1.5 20,0 0,3 0,3 -140.99997,0 -141,0 z"
       id="path5080" />
    <path
       d="m 115.36498,215.24026 -1.25,-0.50439 -1.25,0.50439 -1.25,0.50439 2.5,0 2.5,0 z"
       id="path5078" />
    <path
       d="m 124.86498,215.18626 c -1.5125,-0.22913 -3.9875,-0.22913 -5.5,0 l -2.75,0.41659 5.5,0 5.5,0 z"
       id="path5076" />
    <path
       d="m 165.86498,215.15526 c -7.0125,-0.1719 -18.4875,-0.1719 -25.5,0 l -12.75,0.31255 25.5,0 25.5,0 z"
       id="path5074" />
    <path
       d="m 288.43868,215.15326 c -19.897,-0.15139 -52.747,-0.15147 -73,-1.6e-4 l -36.8237,0.2751 73,1.7e-4 73,1.6e-4 z"
       id="path5072" />
    <path
       d="m 363.30588,215.15526 c -7.3199,-0.17108 -19.0199,-0.17062 -26,0.001 l -12.6909,0.31211 26,-0.001 25.99997,-10e-4 -13.30907,-0.31107 z"
       id="path5070" />
    <path
       d="m 384.37865,215.19916 c -1.2299,-0.23736 -3.4799,-0.24351 -5,-0.0136 l -2.7637,0.41792 5,0.0136 5,0.0137 -2.2363,-0.43157 z"
       id="path5068" />
    <path
       d="m 391.38395,215.24716 c -0.677,-0.27392 -2.027,-0.29059 -3,-0.0371 l -1.769,0.46048 3,0.037 3,0.0371 -1.231,-0.49805 z"
       id="path5066" />
    <path
       d="m 115.36498,212.24026 -1.25,-0.50439 -1.25,0.50439 -1.25,0.50439 2.5,0 2.5,0 z"
       id="path5064" />
    <path
       d="m 124.86498,212.18626 c -1.5125,-0.22913 -3.9875,-0.22913 -5.5,0 l -2.75,0.41659 5.5,0 5.5,0 z"
       id="path5062" />
    <path
       d="m 165.86498,212.15526 c -7.0125,-0.1719 -18.4875,-0.1719 -25.5,0 l -12.75,0.31255 25.5,0 25.5,0 z"
       id="path5060" />
    <path
       d="m 288.43868,212.15326 c -19.897,-0.15139 -52.747,-0.15147 -73,-1.6e-4 l -36.8237,0.2751 73,1.7e-4 73,1.6e-4 z"
       id="path5058" />
    <path
       d="m 363.30588,212.15526 c -7.3199,-0.17108 -19.0199,-0.17062 -26,0.001 l -12.6909,0.31211 26,-0.001 25.99997,-10e-4 -13.30907,-0.31107 z"
       id="path5056" />
    <path
       d="m 384.37865,212.19916 c -1.2299,-0.23736 -3.4799,-0.24351 -5,-0.0136 l -2.7637,0.41792 5,0.0136 5,0.0137 -2.2363,-0.43157 z"
       id="path5054" />
    <path
       d="m 391.38395,212.24716 c -0.677,-0.27392 -2.027,-0.29059 -3,-0.0371 l -1.769,0.46048 3,0.037 3,0.0371 -1.231,-0.49805 z"
       id="path5052" />
    <path
       d="m 275.11498,209.40254 0,-1.5 -11,0 -11,0 0,1.5 0,1.5 11,0 11,0 z"
       id="path5050" />
    <path
       d="m 324.11498,209.40254 0,-1.5 -11,0 -11,0 0,1.5 0,1.5 11,0 11,0 z"
       id="path5048" />
    <path
       d="m 246.40658,209.16322 c -3.4147,-0.19467 -9.2647,-0.19611 -13,-0.003 l -6.7916,0.35078 13,0.003 13,0.003 -6.2084,-0.35396 z"
       id="path5046" />
    <path
       d="m 295.40658,209.16322 c -3.4147,-0.19467 -9.2647,-0.19611 -13,-0.003 l -6.7916,0.35078 13,0.003 13,0.003 -6.2084,-0.35396 z"
       id="path5044" />
    <path
       d="m 352.36498,209.15722 c -5.0875,-0.18149 -13.4125,-0.18149 -18.5,0 l -9.25,0.32999 18.5,0 18.5,0 z"
       id="path5042" />
    <path
       d="m 369.86495,209.18602 c -1.5125,-0.22913 -3.98747,-0.22913 -5.49997,0 l -2.75,0.41659 5.49997,0 5.5,0 z"
       id="path5040" />
    <path
       d="m 138.86498,206.18602 c -1.5125,-0.22913 -3.9875,-0.22913 -5.5,0 l -2.75,0.41659 5.5,0 5.5,0 z"
       id="path5038" />
    <path
       d="m 169.36498,206.15722 c -5.0875,-0.18149 -13.4125,-0.18149 -18.5,0 l -9.25,0.32999 18.5,0 18.5,0 z"
       id="path5036" />
    <path
       d="m 221.36498,206.16222 c -3.4375,-0.19527 -9.0625,-0.19527 -12.5,0 l -6.25,0.35504 12.5,0 12.5,0 z"
       id="path5034" />
    <path
       d="m 270.36498,206.16222 c -3.4375,-0.19527 -9.0625,-0.19527 -12.5,0 l -6.25,0.35504 12.5,0 12.5,0 z"
       id="path5032" />
    <path
       d="m 319.36498,206.16222 c -3.4375,-0.19527 -9.0625,-0.19527 -12.5,0 l -6.25,0.35504 12.5,0 12.5,0 z"
       id="path3247" />
  </g>
  
  
  
  
  
  
  
      <g
     id="RICH"
     style="fill:none;stroke:sienna" class="substep" >
    <path
       d="m 183.11498,582.90254 0,-1 -36,0 -36,0 0,-8 0,-8 -1.5795,0 -1.5794,0 0.5666,-2.75 c 0.3116,-1.5125 3.5031,-20.525 7.0923,-42.25 3.5891,-21.725 6.7806,-40.7375 7.0923,-42.25 l 0.5666,-2.75 -4.0795,0 -4.0794,0 0,-3.5 0,-3.5 137,0 136.99997,0 0,3.5 0,3.5 -4,0 c -2.2,0 -4,0.13665 -4,0.30366 0,0.16702 3.15,20.28037 7,44.69634 8.1665,51.79035 7.3365,45 5.5,45 l -1.5,0 0,8 0,8 -35.49997,0 -35.5,0 0,2 -69,0 -69,0 z"
       id="path4737"
       />
    <path
       d="m 285.43788,582.1531 c -18.2475,-0.15254 -48.3975,-0.15262 -67,-1.9e-4 l -33.8229,0.27714 67,1.9e-4 67,1.9e-4 z"
       id="path5238"
       />
    <path
       d="m 319.84718,570.65254 -0.3828,-4.25 0,8.5 0,8.5 0.3828,-4.25 c 0.2105,-2.3375 0.2105,-6.1625 0,-8.5 z"
       id="path5236"
       />
    <path
       d="m 119.11498,573.90254 0,-7 -3.5,0 -3.5,0 0,7 0,7 3.5,0 3.5,0 z"
       id="path5234"
       />
    <path
       d="m 127.11498,573.90254 0,-7 -3.5,0 -3.5,0 0,7 0,7 3.5,0 3.5,0 z"
       id="path5232"
       />
    <path
       d="m 134.11498,573.90254 0,-7 -3,0 -3,0 0,7 0,7 3,0 3,0 z"
       id="path5230"
       />
    <path
       d="m 142.11498,573.90254 0,-7 -3,0 -3,0 0,7 0,7 3,0 3,0 z"
       id="path5228"
       />
    <path
       d="m 150.11498,573.90254 0,-7 -3,0 -3,0 0,7 0,7 3,0 3,0 z"
       id="path5226"
       />
    <path
       d="m 158.11498,573.90254 0,-7 -3,0 -3,0 0,7 0,7 3,0 3,0 z"
       id="path5224"
       />
    <path
       d="m 166.11498,573.90254 0,-7 -3,0 -3,0 0,7 0,7 3,0 3,0 z"
       id="path5222"
       />
    <path
       d="m 174.11498,573.90254 0,-7 -3,0 -3,0 0,7 0,7 3,0 3,0 z"
       id="path5220"
       />
    <path
       d="m 182.11498,573.90254 0,-7 -3.5,0 -3.5,0 0,7 0,7 3.5,0 3.5,0 z"
       id="path5218"
       />
    <path
       d="m 192.11498,573.90254 0,-7 -3,0 -3,0 0,7 0,7 3,0 3,0 z"
       id="path5216"
       />
    <path
       d="m 200.11498,573.90254 0,-7 -3,0 -3,0 0,7 0,7 3,0 3,0 z"
       id="path5214"
       />
    <path
       d="m 208.11498,573.90254 0,-7 -3.5,0 -3.5,0 0,7 0,7 3.5,0 3.5,0 z"
       id="path5212"
       />
    <path
       d="m 216.11498,573.90254 0,-7 -3.5,0 -3.5,0 0,7 0,7 3.5,0 3.5,0 z"
       id="path5210"
       />
    <path
       d="m 223.11498,573.90254 0,-7 -3,0 -3,0 0,7 0,7 3,0 3,0 z"
       id="path5208"
       />
    <path
       d="m 231.11498,573.90254 0,-7 -3,0 -3,0 0,7 0,7 3,0 3,0 z"
       id="path5206"
       />
    <path
       d="m 239.11498,573.90254 0,-7 -3,0 -3,0 0,7 0,7 3,0 3,0 z"
       id="path5204"
       />
    <path
       d="m 247.11498,573.90254 0,-7 -3,0 -3,0 0,7 0,7 3,0 3,0 z"
       id="path5202"
       />
    <path
       d="m 255.11498,573.90254 0,-7 -3,0 -3,0 0,7 0,7 3,0 3,0 z"
       id="path5200"
       />
    <path
       d="m 263.11498,573.90254 0,-7 -3,0 -3,0 0,7 0,7 3,0 3,0 z"
       id="path5198"
       />
    <path
       d="m 271.11498,573.90254 0,-7 -3.5,0 -3.5,0 0,7 0,7 3.5,0 3.5,0 z"
       id="path5196"
       />
    <path
       d="m 279.11498,573.90254 0,-7 -3.5,0 -3.5,0 0,7 0,7 3.5,0 3.5,0 z"
       id="path5194"
       />
    <path
       d="m 286.11498,573.90254 0,-7 -3,0 -3,0 0,7 0,7 3,0 3,0 z"
       id="path5192"
       />
    <path
       d="m 294.11498,573.90254 0,-7 -3,0 -3,0 0,7 0,7 3,0 3,0 z"
       id="path5190"
       />
    <path
       d="m 302.11498,573.90254 0,-7 -3,0 -3,0 0,7 0,7 3,0 3,0 z"
       id="path5188"
       />
    <path
       d="m 310.11498,573.90254 0,-7 -3,0 -3,0 0,7 0,7 3,0 3,0 z"
       id="path5186"
       />
    <path
       d="m 318.11498,573.90254 0,-7 -3,0 -3,0 0,7 0,7 3,0 3,0 z"
       id="path5184"
       />
    <path
       d="m 328.11498,573.90254 0,-7 -3,0 -3,0 0,7 0,7 3,0 3,0 z"
       id="path5182"
       />
    <path
       d="m 336.11498,573.90254 0,-7 -3,0 -3,0 0,7 0,7 3,0 3,0 z"
       id="path5180"
       />
    <path
       d="m 344.11498,573.90254 0,-7 -3,0 -3,0 0,7 0,7 3,0 3,0 z"
       id="path5178"
       />
    <path
       d="m 352.11498,573.90254 0,-7 -3,0 -3,0 0,7 0,7 3,0 3,0 z"
       id="path5176"
       />
    <path
       d="m 360.11498,573.90254 0,-7 -3.5,0 -3.5,0 0,7 0,7 3.5,0 3.5,0 z"
       id="path5174"
       />
    <path
       d="m 368.11495,573.90254 0,-7 -3.49997,0 -3.5,0 0,7 0,7 3.5,0 3.49997,0 z"
       id="path5172"
       />
    <path
       d="m 375.11495,573.90254 0,-7 -3,0 -3,0 0,7 0,7 3,0 3,0 z"
       id="path5170"
       />
    <path
       d="m 383.11495,573.90254 0,-7 -3,0 -3,0 0,7 0,7 3,0 3,0 z"
       id="path5168"
       />
    <path
       d="m 391.11495,573.90254 0,-7 -3,0 -3,0 0,7 0,7 3,0 3,0 z"
       id="path5166"
       />
    <path
       d="m 135.90108,564.40578 c 0.2038,-0.17253 11.1152,-85.15145 11.2034,-87.25324 0.01,-0.1375 -3.5408,-0.25 -7.8811,-0.25 l -7.8916,0 -0.5383,2.25 c -0.2961,1.2375 -3.3397,20.25 -6.7635,42.25 l -6.2251,40 -0.845,0.33333 -0.8449,0.33334 0,1.77732 0,1.77732 9.75,-0.48795 c 5.3625,-0.26837 9.8787,-0.59692 10.0361,-0.73012 z"
       id="path5164"
       />
    <path
       d="m 115.53548,562.15254 c 0.3186,-1.5125 3.2794,-20.075 6.5795,-41.25 3.3,-21.175 6.2608,-39.7375 6.5795,-41.25 l 0.5794,-2.75 -2.5,0 -2.5,0 -0.5794,2.75 c -0.3187,1.5125 -3.2795,20.075 -6.5795,41.25 -3.3001,21.175 -6.2609,39.7375 -6.5795,41.25 l -0.5794,2.75 2.5,0 2.5,0 z"
       id="path5162"
       />
    <path
       d="m 167.57098,560.65254 c 0.3183,-2.3375 2.138,-20.225 4.044,-39.75 1.9059,-19.525 3.7256,-37.4125 4.0439,-39.75 l 0.5786,-4.25 -13.5159,0 -13.516,0 -0.556,3.25 c -0.3059,1.7875 -2.7964,20.125 -5.5346,40.75 -2.7382,20.625 -5.2288,38.9625 -5.5346,40.75 l -0.5561,3.25 14.9841,0 14.984,0 z"
       id="path5160"
       />
    <path
       d="m 207.54768,556.65254 c 0.3368,-4.5375 1.2671,-20.625 2.0673,-35.75 0.8002,-15.125 1.7304,-31.2125 2.0672,-35.75 l 0.6123,-8.25 -17.5285,0 -17.5285,0 -0.5786,4.25 c -0.3183,2.3375 -2.138,20.225 -4.0439,39.75 -1.906,19.525 -3.7257,37.4125 -4.044,39.75 l -0.5786,4.25 19.4715,0 19.4715,0 z"
       id="path5158"
       />
    <path
       d="m 251.11498,520.90254 0,-44 -18.9103,0 -18.9102,0 -0.6123,8.25 c -0.3368,4.5375 -1.267,20.625 -2.0672,35.75 -0.8002,15.125 -1.7305,31.2125 -2.0673,35.75 l -0.6123,8.25 21.5898,0 21.5898,0 z"
       id="path5156"
       />
    <path
       d="m 295.10078,563.65254 c -0.01,-0.6875 -0.9014,-19.925 -1.9858,-42.75 -1.0845,-22.825 -1.9781,-42.0625 -1.9859,-42.75 l -0.014,-1.25 -19.5,0 -19.5,0 0,44 0,44 21.5,0 21.5,0 -0.014,-1.25 z"
       id="path5154"
       />
    <path
       d="m 334.65888,560.65254 c -0.3183,-2.3375 -2.138,-20.225 -4.0439,-39.75 -1.906,-19.525 -3.7257,-37.4125 -4.044,-39.75 l -0.5786,-4.25 -17.0285,0 -17.0285,0 0.6123,8.25 c 0.3368,4.5375 1.2671,20.625 2.0673,35.75 0.8002,15.125 1.7304,31.2125 2.0672,35.75 l 0.6123,8.25 18.9715,0 18.9715,0 z"
       id="path5152"
       />
    <path
       d="m 366.64955,561.65254 c -0.3059,-1.7875 -2.79637,-20.125 -5.53457,-40.75 -2.7382,-20.625 -5.2288,-38.9625 -5.5346,-40.75 l -0.5561,-3.25 -13.5485,0 -13.5485,0 0.5983,4.75 c 0.329,2.6125 1.9442,20.275 3.5894,39.25 1.6451,18.975 3.2603,36.6375 3.5894,39.25 l 0.5982,4.75 15.4515,0 15.45147,0 z"
       id="path5150"
       />
    <path
       d="m 386.69445,562.15254 c -0.3187,-1.5125 -3.2795,-20.075 -6.5795,-41.25 -3.3001,-21.175 -6.2609,-39.7375 -6.5796,-41.25 l -0.5793,-2.75 -8.46587,0 -8.4659,0 0.5561,3.25 c 0.3058,1.7875 2.7964,20.125 5.5346,40.75 2.7382,20.625 5.22867,38.9625 5.53457,40.75 l 0.556,3.25 9.5341,0 9.5342,0 z"
       id="path5148"
       />
    <path
       d="m 393.63675,562.65254 c -0.284,-1.2375 -3.4438,-20.025 -7.0218,-41.75 -3.578,-21.725 -6.7378,-40.5125 -7.0218,-41.75 l -0.5163,-2.25 -2.5604,0 -2.5604,0 0.5794,2.75 c 0.3186,1.5125 3.2794,20.075 6.5795,41.25 3.3,21.175 6.2608,39.7375 6.5795,41.25 l 0.5794,2.75 2.9396,0 2.9396,0 z"
       id="path5146"
       />
    <path
       d="m 125.11498,472.40254 0,-2.5 -4.5,0 -4.5,0 0,2.5 0,2.5 4.5,0 4.5,0 z"
       id="path5144"
       />
    <path
       d="m 151.11498,472.40254 0,-2.5 -12.5,0 -12.5,0 0,2.5 0,2.5 12.5,0 12.5,0 z"
       id="path5142"
       />
    <path
       d="m 159.11498,472.40254 0,-2.5 -3.5,0 -3.5,0 0,2.5 0,2.5 3.5,0 3.5,0 z"
       id="path5140"
       />
    <path
       d="m 215.11498,472.40254 0,-2.5 -27.5,0 -27.5,0 0,2.5 0,2.5 27.5,0 27.5,0 z"
       id="path5138"
       />
    <path
       d="m 218.11498,472.40254 0,-2.5 -1,0 -1,0 0,2.5 0,2.5 1,0 1,0 z"
       id="path5136"
       />
    <path
       d="m 251.11498,472.40254 0,-2.5 -16,0 -16,0 0,2.5 0,2.5 16,0 16,0 z"
       id="path5134"
       />
    <path
       d="m 285.11498,472.40254 0,-2.5 -16.5,0 -16.5,0 0,2.5 0,2.5 16.5,0 16.5,0 z"
       id="path5132"
       />
    <path
       d="m 288.11498,472.40254 0,-2.5 -1,0 -1,0 0,2.5 0,2.5 1,0 1,0 z"
       id="path5130"
       />
    <path
       d="m 344.11498,472.40254 0,-2.5 -27.5,0 -27.5,0 0,2.5 0,2.5 27.5,0 27.5,0 z"
       id="path5128"
       />
    <path
       d="m 351.11498,472.40254 0,-2.5 -3,0 -3,0 0,2.5 0,2.5 3,0 3,0 z"
       id="path5126"
       />
    <path
       d="m 377.11495,472.40254 0,-2.5 -12.49997,0 -12.5,0 0,2.5 0,2.5 12.5,0 12.49997,0 z"
       id="path5124"
       />
    <path
       d="m 388.11495,472.40254 0,-2.5 -5,0 -5,0 0,2.5 0,2.5 5,0 5,0 z"
       id="path5122"
       />
  </g>
  
  
  
  
  
  
  
  
  
  
  
  
  
  
  
  
  
  
  
  
  
  
  
  
  
  <g
     id="TRD"
     style="fill:none;stroke:green" class="substep">
    <path
       d="m 183.11498,175.4026 0,-3.5 -48,0 -48.000006,0 0,3.5 0,3.5 48.000006,0 48,0 z"
       id="path6194" />
    <path
       d="m 251.11498,175.4026 0,-3.5 -33.5,0 -33.5,0 0,3.5 0,3.5 33.5,0 33.5,0 z"
       id="path6192" />
    <path
       d="m 320.11498,175.4026 0,-3.5 -34,0 -34,0 0,3.5 0,3.5 34,0 34,0 z"
       id="path6190" />
    <path
       d="m 416.11495,175.4026 0,-3.5 -47.5,0 -47.49997,0 0,3.5 0,3.5 47.49997,0 47.5,0 z"
       id="path6188" />
    <path
       d="m 92.364974,170.1792 c -1.7875,-0.22182 -4.7125,-0.22182 -6.5,0 l -3.25,0.40333 6.5,0 6.500002,0 z"
       id="path6186" />
    <path
       d="m 160.43258,170.1539 c -11.6503,-0.15987 -31.0003,-0.16007 -43,-4.3e-4 l -21.817604,0.29022 43.000004,4.3e-4 43,4.4e-4 z"
       id="path6184" />
    <path
       d="m 185.36498,170.2403 -1.25,-0.50439 -1.25,0.50439 -1.25,0.50439 2.5,0 2.5,0 z"
       id="path6182" />
    <path
       d="m 284.43758,170.1532 c -17.6976,-0.15296 -46.9476,-0.15305 -65,-2e-4 l -32.8226,0.2779 65,2e-4 65,2.1e-4 z"
       id="path6180" />
    <path
       d="m 320.36498,170.2403 -1.25,-0.50439 -1.25,0.50439 -1.25,0.50439 2.5,0 2.5,0 z"
       id="path6178" />
    <path
       d="m 386.86495,170.1536 c -11.9625,-0.15952 -31.53747,-0.15952 -43.49997,0 l -21.75,0.29005 43.5,0 43.49997,0 z"
       id="path6176" />
    <path
       d="m 418.36495,170.1792 c -1.7875,-0.22182 -4.7125,-0.22182 -6.5,0 l -3.25,0.40333 6.5,0 6.5,0 z"
       id="path6174" />
    <path
       d="m 81.893535,157.92861 -5.104313,-10.97456 -1.337029,0 -1.336929,0 0,-2.49422 0,-2.49422 -1.000022,0 -1.000022,0 0,-2.99307 0,-2.99306 -1.500033,0 -1.500033,0 0,-2.49422 0,-2.49422 -1.000022,0 -1.000022,0 0,-2.99306 0,-2.99306 -1.500033,0 -1.500033,0 0,-2.49422 0,-2.49422 -1.500033,0 -1.500033,0 0,-2.99306 0,-2.99307 -1.000022,0 -1.000022,0 0,-2.99306 0,-2.99306 -1.500033,0 -1.500033,0 0,-2.49423 0,-2.49422 -1.000022,0 -1.000022,0 0,-2.99306 0,-2.993062 -1.500033,0 -1.500033,0 0,-2.494219 0,-2.494219 -1.000022,0 -1.000062,0 0,-2.993062 0,-2.993063 -1.500033,0 -1.500033,0 0,-3.162913 0,-3.162912 -3.14811,-6.813964 -8.532869,-18.660436 -1.501714,0.119661 -2.339342,0 4.819839,12.973921 c 1.073807,2.890445 44.755285,97.752788 45.720706,99.552348 l 1.052623,1.96237 2.406153,0 2.406053,0 z"
       id="path6172" />
    <path
       d="m 99.114976,160.4026 0,-8.5 11.000004,0 11,0 0,-2.5 0,-2.5 -21,0 -21.000006,0 0,0.5475 c 0,0.30113 2.2187,5.25113 4.9304,11 l 4.9304,10.4525 5.0696,0 5.069602,0 z"
       id="path6170" />
    <path
       d="m 121.11498,166.4026 0,-2.5 -21,0 0,5 21,0 z"
       id="path6168" />
    <path
       d="m 142.11498,166.4026 0,-2.5 -20,0 0,5 20,0 z"
       id="path6166" />
    <path
       d="m 164.11498,166.4026 0,-2.5 -21,0 0,5 21,0 z"
       id="path6164" />
    <path
       d="m 180.72198,167.32081 c -0.3339,-0.86998 -0.607,-1.99498 -0.607,-2.5 l 0,-0.91821 -7.5,0 -7.5,0 0,5 8.107,0 8.1069,0 z"
       id="path6162" />
    <path
       d="m 182.19978,165.79778 -0.9581,-2.39518 -0.063,1.16821 c -0.085,1.56062 1.0803,4.52151 1.5817,4.0201 0.2188,-0.21887 -0.033,-1.47578 -0.5602,-2.79313 z"
       id="path6160" />
    <path
       d="m 186.85398,152.1526 -0.3609,-5.75 0,11.5 0,11.5 0.3609,-5.75 c 0.1984,-3.1625 0.1984,-8.3375 0,-11.5 z"
       id="path6158" />
    <path
       d="m 208.11498,166.4026 0,-2.5 -20,0 0,5 20,0 z"
       id="path6156" />
    <path
       d="m 230.11498,166.4026 0,-2.5 -21,0 0,5 21,0 z"
       id="path6154" />
    <path
       d="m 251.11498,166.4026 0,-2.5 -20,0 0,5 20,0 z"
       id="path6152" />
    <path
       d="m 273.11498,166.4026 0,-2.5 -21,0 0,5 21,0 z"
       id="path6150" />
    <path
       d="m 294.11498,166.4026 0,-2.5 -20,0 0,5 20,0 z"
       id="path6148" />
    <path
       d="m 316.11498,166.4026 0,-2.5 -21,0 0,5 21,0 z"
       id="path6146" />
    <path
       d="m 320.09968,165.1526 0.015,-1.25 -1,0 -1,0 0.015,2.75 0.015,2.75 0.9694,-1.5 c 0.5331,-0.825 0.9762,-2.0625 0.9847,-2.75 z"
       id="path6144" />
    <path
       d="m 322.63888,166.82724 0.6587,-2.07536 -0.5913,-0.59131 c -0.769,-0.76897 -1.191,-0.25205 -2.0345,2.49203 l -0.6916,2.25 1,0 1,0 z"
       id="path6142" />
    <path
       d="m 339.11498,166.4026 0,-2.5 -7.5,0 -7.5,0 0,0.91821 c 0,0.50502 -0.2732,1.63002 -0.607,2.5 l -0.607,1.58179 8.107,0 8.107,0 z"
       id="path6140" />
    <path
       d="m 360.11498,166.4026 0,-2.5 -20,0 0,5 20,0 z"
       id="path6138" />
    <path
       d="m 382.11495,166.4026 0,-2.5 -10.5,0 -10.49997,0 0,5 10.49997,0 10.5,0 z"
       id="path6136" />
    <path
       d="m 403.11495,166.4026 0,-2.5 -20,0 0,5 20,0 z"
       id="path6134" />
    <path
       d="m 420.16335,158.29877 c 2.7234,-5.83211 4.9516,-10.78211 4.9516,-11 0,-0.21789 -4.725,-0.39617 -10.5,-0.39617 l -10.5,0 0,11 0,11 5.5484,0 5.5485,0 z"
       id="path6132" />
    <path
       d="m 437.88785,133.4026 c 14.1542,-30.32754 34.4178,-74.44523 35.9407,-78.250008 l 0.5003,-1.25 -2.1662,0 -2.1663,0 -6.4407,13.587088 -6.4407,13.587087 0,2.412913 0,2.412913 -1,0 -1,0 0,3 0,3 -1.5,0 -1.5,0 0,5 -1,0 -1,0 0,3 0,2.999997 -1.5,0 -1.5,0 0,2.5 0,2.50001 -1,0 -1,0 0,3 0,3 -1.5,0 -1.5,0 0,3 0,3 -1,0 -1,0 0,5 -1.5,0 -1.5,0 0,3 0,3 -1.5,0 -1.5,0 0,5 -1,0 -1,0 0,3 0,3 -1.5,0 -1.5,0 0,5 -1.2727,0 -1.2726,0 -5.172,11.06108 -5.1719,11.06107 2.6636,-0.31107 2.6636,-0.31108 z"
       id="path6130" />
    <path
       d="m 184.79808,164.7151 -0.5252,-1.3125 -0.079,1.91667 -0.079,1.91666 0.6041,-0.60416 0.6042,-0.60417 -0.5252,-1.3125 z"
       id="path6128" />
    <path
       d="m 121.11498,160.4026 0,-2.5 -21,0 0,5 21,0 z"
       id="path6126" />
    <path
       d="m 142.11498,160.4026 0,-2.5 -20,0 0,5 20,0 z"
       id="path6124" />
    <path
       d="m 164.11498,160.4026 0,-2.5 -21,0 0,5 21,0 z"
       id="path6122" />
    <path
       d="m 181.26648,160.02026 -0.5204,-2.61766 -0.7159,2.5 -0.7159,2.5 -0.1,-2.25 -0.1,-2.25 -7,0 -7,0 0,2.55139 0,2.55138 8.336,-0.18373 8.336,-0.18373 -0.5205,-2.61765 z"
       id="path6120" />
    <path
       d="m 185.11498,160.4026 0,-2.5 -1,0 -1,0 0,1.83333 c 0,1.6552 0.7955,3.16667 1.6666,3.16667 0.1834,0 0.3334,-1.125 0.3334,-2.5 z"
       id="path6118" />
    <path
       d="m 208.11498,160.4026 0,-2.5 -20,0 0,5 20,0 z"
       id="path6116" />
    <path
       d="m 230.11498,160.4026 0,-2.5 -21,0 0,5 21,0 z"
       id="path6114" />
    <path
       d="m 251.11498,160.4026 0,-2.5 -20,0 0,5 20,0 z"
       id="path6112" />
    <path
       d="m 273.11498,160.4026 0,-2.5 -21,0 0,5 21,0 z"
       id="path6110" />
    <path
       d="m 294.11498,160.4026 0,-2.5 -20,0 0,5 20,0 z"
       id="path6108" />
    <path
       d="m 316.11498,160.4026 0,-2.5 -21,0 0,5 21,0 z"
       id="path6106" />
    <path
       d="m 320.93448,160.07427 0.3196,-2.17167 -1.5696,0 -1.5695,0 0,2.58333 0,2.58334 1.25,-0.41166 1.25,-0.41167 z"
       id="path6104" />
    <path
       d="m 323.93448,160.07427 0.3196,-2.17167 -0.953,0 -0.953,0 -0.4855,2.53963 -0.4854,2.53964 1.1189,-0.36796 1.1189,-0.36797 z"
       id="path6102" />
    <path
       d="m 339.11498,160.4026 0,-2.5 -6.8835,0 -6.8834,0 -0.4779,2.5 -0.4779,2.5 7.3613,0 7.3614,0 z"
       id="path6100" />
    <path
       d="m 360.11498,160.4026 0,-2.5 -20,0 0,5 20,0 z"
       id="path6098" />
    <path
       d="m 382.11495,160.4026 0,-2.5 -10.5,0 -10.49997,0 0,5 10.49997,0 10.5,0 z"
       id="path6096" />
    <path
       d="m 403.11495,160.4026 0,-2.5 -20,0 0,5 20,0 z"
       id="path6094" />
    <path
       d="m 121.11498,154.9026 0,-2 -21,0 0,2 0,2 21,0 z"
       id="path6092" />
    <path
       d="m 142.11498,154.9026 0,-2 -20,0 0,2 0,2 20,0 z"
       id="path6090" />
    <path
       d="m 164.11498,154.9026 0,-2 -21,0 0,2 0,2 21,0 z"
       id="path6088" />
    <path
       d="m 178.11498,154.9026 0,-2 -6.5,0 -6.5,0 0,2 0,2 6.5,0 6.5,0 z"
       id="path6086" />
    <path
       d="m 180.39428,154.8629 c -0.2933,-1.12182 -0.7568,-1.81623 -1.0299,-1.54313 -0.541,0.54099 0.4146,3.58279 1.1256,3.58279 0.2407,0 0.1977,-0.91785 -0.096,-2.03966 z"
       id="path6084" />
    <path
       d="m 185.11498,154.9026 0,-2 -1.5,0 -1.5,0 0,2 0,2 1.5,0 1.5,0 z"
       id="path6082" />
    <path
       d="m 208.11498,154.9026 0,-2 -20,0 0,2 0,2 20,0 z"
       id="path6080" />
    <path
       d="m 230.11498,154.9026 0,-2 -21,0 0,2 0,2 21,0 z"
       id="path6078" />
    <path
       d="m 251.11498,154.9026 0,-2 -20,0 0,2 0,2 20,0 z"
       id="path6076" />
    <path
       d="m 273.11498,154.9026 0,-2 -21,0 0,2 0,2 21,0 z"
       id="path6074" />
    <path
       d="m 294.11498,154.9026 0,-2 -20,0 0,2 0,2 20,0 z"
       id="path6072" />
    <path
       d="m 316.11498,154.9026 0,-2 -21,0 0,2 0,2 21,0 z"
       id="path6070" />
    <path
       d="m 321.92678,154.64112 0.3348,-1.73852 -2.0733,0 -2.0733,0 0,2.07332 0,2.07333 1.7385,-0.33481 1.7385,-0.33481 z"
       id="path6068" />
    <path
       d="m 324.93828,154.56972 0.3233,-1.66713 -0.9567,0 -0.9567,0 -0.5379,2.0571 -0.538,2.05711 1.1714,-0.38997 1.1713,-0.38997 z"
       id="path6066" />
    <path
       d="m 339.11498,154.9026 0,-2 -6.3834,0 -6.3834,0 -0.523,2 -0.523,2 6.9064,0 6.9064,0 z"
       id="path6064" />
    <path
       d="m 360.11498,154.9026 0,-2 -20,0 0,2 0,2 20,0 z"
       id="path6062" />
    <path
       d="m 382.11495,154.9026 0,-2 -10.5,0 -10.49997,0 0,2 0,2 10.49997,0 10.5,0 z"
       id="path6060" />
    <path
       d="m 403.11495,154.9026 0,-2 -20,0 0,2 0,2 20,0 z"
       id="path6058" />
    <path
       d="m 142.11498,149.4026 0,-2.5 -20,0 0,5 20,0 z"
       id="path6056" />
    <path
       d="m 164.11498,149.4026 0,-2.5 -21,0 0,5 21,0 z"
       id="path6054" />
    <path
       d="m 177.11498,149.4026 0,-2.5 -6,0 -6,0 0,5 6,0 6,0 z"
       id="path6052" />
    <path
       d="m 179.31078,149.1526 -0.5268,-2.75 -0.4288,1.28299 c -0.4254,1.2725 0.3355,4.21701 1.0897,4.21701 0.216,0 0.1557,-1.2375 -0.1341,-2.75 z"
       id="path6050" />
    <path
       d="m 185.11498,149.4026 0,-2.5 -2,0 -2,0 0,5 2,0 2,0 z"
       id="path6048" />
    <path
       d="m 208.11498,149.4026 0,-2.5 -20,0 0,5 20,0 z"
       id="path6046" />
    <path
       d="m 230.11498,149.4026 0,-2.5 -21,0 0,5 21,0 z"
       id="path6044" />
    <path
       d="m 251.11498,149.4026 0,-2.5 -20,0 0,5 20,0 z"
       id="path6042" />
    <path
       d="m 273.11498,149.4026 0,-2.5 -21,0 0,5 21,0 z"
       id="path6040" />
    <path
       d="m 294.11498,149.4026 0,-2.5 -20,0 0,5 20,0 z"
       id="path6038" />
    <path
       d="m 316.11498,149.4026 0,-2.5 -21,0 0,5 21,0 z"
       id="path6036" />
    <path
       d="m 322.93448,149.1526 0.3196,-2.25 -2.5696,0 -2.5695,0 0,2.56955 0,2.56955 2.25,-0.31955 2.25,-0.31955 z"
       id="path6034" />
    <path
       d="m 325.93448,149.0743 0.3196,-2.17167 -0.953,0 -0.953,0 -0.4855,2.53963 -0.4854,2.53964 1.1189,-0.36796 1.1189,-0.36797 z"
       id="path6032" />
    <path
       d="m 339.11498,149.4026 0,-2.5 -5.8835,0 -5.8834,0 -0.4779,2.5 -0.4779,2.5 6.3613,0 6.3614,0 z"
       id="path6030" />
    <path
       d="m 360.11498,149.4026 0,-2.5 -20,0 0,5 20,0 z"
       id="path6028" />
    <path
       d="m 382.11495,149.4026 0,-2.5 -10.5,0 -10.49997,0 0,5 10.49997,0 10.5,0 z"
       id="path6026" />
    <path
       d="m 403.11495,149.4026 0,-2.5 -20,0 0,5 20,0 z"
       id="path6024" />
    <path
       d="m 75.781574,144.23593 -0.6666,-0.66666 0,1.33333 0,1.33333 0.6666,-0.66666 0.6667,-0.66667 z"
       id="path6022" />
    <path
       d="m 94.114974,143.9026 0,-2 -8.5,0 -8.5,0 0,1.33333 c 0,0.73334 0.3,1.63334 0.6666,2 l 0.6667,0.66667 7.8333,0 7.8334,0 z"
       id="path6020" />
    <path
       d="m 115.11498,143.9026 0,-2 -9.5,0 -9.500004,0 0,2 0,2 9.500004,0 9.5,0 z"
       id="path6018" />
    <path
       d="m 116.77718,142.6526 -0.5043,-1.25 0,5 0.5043,-1.25 0.5044,-1.25 z"
       id="path6016" />
    <path
       d="m 137.11498,143.9026 0,-2 -9.5,0 -9.5,0 0,2 0,2 9.5,0 9.5,0 z"
       id="path6014" />
    <path
       d="m 158.11498,143.9026 0,-2 -9.5,0 -9.5,0 0,2 0,2 9.5,0 9.5,0 z"
       id="path6012" />
    <path
       d="m 159.77718,142.6526 -0.5043,-1.25 0,5 0.5043,-1.25 0.5044,-1.25 z"
       id="path6010" />
    <path
       d="m 176.11498,143.9026 0,-2 -7.5,0 -7.5,0 0,2 0,2 7.5,0 7.5,0 z"
       id="path6008" />
    <path
       d="m 177.77718,142.6526 -0.5043,-1.25 0,5 0.5043,-1.25 0.5044,-1.25 z"
       id="path6006" />
    <path
       d="m 251.23098,144.1526 0.116,-1.75 0.4573,1.75 0.4573,1.75 35.9267,0 35.9267,0 0,-2 0,-2 -35.25,-0.23075 -35.25,-0.23074 35.5,-0.51926 35.5,-0.51925 0.3195,-2.25 0.3196,-2.25 -36.5696,0 -36.5695,0 -0.1499,2.75 -0.1498,2.75 -0.4166,-2.75 -0.4166,-2.75 -36.2949,0 -36.2949,0 0.4779,2.5 0.4779,2.5 34.6334,0.23643 34.6335,0.23643 -34.25,0.2767 -34.25,0.2767 0,1.98687 0,1.98687 35.5,0 35.5,0 z"
       id="path6004" />
    <path
       d="m 327.11498,143.9026 0,-2 -1,0 -1,0 0,2 0,2 1,0 1,0 z"
       id="path6002" />
    <path
       d="m 343.11498,143.9026 0,-2 -7.5,0 -7.5,0 0,2 0,2 7.5,0 7.5,0 z"
       id="path6000" />
    <path
       d="m 344.77718,142.6526 -0.5043,-1.25 0,5 0.5043,-1.25 0.5044,-1.25 z"
       id="path5998" />
    <path
       d="m 364.11498,143.9026 0,-2 -9,0 -9,0 0,2 0,2 9,0 9,0 z"
       id="path5996" />
    <path
       d="m 365.77718,142.6526 -0.5043,-1.25 0,5 0.5043,-1.25 0.50437,-1.25 z"
       id="path5994" />
    <path
       d="m 386.11495,143.9026 0,-2 -9.5,0 -9.5,0 0,2 0,2 9.5,0 9.5,0 z"
       id="path5992" />
    <path
       d="m 387.77715,142.6526 -0.5043,-1.25 0,5 0.5043,-1.25 0.5044,-1.25 z"
       id="path5990" />
    <path
       d="m 407.11495,143.9026 0,-2 -9,0 -9,0 0,2 0,2 9,0 9,0 z"
       id="path5988" />
    <path
       d="m 408.77715,142.6526 -0.5043,-1.25 0,5 0.5043,-1.25 0.5044,-1.25 z"
       id="path5986" />
    <path
       d="m 426.11495,145.48439 c 0,-0.23002 0.2731,-1.13002 0.607,-2 l 0.6069,-1.58179 -8.6069,0 -8.607,0 0,2 0,2 8,0 c 4.4,0 8,-0.1882 8,-0.41821 z"
       id="path5984" />
    <path
       d="m 90.114974,138.4026 0,-2.5 -8,0 -8,0 0,0.56574 c 0,0.31116 0.4658,1.43616 1.0351,2.5 l 1.0352,1.93426 6.9648,0 6.9649,0 z"
       id="path5982" />
    <path
       d="m 91.807974,137.17163 -0.461,-1.76903 -0.037,3 -0.037,3 0.498,-1.23097 c 0.2739,-0.67703 0.2906,-2.02703 0.037,-3 z"
       id="path5980" />
    <path
       d="m 111.11498,138.4026 0,-2.5 -9,0 -9.000006,0 0,5 9.000006,0 9,0 z"
       id="path5978" />
    <path
       d="m 112.80798,137.17163 -0.461,-1.76903 -0.037,3 -0.037,3 0.498,-1.23097 c 0.2739,-0.67703 0.2906,-2.02703 0.037,-3 z"
       id="path5976" />
    <path
       d="m 133.11498,138.4026 0,-2.5 -9.5,0 -9.5,0 0,5 9.5,0 9.5,0 z"
       id="path5974" />
    <path
       d="m 134.80798,137.17163 -0.461,-1.76903 -0.037,3 -0.037,3 0.498,-1.23097 c 0.2739,-0.67703 0.2906,-2.02703 0.037,-3 z"
       id="path5972" />
    <path
       d="m 154.11498,138.4026 0,-2.5 -9,0 -9,0 0,5 9,0 9,0 z"
       id="path5970" />
    <path
       d="m 155.80798,137.17163 -0.461,-1.76903 -0.037,3 -0.037,3 0.498,-1.23097 c 0.2739,-0.67703 0.2906,-2.02703 0.037,-3 z"
       id="path5968" />
    <path
       d="m 175.11498,138.4026 0,-2.5 -9,0 -9,0 0,5 9,0 9,0 z"
       id="path5966" />
    <path
       d="m 177.31078,138.1526 -0.5268,-2.75 -0.4288,1.28299 c -0.4254,1.2725 0.3355,4.21701 1.0897,4.21701 0.216,0 0.1557,-1.2375 -0.1341,-2.75 z"
       id="path5964" />
    <path
       d="m 327.93448,138.0743 0.3196,-2.17167 -0.953,0 -0.953,0 -0.4855,2.53963 -0.4854,2.53964 1.1189,-0.36796 1.1189,-0.36797 z"
       id="path5962" />
    <path
       d="m 346.11498,138.4026 0,-2.5 -8.3835,0 -8.3834,0 -0.4779,2.5 -0.4779,2.5 8.8613,0 8.8614,0 z"
       id="path5960" />
    <path
       d="m 347.80798,137.17163 -0.461,-1.76903 -0.037,3 -0.037,3 0.498,-1.23097 c 0.2739,-0.67703 0.2906,-2.02703 0.037,-3 z"
       id="path5958" />
    <path
       d="m 368.11495,138.4026 0,-2.5 -9.49997,0 -9.5,0 0,5 9.5,0 9.49997,0 z"
       id="path5956" />
    <path
       d="m 369.80795,137.17163 -0.461,-1.76903 -0.037,3 -0.037,3 0.498,-1.23097 c 0.2739,-0.67703 0.2906,-2.02703 0.037,-3 z"
       id="path5954" />
    <path
       d="m 389.11495,138.4026 0,-2.5 -9,0 -9,0 0,5 9,0 9,0 z"
       id="path5952" />
    <path
       d="m 390.80795,137.17163 -0.461,-1.76903 -0.037,3 -0.037,3 0.498,-1.23097 c 0.2739,-0.67703 0.2906,-2.02703 0.037,-3 z"
       id="path5950" />
    <path
       d="m 411.11495,138.4026 0,-2.5 -9.5,0 -9.5,0 0,5 9.5,0 9.5,0 z"
       id="path5948" />
    <path
       d="m 412.80795,137.17163 -0.461,-1.76903 -0.037,3 -0.037,3 0.498,-1.23097 c 0.2739,-0.67703 0.2906,-2.02703 0.037,-3 z"
       id="path5946" />
    <path
       d="m 429.75915,138.26764 0.1442,-2.36504 -7.8942,0 -7.8942,0 0,2.55202 0,2.55202 7.75,-0.18697 7.75,-0.18698 z"
       id="path5944" />
    <path
       d="m 86.114974,132.9026 0,-2 -7.5352,0 -7.5352,0 1.0704,2 1.0703,2 6.4648,0 6.4649,0 z"
       id="path5942" />
    <path
       d="m 87.777174,131.6526 -0.5043,-1.25 0,5 0.5043,-1.25 0.5044,-1.25 z"
       id="path5940" />
    <path
       d="m 108.11498,132.9026 0,-2 -9.500004,0 -9.500002,0 0,2 0,2 9.500002,0 9.500004,0 z"
       id="path5938" />
    <path
       d="m 109.77718,131.6526 -0.5043,-1.25 0,5 0.5043,-1.25 0.5044,-1.25 z"
       id="path5936" />
    <path
       d="m 129.11498,132.9026 0,-2 -9,0 -9,0 0,2 0,2 9,0 9,0 z"
       id="path5934" />
    <path
       d="m 130.77718,131.6526 -0.5043,-1.25 0,5 0.5043,-1.25 0.5044,-1.25 z"
       id="path5932" />
    <path
       d="m 151.11498,132.9026 0,-2 -9.5,0 -9.5,0 0,2 0,2 9.5,0 9.5,0 z"
       id="path5930" />
    <path
       d="m 152.77718,131.6526 -0.5043,-1.25 0,5 0.5043,-1.25 0.5044,-1.25 z"
       id="path5928" />
    <path
       d="m 174.11498,132.9026 0,-2 -20,0 0,2 0,2 20,0 z"
       id="path5926" />
    <path
       d="m 175.77718,131.6526 -0.5043,-1.25 0,5 0.5043,-1.25 0.5044,-1.25 z"
       id="path5924" />
    <path
       d="m 251.11498,132.9026 0,-2 -36.9064,0 -36.9064,0 0.523,2 0.523,2 36.3834,0 36.3834,0 z"
       id="path5922" />
    <path
       d="m 326.11498,132.9026 0,-2 -37,0 -37,0 0,2 0,2 37,0 37,0 z"
       id="path5920" />
    <path
       d="m 329.11498,132.9026 0,-2 -1,0 -1,0 0,2 0,2 1,0 1,0 z"
       id="path5918" />
    <path
       d="m 350.11498,132.9026 0,-2 -20,0 0,2 0,2 20,0 z"
       id="path5916" />
    <path
       d="m 351.77718,131.6526 -0.5043,-1.25 0,5 0.5043,-1.25 0.5044,-1.25 z"
       id="path5914" />
    <path
       d="m 371.11495,132.9026 0,-2 -8.99997,0 -9,0 0,2 0,2 9,0 8.99997,0 z"
       id="path5912" />
    <path
       d="m 372.77715,131.6526 -0.5043,-1.25 0,5 0.5043,-1.25 0.5044,-1.25 z"
       id="path5910" />
    <path
       d="m 393.11495,132.9026 0,-2 -9.5,0 -9.5,0 0,2 0,2 9.5,0 9.5,0 z"
       id="path5908" />
    <path
       d="m 394.77715,131.6526 -0.5043,-1.25 0,5 0.5043,-1.25 0.5044,-1.25 z"
       id="path5906" />
    <path
       d="m 414.11495,132.9026 0,-2 -9,0 -9,0 0,2 0,2 9,0 9,0 z"
       id="path5904" />
    <path
       d="m 415.77715,131.6526 -0.5043,-1.25 0,5 0.5043,-1.25 0.5044,-1.25 z"
       id="path5902" />
    <path
       d="m 431.11495,134.48439 c 0,-0.23002 0.2731,-1.13002 0.607,-2 l 0.6069,-1.58179 -7.6069,0 -7.607,0 0,2 0,2 7,0 c 3.85,0 7,-0.1882 7,-0.41821 z"
       id="path5900" />
    <path
       d="m 85.114974,127.4026 0,-2.5 -8,0 -8,0 0,0.91821 c 0,0.50502 0.2731,1.63002 0.6069,2.5 l 0.607,1.58179 7.393,0 7.3931,0 z"
       id="path5898" />
    <path
       d="m 104.11498,127.4026 0,-2.5 -9.000004,0 -9.000002,0 0,5 9.000002,0 9.000004,0 z"
       id="path5896" />
    <path
       d="m 105.80798,126.17163 -0.461,-1.76903 -0.037,3 -0.037,3 0.498,-1.23097 c 0.2739,-0.67703 0.2906,-2.02703 0.037,-3 z"
       id="path5894" />
    <path
       d="m 126.11498,127.4026 0,-2.5 -9.5,0 -9.5,0 0,5 9.5,0 9.5,0 z"
       id="path5892" />
    <path
       d="m 127.80798,126.17163 -0.461,-1.76903 -0.037,3 -0.037,3 0.498,-1.23097 c 0.2739,-0.67703 0.2906,-2.02703 0.037,-3 z"
       id="path5890" />
    <path
       d="m 147.11498,127.4026 0,-2.5 -9,0 -9,0 0,5 9,0 9,0 z"
       id="path5888" />
    <path
       d="m 148.80798,126.17163 -0.461,-1.76903 -0.037,3 -0.037,3 0.498,-1.23097 c 0.2739,-0.67703 0.2906,-2.02703 0.037,-3 z"
       id="path5886" />
    <path
       d="m 172.93448,127.6526 -0.3195,-2.25 -11.25,-0.28275 -11.25,-0.28275 0,2.53275 0,2.53275 11.5695,0 11.5696,0 z"
       id="path5884" />
    <path
       d="m 174.80798,126.17163 -0.461,-1.76903 -0.037,3 -0.037,3 0.498,-1.23097 c 0.2739,-0.67703 0.2906,-2.02703 0.037,-3 z"
       id="path5882" />
    <path
       d="m 251.11498,127.4026 0,-2.5 -37.607,0 -37.607,0 0.607,1.58179 c 0.3338,0.86998 0.607,1.99498 0.607,2.5 l 0,0.91821 37,0 37,0 z"
       id="path5880" />
    <path
       d="m 327.11498,127.4026 0,-2.5 -37.5,0 -37.5,0 0,5 37.5,0 37.5,0 z"
       id="path5878" />
    <path
       d="m 330.11498,127.4026 0,-2.5 -1,0 -1,0 0,5 1,0 1,0 z"
       id="path5876" />
    <path
       d="m 354.11498,127.4026 0,-2.5 -11.5,0 -11.5,0 0,5 11.5,0 11.5,0 z"
       id="path5874" />
    <path
       d="m 375.11495,127.4026 0,-2.5 -9.49997,0 -9.5,0 0,5 9.5,0 9.49997,0 z"
       id="path5872" />
    <path
       d="m 376.80795,126.17163 -0.461,-1.76903 -0.037,3 -0.037,3 0.498,-1.23097 c 0.2739,-0.67703 0.2906,-2.02703 0.037,-3 z"
       id="path5870" />
    <path
       d="m 397.11495,127.4026 0,-2.5 -9.5,0 -9.5,0 0,5 9.5,0 9.5,0 z"
       id="path5868" />
    <path
       d="m 418.11495,127.4026 0,-2.5 -9.5,0 -9.5,0 0,5 9.5,0 9.5,0 z"
       id="path5866" />
    <path
       d="m 434.07975,127.96834 c 0.5693,-1.06384 1.0352,-2.18884 1.0352,-2.5 l 0,-0.56574 -8,0 -8,0 0,5 6.9648,0 6.9648,0 z"
       id="path5864" />
    <path
       d="m 79.114974,121.9026 0,-2 -6.5352,0 -6.5352,0 1.0704,2 1.0703,2 5.4648,0 5.4649,0 z"
       id="path5862" />
    <path
       d="m 80.777174,120.6526 -0.5043,-1.25 0,5 0.5043,-1.25 0.5044,-1.25 z"
       id="path5860" />
    <path
       d="m 101.11498,121.9026 0,-2 -9.500006,0 -9.5,0 0,2 0,2 9.5,0 9.500006,0 z"
       id="path5858" />
    <path
       d="m 122.11498,121.9026 0,-2 -9.5,0 -9.5,0 0,2 0,2 9.5,0 9.5,0 z"
       id="path5856" />
    <path
       d="m 123.77718,120.6526 -0.5043,-1.25 0,5 0.5043,-1.25 0.5044,-1.25 z"
       id="path5854" />
    <path
       d="m 144.11498,121.9026 0,-2 -9.5,0 -9.5,0 0,2 0,2 9.5,0 9.5,0 z"
       id="path5852" />
    <path
       d="m 171.92598,122.1526 -0.3356,-1.75 -12.7377,-0.27988 -12.7377,-0.27987 0,2.02987 0,2.02988 13.0733,0 13.0733,0 z"
       id="path5850" />
    <path
       d="m 173.77718,120.6526 -0.5043,-1.25 0,5 0.5043,-1.25 0.5044,-1.25 z"
       id="path5848" />
    <path
       d="m 251.11498,121.9026 0,-2 -38,0 c -20.9,0 -38,0.1882 -38,0.41821 0,0.23002 0.2731,1.13002 0.607,2 l 0.6069,1.58179 37.3931,0 37.393,0 z"
       id="path5846" />
    <path
       d="m 328.11498,121.9026 0,-2 -38,0 -38,0 0,2 0,2 38,0 38,0 z"
       id="path5844" />
    <path
       d="m 331.11498,121.9026 0,-2 -1,0 -1,0 0,2 0,2 1,0 1,0 z"
       id="path5842" />
    <path
       d="m 357.11498,121.9026 0,-2 -12.5,0 -12.5,0 0,2 0,2 12.5,0 12.5,0 z"
       id="path5840" />
    <path
       d="m 358.77718,120.6526 -0.5043,-1.25 0,5 0.5043,-1.25 0.5044,-1.25 z"
       id="path5838" />
    <path
       d="m 379.11495,121.9026 0,-2 -9.5,0 -9.49997,0 0,2 0,2 9.49997,0 9.5,0 z"
       id="path5836" />
    <path
       d="m 400.11495,121.9026 0,-2 -9.5,0 -9.5,0 0,2 0,2 9.5,0 9.5,0 z"
       id="path5834" />
    <path
       d="m 401.77715,120.6526 -0.5043,-1.25 0,5 0.5043,-1.25 0.5044,-1.25 z"
       id="path5832" />
    <path
       d="m 422.11495,121.9026 0,-2 -9.5,0 -9.5,0 0,2 0,2 9.5,0 9.5,0 z"
       id="path5830" />
    <path
       d="m 436.11495,123.48439 c 0,-0.23002 0.2731,-1.13002 0.607,-2 l 0.6069,-1.58179 -6.6069,0 -6.607,0 0,2 0,2 6,0 c 3.3,0 6,-0.1882 6,-0.41821 z"
       id="path5828" />
    <path
       d="m 438.79805,121.7151 -0.5252,-1.3125 -0.079,1.91667 -0.079,1.91666 0.6041,-0.60416 0.6042,-0.60417 -0.5252,-1.3125 z"
       id="path5826" />
    <path
       d="m 62.798074,116.7151 -0.5252,-1.3125 -0.079,1.91667 -0.079,1.91666 0.6041,-0.60416 0.6042,-0.60417 -0.5252,-1.3125 z"
       id="path5824" />
    <path
       d="m 76.114974,116.4026 0,-2.5 -6,0 -6,0 0,0.91821 c 0,0.50502 0.2731,1.63002 0.6069,2.5 l 0.607,1.58179 5.393,0 5.3931,0 z"
       id="path5822" />
    <path
       d="m 97.114976,116.4026 0,-2.5 -9.500002,0 -9.5,0 0,5 9.5,0 9.500002,0 z"
       id="path5820" />
    <path
       d="m 98.807976,115.17163 -0.461,-1.76903 -0.037,3 -0.037,3 0.498,-1.23097 c 0.2739,-0.67703 0.2906,-2.02703 0.037,-3 z"
       id="path5818" />
    <path
       d="m 119.11498,116.4026 0,-2.5 -9.5,0 -9.5,0 0,5 9.5,0 9.5,0 z"
       id="path5816" />
    <path
       d="m 140.11498,116.4026 0,-2.5 -9.5,0 -9.5,0 0,5 9.5,0 9.5,0 z"
       id="path5814" />
    <path
       d="m 141.80798,115.17163 -0.461,-1.76903 -0.037,3 -0.037,3 0.498,-1.23097 c 0.2739,-0.67703 0.2906,-2.02703 0.037,-3 z"
       id="path5812" />
    <path
       d="m 171.11498,117.98439 c 0,-0.50502 -0.2732,-1.63002 -0.607,-2.5 l -0.607,-1.58179 -13.393,0 -13.393,0 0,5 14,0 14,0 z"
       id="path5810" />
    <path
       d="m 172.80798,115.17163 -0.461,-1.76903 -0.037,3 -0.037,3 0.498,-1.23097 c 0.2739,-0.67703 0.2906,-2.02703 0.037,-3 z"
       id="path5808" />
    <path
       d="m 251.11498,116.4026 0,-2.5 -38.5,0 -38.5,0 0,0.91821 c 0,0.50502 0.2731,1.63002 0.607,2.5 l 0.6069,1.58179 37.8931,0 37.893,0 z"
       id="path5806" />
    <path
       d="m 329.11498,116.4026 0,-2.5 -38.5,0 -38.5,0 0,5 38.5,0 38.5,0 z"
       id="path5804" />
    <path
       d="m 332.11498,116.4026 0,-2.5 -1,0 -1,0 0,5 1,0 1,0 z"
       id="path5802" />
    <path
       d="m 361.11498,116.4026 0,-2.5 -14,0 -14,0 0,5 14,0 14,0 z"
       id="path5800" />
    <path
       d="m 362.80798,115.17163 -0.461,-1.76903 -0.037,3 -0.037,3 0.498,-1.23097 c 0.2739,-0.67703 0.2906,-2.02703 0.037,-3 z"
       id="path5798" />
    <path
       d="m 382.11495,116.4026 0,-2.5 -9,0 -8.99997,0 0,5 8.99997,0 9,0 z"
       id="path5796" />
    <path
       d="m 383.80795,115.17163 -0.461,-1.76903 -0.037,3 -0.037,3 0.498,-1.23097 c 0.2739,-0.67703 0.2906,-2.02703 0.037,-3 z"
       id="path5794" />
    <path
       d="m 404.11495,116.4026 0,-2.5 -9.5,0 -9.5,0 0,5 9.5,0 9.5,0 z"
       id="path5792" />
    <path
       d="m 405.80795,115.17163 -0.461,-1.76903 -0.037,3 -0.037,3 0.498,-1.23097 c 0.2739,-0.67703 0.2906,-2.02703 0.037,-3 z"
       id="path5790" />
    <path
       d="m 425.11495,116.4026 0,-2.5 -9,0 -9,0 0,5 9,0 9,0 z"
       id="path5788" />
    <path
       d="m 426.80795,115.17163 -0.461,-1.76903 -0.037,3 -0.037,3 0.498,-1.23097 c 0.2739,-0.67703 0.2906,-2.02703 0.037,-3 z"
       id="path5786" />
    <path
       d="m 439.07975,116.96834 c 0.5693,-1.06384 1.0352,-2.18884 1.0352,-2.5 l 0,-0.56574 -6,0 -6,0 0,5 4.9648,0 4.9648,0 z"
       id="path5784" />
    <path
       d="m 72.114974,110.4026 0,-2.5 -5.607,0 -5.607,0 0.607,1.58179 c 0.3338,0.86998 0.607,1.99498 0.607,2.5 l 0,0.91821 5,0 5,0 z"
       id="path5782" />
    <path
       d="m 73.807974,109.17163 -0.461,-1.76903 -0.037,3 -0.037,3 0.498,-1.23097 c 0.2739,-0.67703 0.2906,-2.02703 0.037,-3 z"
       id="path5780" />
    <path
       d="m 93.114974,110.4026 0,-2.5 -9,0 -9,0 0,5 9,0 9,0 z"
       id="path5778" />
    <path
       d="m 94.807976,109.17163 -0.461,-1.76903 -0.037,3 -0.037,3 0.498,-1.23097 c 0.2739,-0.67703 0.2906,-2.02703 0.037,-3 z"
       id="path5776" />
    <path
       d="m 115.11498,110.4026 0,-2.5 -9.5,0 -9.500004,0 0,5 9.500004,0 9.5,0 z"
       id="path5774" />
    <path
       d="m 116.80798,109.17163 -0.461,-1.76903 -0.037,3 -0.037,3 0.498,-1.23097 c 0.2739,-0.67703 0.2906,-2.02703 0.037,-3 z"
       id="path5772" />
    <path
       d="m 136.11498,110.4026 0,-2.5 -9,0 -9,0 0,5 9,0 9,0 z"
       id="path5770" />
    <path
       d="m 137.80798,109.17163 -0.461,-1.76903 -0.037,3 -0.037,3 0.498,-1.23097 c 0.2739,-0.67703 0.2906,-2.02703 0.037,-3 z"
       id="path5768" />
    <path
       d="m 169.72198,111.32081 c -0.3339,-0.86998 -0.607,-1.99498 -0.607,-2.5 l 0,-0.91821 -15,0 -15,0 0,5 15.607,0 15.6069,0 z"
       id="path5766" />
    <path
       d="m 171.33288,108.72056 -0.9696,-0.96961 0.5762,2.82583 0.5761,2.82582 0.3935,-1.85622 0.3934,-1.85622 z"
       id="path5764" />
    <path
       d="m 251.11498,110.4026 0,-2.5 -39,0 -39,0 0,0.91821 c 0,0.50502 0.2731,1.63002 0.607,2.5 l 0.6069,1.58179 38.3931,0 38.393,0 z"
       id="path5762" />
    <path
       d="m 330.35968,110.4026 0.4779,-2.5 -39.3613,0 -39.3613,0 0,5 38.8834,0 38.8834,0 z"
       id="path5760" />
    <path
       d="m 333.11498,110.3436 0,-2.55901 -1,0.61803 -1,0.61803 0,1.94099 0,1.94098 1,0 1,0 z"
       id="path5758" />
    <path
       d="m 364.11498,110.3759 0,-2.52674 -14.75,0.27674 -14.75,0.27673 -0.3196,2.25 -0.3195,2.25 15.0695,0 15.0696,0 z"
       id="path5756" />
    <path
       d="m 365.80798,109.17166 -0.461,-1.76903 -0.037,3 -0.037,3 0.498,-1.23097 c 0.2739,-0.67703 0.2906,-2.02703 0.037,-3 z"
       id="path5754" />
    <path
       d="m 386.11495,110.4026 0,-2.5 -9.5,0 -9.5,0 0,5 9.5,0 9.5,0 z"
       id="path5752" />
    <path
       d="m 387.80795,109.17163 -0.461,-1.76903 -0.037,3 -0.037,3 0.498,-1.23097 c 0.2739,-0.67703 0.2906,-2.02703 0.037,-3 z"
       id="path5750" />
    <path
       d="m 407.11495,110.4026 0,-2.5 -9,0 -9,0 0,5 9,0 9,0 z"
       id="path5748" />
    <path
       d="m 408.80795,109.17163 -0.461,-1.76903 -0.037,3 -0.037,3 0.498,-1.23097 c 0.2739,-0.67703 0.2906,-2.02703 0.037,-3 z"
       id="path5746" />
    <path
       d="m 429.11495,110.4026 0,-2.5 -9.5,0 -9.5,0 0,5 9.5,0 9.5,0 z"
       id="path5744" />
    <path
       d="m 430.80795,109.17163 -0.461,-1.76903 -0.037,3 -0.037,3 0.498,-1.23097 c 0.2739,-0.67703 0.2906,-2.02703 0.037,-3 z"
       id="path5742" />
    <path
       d="m 441.50795,111.32081 c 0.3338,-0.86998 0.607,-1.99498 0.607,-2.5 l 0,-0.91821 -5,0 -5,0 0,5 4.393,0 4.393,0 z"
       id="path5740" />
    <path
       d="m 443.79805,110.7151 -0.5252,-1.3125 -0.079,1.91667 -0.079,1.91666 0.6041,-0.60416 0.6042,-0.60417 -0.5252,-1.3125 z"
       id="path5738" />
    <path
       d="m 57.781574,105.23592 -0.6666,-0.66666 0,1.33333 0,1.33334 0.6666,-0.66667 0.6667,-0.66667 z"
       id="path5736" />
    <path
       d="m 68.114974,104.90259 0,-2 -9,0 0,1.33333 c 0,2.1159 1.0671,2.66668 5.1666,2.66668 l 3.8334,0 z"
       id="path5734" />
    <path
       d="m 69.777174,103.65259 -0.5043,-1.25 0,2.5 0,2.50001 0.5043,-1.25001 0.5044,-1.25 z"
       id="path5732" />
    <path
       d="m 90.114974,104.90259 0,-2 -9.5,0 -9.5,0 0,2 0,2.00001 9.5,0 9.5,0 z"
       id="path5730" />
    <path
       d="m 91.777174,103.65259 -0.5043,-1.25 0,2.5 0,2.50001 0.5043,-1.25001 0.5044,-1.25 z"
       id="path5728" />
    <path
       d="m 111.11498,104.90259 0,-2 -9,0 -9.000006,0 0,2 0,2.00001 9.000006,0 9,0 z"
       id="path5726" />
    <path
       d="m 133.11498,104.90259 0,-2 -21,0 0,2 0,2.00001 21,0 z"
       id="path5724" />
    <path
       d="m 134.77718,103.65259 -0.5043,-1.25 0,2.5 0,2.50001 0.5043,-1.25001 0.5044,-1.25 z"
       id="path5722" />
    <path
       d="m 168.40468,104.90259 -0.523,-2 -15.8834,0 -15.8833,0 0,2 0,2.00001 16.4063,0 16.4064,0 z"
       id="path5720" />
    <path
       d="m 170.28338,103.67104 -1.0565,-1.05655 0.6193,2.36826 0.6193,2.36827 0.4372,-1.31172 0.4373,-1.31171 z"
       id="path5718" />
    <path
       d="m 251.11498,104.90259 0,-2 -39.5,0 -39.5,0 0,1.33333 c 0,0.73334 0.3,1.63334 0.6666,2 l 0.6667,0.66668 38.8333,0 38.8334,0 z"
       id="path5716" />
    <path
       d="m 331.40468,104.90259 0.523,-2 -39.9064,0 -39.9063,0 0,2 0,2.00001 39.3833,0 39.3834,0 z"
       id="path5714" />
    <path
       d="m 334.11498,104.84359 0,-2.05901 -1,0.61803 c -0.55,0.33992 -1,1.26647 -1,2.05902 l 0,1.44099 1,0 1,0 z"
       id="path5712" />
    <path
       d="m 368.11495,104.87789 0,-2.02477 -16.23727,0.27477 -16.2373,0.27477 -0.336,1.75 -0.3361,1.75001 16.5733,0 16.57337,0 z"
       id="path5710" />
    <path
       d="m 369.77715,103.65266 -0.5043,-1.25 0,2.5 0,2.50001 0.5043,-1.25001 0.5044,-1.25 z"
       id="path5708" />
    <path
       d="m 391.11495,104.90266 0,-2 -20,0 0,2 0,2.00001 20,0 z"
       id="path5706" />
    <path
       d="m 411.11495,104.90266 0,-2 -9.5,0 -9.5,0 0,2 0,2.00001 9.5,0 9.5,0 z"
       id="path5704" />
    <path
       d="m 412.77715,103.65266 -0.5043,-1.25 0,2.5 0,2.50001 0.5043,-1.25001 0.5044,-1.25 z"
       id="path5702" />
    <path
       d="m 433.11495,104.90266 0,-2 -9.5,0 -9.5,0 0,2 0,2.00001 9.5,0 9.5,0 z"
       id="path5700" />
    <path
       d="m 444.11495,106.48445 c 0,-0.23002 0.2731,-1.13002 0.607,-2.00001 l 0.6069,-1.58178 -5.1069,0 -5.107,0 0,2 0,2.00001 4.5,0 c 2.475,0 4.5,-0.1882 4.5,-0.41822 z"
       id="path5698" />
    <path
       d="m 65.114974,99.40266 0,-2.5 -9,0 0,0.918213 c 0,0.505016 0.2731,1.630016 0.6069,2.499997 l 0.607,1.58179 3.893,0 3.8931,0 z"
       id="path5696" />
    <path
       d="m 86.114974,99.40266 0,-2.5 -9.5,0 -9.5,0 0,5 9.5,0 9.5,0 z"
       id="path5694" />
    <path
       d="m 87.807974,98.171692 -0.461,-1.769032 -0.037,3 -0.037,3 0.498,-1.23097 c 0.2739,-0.67703 0.2906,-2.027031 0.037,-2.999998 z"
       id="path5692" />
    <path
       d="m 108.11498,99.40266 0,-2.5 -9.500004,0 -9.500002,0 0,5 9.500002,0 9.500004,0 z"
       id="path5690" />
    <path
       d="m 129.11498,99.40266 0,-2.5 -9.5,0 -9.5,0 0,5 9.5,0 9.5,0 z"
       id="path5688" />
    <path
       d="m 130.80798,98.171692 -0.461,-1.769032 -0.037,3 -0.037,3 0.498,-1.23097 c 0.2739,-0.67703 0.2906,-2.027031 0.037,-2.999998 z"
       id="path5686" />
    <path
       d="m 151.11498,99.40266 0,-2.5 -9.5,0 -9.5,0 0,5 9.5,0 9.5,0 z"
       id="path5684" />
    <path
       d="m 167.35968,99.40266 -0.4779,-2.5 -6.8834,0 -6.8834,0 0,5 7.3613,0 7.3613,0 z"
       id="path5682" />
    <path
       d="m 169.33288,97.720618 -0.9696,-0.969603 0.5762,2.825822 0.5761,2.825823 0.3935,-1.85622 0.3934,-1.85622 z"
       id="path5680" />
    <path
       d="m 251.11498,99.40266 0,-2.5 -40,0 -40,0 0,1.833333 c 0,1.008334 0.3,2.133337 0.6666,2.499997 l 0.6667,0.66667 39.3333,0 39.3334,0 z"
       id="path5678" />
    <path
       d="m 332.35968,99.40266 0.4779,-2.5 -40.3613,0 -40.3613,0 0,5 39.8834,0 39.8834,0 z"
       id="path5676" />
    <path
       d="m 335.36728,99.36302 0.4855,-2.539635 -1.1189,0.367963 -1.1189,0.367963 -0.3196,2.171672 -0.3195,2.171677 0.9529,0 0.953,0 z"
       id="path5674" />
    <path
       d="m 350.11498,99.35692 0,-2.54569 -6.75,0.29569 -6.75,0.29569 -0.3196,2.25 -0.3195,2.25 7.0695,0 7.0696,0 z"
       id="path5672" />
    <path
       d="m 351.80798,98.171642 -0.461,-1.769032 -0.037,3 -0.037,3 0.498,-1.23097 c 0.2739,-0.67703 0.2906,-2.027031 0.037,-2.999998 z"
       id="path5670" />
    <path
       d="m 372.11495,99.40261 0,-2.5 -9.49997,0 -9.5,0 0,5 9.5,0 9.49997,0 z"
       id="path5668" />
    <path
       d="m 393.11495,99.40261 0,-2.5 -9.5,0 -9.5,0 0,5 9.5,0 9.5,0 z"
       id="path5666" />
    <path
       d="m 394.80795,98.171642 -0.461,-1.769032 -0.037,3 -0.037,3 0.498,-1.23097 c 0.2739,-0.67703 0.2906,-2.027031 0.037,-2.999998 z"
       id="path5664" />
    <path
       d="m 415.11495,99.40261 0,-2.5 -9.5,0 -9.5,0 0,5 9.5,0 9.5,0 z"
       id="path5662" />
    <path
       d="m 436.11495,99.40261 0,-2.5 -9.5,0 -9.5,0 0,5 9.5,0 9.5,0 z"
       id="path5660" />
    <path
       d="m 437.80795,98.171642 -0.461,-1.769032 -0.037,3 -0.037,3 0.498,-1.23097 c 0.2739,-0.67703 0.2906,-2.027031 0.037,-2.999998 z"
       id="path5658" />
    <path
       d="m 447.22445,99.15261 0.826,-2.25 -4.4678,0 -4.4677,0 0,2.560365 0,2.560365 3.6417,-0.31036 3.6418,-0.31037 z"
       id="path5656" />
    <path
       d="m 61.114974,93.90261 0,-2 -4.0352,0 -4.0352,0 1.0704,2 1.0703,2 2.9648,0 2.9649,0 z"
       id="path5654" />
    <path
       d="m 62.777174,92.65261 -0.5043,-1.25 0,5 0.5043,-1.25 0.5044,-1.25 z"
       id="path5652" />
    <path
       d="m 83.114974,93.90261 0,-2 -9.5,0 -9.5,0 0,2 0,2 9.5,0 9.5,0 z"
       id="path5650" />
    <path
       d="m 104.11498,93.90261 0,-2 -9.500004,0 -9.500002,0 0,2 0,2 9.500002,0 9.500004,0 z"
       id="path5648" />
    <path
       d="m 105.77718,92.65261 -0.5043,-1.25 0,5 0.5043,-1.25 0.5044,-1.25 z"
       id="path5646" />
    <path
       d="m 126.11498,93.90261 0,-2 -9.5,0 -9.5,0 0,2 0,2 9.5,0 9.5,0 z"
       id="path5644" />
    <path
       d="m 147.11498,93.90261 0,-2 -9.5,0 -9.5,0 0,2 0,2 9.5,0 9.5,0 z"
       id="path5642" />
    <path
       d="m 148.77718,92.65261 -0.5043,-1.25 0,5 0.5043,-1.25 0.5044,-1.25 z"
       id="path5640" />
    <path
       d="m 166.11498,93.90261 0,-2 -8,0 -8,0 0,2 0,2 8,0 8,0 z"
       id="path5638" />
    <path
       d="m 168.28338,92.67106 -1.0565,-1.056551 0.6193,2.36826 0.6193,2.36826 0.4372,-1.311709 0.4373,-1.31171 z"
       id="path5636" />
    <path
       d="m 251.11498,93.90261 0,-2 -40.5,0 -40.5,0 0,2 0,2 40.5,0 40.5,0 z"
       id="path5634" />
    <path
       d="m 333.40468,93.90261 0.523,-2 -40.9064,0 -40.9063,0 0,2 0,2 40.3833,0 40.3834,0 z"
       id="path5632" />
    <path
       d="m 336.11498,93.84359 0,-2.059017 -1,0.618034 c -0.55,0.339919 -1,1.266476 -1,2.059017 l 0,1.440983 1,0 1,0 z"
       id="path5630" />
    <path
       d="m 354.11498,93.86216 0,-2.040443 -8.239,0.290443 -8.2389,0.290442 -0.3344,1.75 -0.3344,1.75 8.5733,0 8.5734,0 z"
       id="path5628" />
    <path
       d="m 355.77718,92.652602 -0.5043,-1.25 0,5 0.5043,-1.25 0.5044,-1.25 z"
       id="path5626" />
    <path
       d="m 375.11495,93.902607 0,-2 -9,0 -8.99997,0 0,2 0,2 8.99997,0 9,0 z"
       id="path5624" />
    <path
       d="m 376.77715,92.652607 -0.5043,-1.25 0,5 0.5043,-1.25 0.5044,-1.25 z"
       id="path5622" />
    <path
       d="m 397.11495,93.902607 0,-2 -9.5,0 -9.5,0 0,2 0,2 9.5,0 9.5,0 z"
       id="path5620" />
    <path
       d="m 398.77715,92.652607 -0.5043,-1.25 0,5 0.5043,-1.25 0.5044,-1.25 z"
       id="path5618" />
    <path
       d="m 418.11495,93.902607 0,-2 -9,0 -9,0 0,2 0,2 9,0 9,0 z"
       id="path5616" />
    <path
       d="m 419.77715,92.652607 -0.5043,-1.25 0,5 0.5043,-1.25 0.5044,-1.25 z"
       id="path5614" />
    <path
       d="m 440.11495,93.902607 0,-2 -9.5,0 -9.5,0 0,2 0,2 9.5,0 9.5,0 z"
       id="path5612" />
    <path
       d="m 441.77715,92.652607 -0.5043,-1.25 0,5 0.5043,-1.25 0.5044,-1.25 z"
       id="path5610" />
    <path
       d="m 449.11495,95.484394 c 0,-0.230016 0.2731,-1.130016 0.607,-2 l 0.6069,-1.581787 -3.6069,0 -3.607,0 0,2 0,2 3,0 c 1.65,0 3,-0.188196 3,-0.418213 z"
       id="path5608" />
    <path
       d="m 57.114974,88.402607 0,-2.5 -6,0 0,0.918213 c 0,0.505016 0.2731,1.630016 0.6069,2.5 l 0.607,1.581787 2.393,0 2.3931,0 z"
       id="path5606" />
    <path
       d="m 58.807974,87.171639 -0.461,-1.769032 -0.037,3 -0.037,3 0.498,-1.230968 c 0.2739,-0.677033 0.2906,-2.027033 0.037,-3 z"
       id="path5604" />
    <path
       d="m 79.114974,88.402607 0,-2.5 -9.5,0 -9.5,0 0,5 9.5,0 9.5,0 z"
       id="path5602" />
    <path
       d="m 80.807974,87.171639 -0.461,-1.769032 -0.037,3 -0.037,3 0.498,-1.230968 c 0.2739,-0.677033 0.2906,-2.027033 0.037,-3 z"
       id="path5600" />
    <path
       d="m 100.11498,88.402607 0,-2.5 -9.000006,0 -9,0 0,5 9,0 9.000006,0 z"
       id="path5598" />
    <path
       d="m 101.80798,87.171639 -0.461,-1.769032 -0.037,3 -0.037,3 0.498,-1.230968 c 0.2739,-0.677033 0.2906,-2.027033 0.037,-3 z"
       id="path5596" />
    <path
       d="m 122.11498,88.402607 0,-2.5 -9.5,0 -9.5,0 0,5 9.5,0 9.5,0 z"
       id="path5594" />
    <path
       d="m 123.80798,87.171639 -0.461,-1.769032 -0.037,3 -0.037,3 0.498,-1.230968 c 0.2739,-0.677033 0.2906,-2.027033 0.037,-3 z"
       id="path5592" />
    <path
       d="m 143.11498,88.402607 0,-2.5 -9,0 -9,0 0,5 9,0 9,0 z"
       id="path5590" />
    <path
       d="m 144.80798,87.171639 -0.461,-1.769032 -0.037,3 -0.037,3 0.498,-1.230968 c 0.2739,-0.677033 0.2906,-2.027033 0.037,-3 z"
       id="path5588" />
    <path
       d="m 165.11498,88.402607 0,-2.5 -9.5,0 -9.5,0 0,5 9.5,0 9.5,0 z"
       id="path5586" />
    <path
       d="m 167.11018,87.190283 -1.1462,-1.787676 0.5755,1.831787 c 0.3165,1.007484 0.611,2.357484 0.6544,3 l 0.079,1.168213 0.4918,-1.212324 0.4919,-1.212324 -1.1463,-1.787676 z"
       id="path5584" />
    <path
       d="m 251.11498,88.402607 0,-2.5 -41,0 -41,0 0,5 41,0 41,0 z"
       id="path5582" />
    <path
       d="m 334.11498,89.984394 c 0,-0.505016 0.2731,-1.630016 0.607,-2.5 l 0.6069,-1.581787 -41.6069,0 -41.607,0 0,5 41,0 41,0 z"
       id="path5580" />
    <path
       d="m 337.35968,88.402607 0.4779,-2.5 -0.7543,0 c -0.7794,0 -1.9683,2.465512 -1.9683,4.081787 0,0.505017 0.3975,0.918213 0.8834,0.918213 l 0.8834,0 z"
       id="path5578" />
    <path
       d="m 357.11498,88.402607 0,-2.5 -8.893,0 -8.8931,0 -0.6069,1.581787 c -0.3339,0.869984 -0.607,1.994984 -0.607,2.5 l 0,0.918213 9.5,0 9.5,0 z"
       id="path5576" />
    <path
       d="m 358.80798,87.171639 -0.461,-1.769032 -0.037,3 -0.037,3 0.498,-1.230968 c 0.2739,-0.677033 0.2906,-2.027033 0.037,-3 z"
       id="path5574" />
    <path
       d="m 379.11495,88.402607 0,-2.5 -9.5,0 -9.49997,0 0,5 9.49997,0 9.5,0 z"
       id="path5572" />
    <path
       d="m 380.80795,87.171639 -0.461,-1.769032 -0.037,3 -0.037,3 0.498,-1.230968 c 0.2739,-0.677033 0.2906,-2.027033 0.037,-3 z"
       id="path5570" />
    <path
       d="m 400.11495,88.402607 0,-2.5 -9,0 -9,0 0,5 9,0 9,0 z"
       id="path5568" />
    <path
       d="m 401.80795,87.171639 -0.461,-1.769032 -0.037,3 -0.037,3 0.498,-1.230968 c 0.2739,-0.677033 0.2906,-2.027033 0.037,-3 z"
       id="path5566" />
    <path
       d="m 422.11495,88.402607 0,-2.5 -9.5,0 -9.5,0 0,5 9.5,0 9.5,0 z"
       id="path5564" />
    <path
       d="m 423.80795,87.171639 -0.461,-1.769032 -0.037,3 -0.037,3 0.498,-1.230968 c 0.2739,-0.677033 0.2906,-2.027033 0.037,-3 z"
       id="path5562" />
    <path
       d="m 443.11495,88.402607 0,-2.5 -9,0 -9,0 0,5 9,0 9,0 z"
       id="path5560" />
    <path
       d="m 444.80795,87.171639 -0.461,-1.769032 -0.037,3 -0.037,3 0.498,-1.230968 c 0.2739,-0.677033 0.2906,-2.027033 0.037,-3 z"
       id="path5558" />
    <path
       d="m 452.22485,88.152607 0.8256,-2.25 -3.4678,0 -3.4677,0 0,2.566422 0,2.566423 2.6421,-0.316423 2.6421,-0.316422 z"
       id="path5556" />
    <path
       d="m 54.114974,82.902607 0,-2 -2.9064,0 -2.9064,0 0.52301,2 0.52299,2 2.3834,0 2.3834,0 z"
       id="path5554" />
    <path
       d="m 55.777174,81.652607 -0.5043,-1.25 0,5 0.5043,-1.25 0.5044,-1.25 z"
       id="path5552" />
    <path
       d="m 75.114974,82.902607 0,-2 -9,0 -9,0 0,2 0,2 9,0 9,0 z"
       id="path5550" />
    <path
       d="m 76.777174,81.652607 -0.5043,-1.25 0,5 0.5043,-1.25 0.5044,-1.25 z"
       id="path5548" />
    <path
       d="m 97.114976,82.902607 0,-2 -9.500002,0 -9.5,0 0,2 0,2 9.5,0 9.500002,0 z"
       id="path5546" />
    <path
       d="m 98.777176,81.652607 -0.5043,-1.25 0,5 0.5043,-1.25 0.5044,-1.25 z"
       id="path5544" />
    <path
       d="m 118.11498,82.902607 0,-2 -9,0 -9,0 0,2 0,2 9,0 9,0 z"
       id="path5542" />
    <path
       d="m 140.11498,82.902607 0,-2 -21,0 0,2 0,2 21,0 z"
       id="path5540" />
    <path
       d="m 164.11498,82.902607 0,-2 -11.5,0 -11.5,0 0,2 0,2 11.5,0 11.5,0 z"
       id="path5538" />
    <path
       d="m 166.28338,81.671057 -1.0565,-1.056551 0.6193,2.36826 0.6193,2.36826 0.4372,-1.311709 0.4373,-1.31171 z"
       id="path5536" />
    <path
       d="m 251.11498,82.902607 0,-2 -41.5,0 -41.5,0 0,2 0,2 41.5,0 41.5,0 z"
       id="path5534" />
    <path
       d="m 335.40468,82.902607 0.523,-2 -41.9064,0 -41.9063,0 0,2 0,2 41.3833,0 41.3834,0 z"
       id="path5532" />
    <path
       d="m 338.41958,82.845497 0.538,-2.057104 -1.1713,0.389971 -1.1713,0.389976 -0.3234,1.667133 -0.3233,1.667134 0.9567,0 0.9567,0 z"
       id="path5530" />
    <path
       d="m 363.11498,82.870867 0,-2.031736 -11.738,0.281736 -11.7379,0.281735 -0.3354,1.75 -0.3354,1.75 12.0733,0 12.0734,0 z"
       id="path5528" />
    <path
       d="m 384.11495,82.902607 0,-2 -10,0 -9.99997,0 0,2 0,2 9.99997,0 10,0 z"
       id="path5526" />
    <path
       d="m 404.11495,82.902607 0,-2 -9.5,0 -9.5,0 0,2 0,2 9.5,0 9.5,0 z"
       id="path5524" />
    <path
       d="m 405.77715,81.652607 -0.5043,-1.25 0,5 0.5043,-1.25 0.5044,-1.25 z"
       id="path5522" />
    <path
       d="m 425.11495,82.902607 0,-2 -9,0 -9,0 0,2 0,2 9,0 9,0 z"
       id="path5520" />
    <path
       d="m 426.77715,81.652607 -0.5043,-1.25 0,5 0.5043,-1.25 0.5044,-1.25 z"
       id="path5518" />
    <path
       d="m 447.11495,82.902607 0,-2 -9.5,0 -9.5,0 0,2 0,2 9.5,0 9.5,0 z"
       id="path5516" />
    <path
       d="m 448.77715,81.652607 -0.5043,-1.25 0,5 0.5043,-1.25 0.5044,-1.25 z"
       id="path5514" />
    <path
       d="m 454.11495,84.484394 c 0,-0.230016 0.2731,-1.130016 0.607,-2 l 0.6069,-1.581787 -2.6069,0 -2.607,0 0,2 0,2 2,0 c 1.1,0 2,-0.188196 2,-0.418213 z"
       id="path5512" />
    <path
       d="m 78.114974,77.402537 0,-2.5 -21,0 0,5 21,0 z"
       id="path5508" />
    <path
       d="m 99.114976,77.402537 0,-2.5 -10.000002,0 -10,0 0,5 10,0 10.000002,0 z"
       id="path5506" />
    <path
       d="m 121.11498,77.402537 0,-2.5 -21,0 0,5 21,0 z"
       id="path5504" />
    <path
       d="m 142.11498,77.402537 0,-2.5 -20,0 0,5 20,0 z"
       id="path5502" />
    <path
       d="m 163.11498,77.402537 0,-2.5 -20,0 0,5 20,0 z"
       id="path5500" />
    <path
       d="m 165.79808,77.715037 -0.5252,-1.3125 -0.079,1.916667 -0.079,1.916666 0.6041,-0.604166 0.6042,-0.604167 -0.5252,-1.3125 z"
       id="path5498" />
    <path
       d="m 185.11498,77.402537 0,-2.5 -9.3614,0 -9.3613,0 0.4779,2.5 0.4779,2.5 8.8834,0 8.8835,0 z"
       id="path5496" />
    <path
       d="m 219.14668,56.902536 31.9683,0 0,-1.5 0,-1.5 -44.4372,0 -44.4371,0 0.4198,3.75 0.4197,3.75 -0.8667,-3.300746 c -0.4767,-1.81541 -1.1485,-3.582598 -1.493,-3.927083 l -0.6264,-0.626338 0.648,3.427084 c 0.3563,1.884896 1.0158,4.102083 1.4654,4.927083 l 0.8174,1.500001 0.67,-3.250001 0.6701,-3.25 10.875,0 10.875,0 0.215,11.750001 0.215,11.75 0.3167,-11.75 0.3167,-11.750001 z"
       id="path5494" />
    <path
       d="m 208.11498,77.402537 0,-2.5 -20,0 0,5 20,0 z"
       id="path5492" />
    <path
       d="m 230.11498,77.402537 0,-2.5 -21,0 0,5 21,0 z"
       id="path5490" />
    <path
       d="m 251.11498,77.402537 0,-2.5 -20,0 0,5 20,0 z"
       id="path5488" />
    <path
       d="m 273.11498,77.402537 0,-2.5 -21,0 0,5 21,0 z"
       id="path5486" />
    <path
       d="m 294.11498,77.402537 0,-2.5 -20,0 0,5 20,0 z"
       id="path5484" />
    <path
       d="m 316.11498,77.402537 0,-2.5 -21,0 0,5 21,0 z"
       id="path5482" />
    <path
       d="m 336.11498,78.984324 c 0,-0.505016 0.2731,-1.630016 0.607,-2.5 l 0.6069,-1.581787 -9.6069,0 -9.607,0 0,5 9,0 9,0 z"
       id="path5480" />
    <path
       d="m 339.09968,77.152537 -0.015,-2.75 -0.9693,1.5 c -0.5332,0.825 -0.9763,2.0625 -0.9847,2.75 l -0.015,1.25 1,0 1,0 -0.015,-2.75 z"
       id="path5478" />
    <path
       d="m 360.11498,77.402537 0,-2.5 -9.393,0 -9.3931,0 -0.6069,1.581787 c -0.3339,0.869984 -0.607,1.994984 -0.607,2.5 l 0,0.918213 20,0 z"
       id="path5476" />
    <path
       d="m 382.11495,77.402537 0,-2.5 -10.5,0 -10.49997,0 0,5 10.49997,0 10.5,0 z"
       id="path5474" />
    <path
       d="m 403.11495,77.402537 0,-2.5 -20,0 0,5 20,0 z"
       id="path5472" />
    <path
       d="m 425.11495,77.402537 0,-2.5 -21,0 0,5 21,0 z"
       id="path5470" />
    <path
       d="m 446.11495,77.402537 0,-2.5 -20,0 0,5 20,0 z"
       id="path5468" />
    <path
       d="m 462.08185,66.652537 5.9143,-12.750001 -61.3336,0 -61.33367,0 -0.5756,1.5 -0.5756,1.5 51.46857,0 51.4687,0 0,11.554792 0,11.554791 4.5263,-0.304791 4.5263,-0.304791 z"
       id="path5466" />
    <path
       d="m 78.114974,71.402537 0,-2.5 -21,0 0,5 21,0 z"
       id="path5464" />
    <path
       d="m 99.114976,71.402537 0,-2.5 -10.000002,0 -10,0 0,5 10,0 10.000002,0 z"
       id="path5462" />
    <path
       d="m 121.11498,71.402537 0,-2.5 -21,0 0,5 21,0 z"
       id="path5460" />
    <path
       d="m 142.11498,71.402537 0,-2.5 -20,0 0,5 20,0 z"
       id="path5458" />
    <path
       d="m 161.93448,71.652537 -0.3195,-2.25 -9.25,-0.287526 -9.25,-0.287526 0,2.537526 0,2.537526 9.5695,0 9.5696,0 z"
       id="path5456" />
    <path
       d="m 185.11498,71.402537 0,-2.5 -10.107,0 -10.107,0 0.607,1.581787 c 0.3338,0.869984 0.607,1.994984 0.607,2.5 l 0,0.918213 9.5,0 9.5,0 z"
       id="path5454" />
    <path
       d="m 208.11498,71.402537 0,-2.5 -20,0 0,5 20,0 z"
       id="path5452" />
    <path
       d="m 230.11498,71.402537 0,-2.5 -21,0 0,5 21,0 z"
       id="path5450" />
    <path
       d="m 251.11498,71.402537 0,-2.5 -20,0 0,5 20,0 z"
       id="path5448" />
    <path
       d="m 273.11498,71.402537 0,-2.5 -21,0 0,5 21,0 z"
       id="path5446" />
    <path
       d="m 294.11498,71.402537 0,-2.5 -20,0 0,5 20,0 z"
       id="path5444" />
    <path
       d="m 316.11498,71.402537 0,-2.5 -21,0 0,5 21,0 z"
       id="path5442" />
    <path
       d="m 337.13028,72.652537 0.015,-1.25 1.079,1.5 1.079,1.5 -0.5943,-1.831787 c -0.3269,-1.007484 -0.5943,-2.244984 -0.5943,-2.75 l 0,-0.918213 -20,0 0,5 9.5,0 9.5,0 0.015,-1.25 z"
       id="path5440" />
    <path
       d="m 360.11498,71.402537 0,-2.5 -9,0 -9,0 0,0.918213 c 0,0.505016 -0.2732,1.630016 -0.607,2.5 l -0.607,1.581787 9.607,0 9.607,0 z"
       id="path5438" />
    <path
       d="m 382.11495,71.402537 0,-2.5 -10.5,0 -10.49997,0 0,5 10.49997,0 10.5,0 z"
       id="path5436" />
    <path
       d="m 403.11495,71.402537 0,-2.5 -20,0 0,5 20,0 z"
       id="path5434" />
    <path
       d="m 425.11495,71.402537 0,-2.5 -21,0 0,5 21,0 z"
       id="path5432" />
    <path
       d="m 446.11495,71.402537 0,-2.5 -20,0 0,5 20,0 z"
       id="path5430" />
    <path
       d="m 163.79808,69.715037 -0.5252,-1.3125 -0.079,1.916667 -0.079,1.916666 0.6041,-0.604166 0.6042,-0.604167 -0.5252,-1.3125 z"
       id="path5428" />
    <path
       d="m 340.78158,69.23587 -0.6666,-0.666666 0,1.333333 0,1.333333 0.6666,-0.666666 0.6667,-0.666667 z"
       id="path5426" />
    <path
       d="m 121.11498,65.902537 0,-2 -21,0 0,2 0,2 21,0 z"
       id="path5420" />
    <path
       d="m 142.11498,65.902537 0,-2 -20,0 0,2 0,2 20,0 z"
       id="path5418" />
    <path
       d="m 160.92698,66.152537 -0.24611,-2.059359 -8.79404,-0.07901 -8.77185,-0.189496 0,2.038933 0,2.038933 9.0733,0 9.0733,0 z"
       id="path5416" />
    <path
       d="m 163.39428,65.862874 c -0.2933,-1.121815 -0.7568,-1.816223 -1.0299,-1.543128 -0.541,0.540993 0.4146,3.582791 1.1256,3.582791 0.2407,0 0.1977,-0.917848 -0.096,-2.039663 z"
       id="path5414" />
    <path
       d="m 185.11498,65.902534 0,-2 -20,0 0,2 0,2 20,0 z"
       id="path5412" />
    <path
       d="m 208.11498,65.902534 0,-2 -20,0 0,2 0,2 20,0 z"
       id="path5410" />
    <path
       d="m 230.11498,65.902534 0,-2 -21,0 0,2 0,2 21,0 z"
       id="path5408" />
    <path
       d="m 251.11498,65.902534 0,-2 -20,0 0,2 0,2 20,0 z"
       id="path5406" />
    <path
       d="m 273.11498,65.902534 0,-2 -21,0 0,2 0,2 21,0 z"
       id="path5404" />
    <path
       d="m 294.11498,65.902534 0,-2 -20,0 0,2 0,2 20,0 z"
       id="path5402" />
    <path
       d="m 316.11498,65.902534 0,-2 -21,0 0,2 0,2 21,0 z"
       id="path5400" />
    <path
       d="m 338.23908,65.652534 0.0381,-1.671875 -9.58893,-0.07812 -10.5733,0 0,2.034983 0,2.034983 10.26945,-0.08186 9.8008,-0.05061 z"
       id="path5398" />
    <path
       d="m 342.09968,64.652534 c 0.01,-0.4125 -0.4347,-0.75 -0.9847,-0.75 l -1,0 0.015,2.25 0.015,2.25 0.9694,-1.5 c 0.5331,-0.825 0.9762,-1.8375 0.9847,-2.25 z"
       id="path5396" />
    <path
       d="m 360.11498,65.902534 0,-2 -8.3834,0 -8.3834,0 -0.523,2 -0.523,2 8.9064,0 8.9064,0 z"
       id="path5394" />
    <path
       d="m 382.11495,65.902534 0,-2 -10.5,0 -10.49997,0 0,2 0,2 10.49997,0 10.5,0 z"
       id="path5392" />
    <path
       d="m 403.11495,65.902534 0,-2 -20,0 0,2 0,2 20,0 z"
       id="path5390" />
    <path
       d="m 425.11495,65.902534 0,-2 -21,0 0,2 0,2 21,0 z"
       id="path5388" />
    <path
       d="m 446.11495,65.902534 0,-2 -20,0 0,2 0,2 20,0 z"
       id="path5386" />
    <path
       d="m 121.11498,60.402533 0,-2.5 -21,0 0,5 21,0 z"
       id="path5380" />
    <path
       d="m 142.11498,60.402533 0,-2.5 -20,0 0,5 20,0 z"
       id="path5378" />
    <path
       d="m 158.86597,56.766048 c -0.3721,-2.0625 -0.29458,-1.701015 -0.52978,-2.113515 l -0.20673,-0.75 -37.57358,0 -84.886629,0.299153 11.642475,25.554974 8.802551,-0.01338 -0.0056,-14.845114 -5.73e-4,-8.002092 26.00674,0.0041 31.000166,0.0024 30,0 0.0884,-0.0052 0.0442,-0.0052 9.03144,0.04419 6.6118,-0.07734 z"
       id="path5376" />
    <path
       d="m 185.11498,60.402533 0,-2.5 -20,0 0,5 20,0 z"
       id="path5374" />
    <path
       d="m 208.11498,60.402533 0,-2.5 -20,0 0,5 20,0 z"
       id="path5372" />
    <path
       d="m 230.11498,60.402533 0,-2.5 -21,0 0,5 21,0 z"
       id="path5370" />
    <path
       d="m 251.11498,60.402533 0,-2.5 -20,0 0,5 20,0 z"
       id="path5368" />
    <path
       d="m 273.11498,60.402533 0,-2.5 -21,0 0,5 21,0 z"
       id="path5366" />
    <path
       d="m 294.11498,60.402533 0,-2.5 -20,0 0,5 20,0 z"
       id="path5364" />
    <path
       d="m 316.11498,60.402533 0,-2.5 -21,0 0,5 21,0 z"
       id="path5362" />
    <path
       d="m 339.98998,56.83655 -0.875,0.184017 1,-0.618034 c 0.55,-0.339919 1,-1.041476 1,-1.559017 l 0,-0.940983 -44.5,0 -44.5,0 0,1.5 0,1.5 32.5,0 32.5,0 -1.32812,0 1.43749,0 11,0.04687 10.95313,-0.04687 z"
       id="path5360" />
    <path
       d="m 342.45868,60.696203 c 1.0318,-3.945707 -0.5754,-3.984986 -1.7869,-0.04367 l -0.6916,2.25 0.9507,0 0.9508,0 z"
       id="path5358" />
    <path
       d="m 360.11498,60.402533 0,-2.5 -8,0 -8,0 0,0.918213 c 0,0.505016 -0.2732,1.630016 -0.607,2.5 l -0.607,1.581787 8.607,0 8.607,0 z"
       id="path5356" />
    <path
       d="m 382.11495,60.402533 0,-2.5 -10.5,0 -10.49997,0 0,5 10.49997,0 10.5,0 z"
       id="path5354" />
    <path
       d="m 403.11495,60.402533 0,-2.5 -20,0 0,5 20,0 z"
       id="path5352" />
    <path
       d="m 425.11495,60.402533 0,-2.5 -21,0 0,5 21,0 z"
       id="path5350" />
    <path
       d="m 446.11495,60.402533 0,-2.5 -20,0 0,5 20,0 z"
       id="path5348" />
    <path
       d="m 343.47658,55.402533 0.5756,-1.5 -0.8616,0 c -0.4739,0 -1.1207,0.675 -1.4373,1.5 l -0.5756,1.5 0.8617,0 c 0.4739,0 1.1206,-0.675 1.4372,-1.5 z"
       id="path5346" />
    <path
       d="m 99.109376,60.406251 0,-2.5 -10.000002,0 -10,0 0,5 10,0 10.000002,0 z"
       id="path5462-2"
       style="fill:none;stroke:#000000" />
    <path
       d="m 78.094572,60.398438 0,-2.489104 -10.486288,0 -10.486289,0 0,4.978208 10.486289,0 10.486288,0 z"
       id="path5462-2-0"
       style="fill:none;stroke:#000000;stroke-width:1.02179182" />
    <path
       d="m 78.113202,65.897767 0,-2 -21,0 0,2 0,2 21,0 z"
       id="path5420-3"
       style="fill:none;stroke:#000000" />
    <path
       d="m 99.113202,65.897767 0,-2 -20,0 0,2 0,2 20,0 z"
       id="path5418-6"
       style="fill:none;stroke:#000000" />
    <path
       d="m 338.125,60.375002 0,-2.5 -20,0 0,5 20,0 z"
       id="path5374-8"
       style="fill:none;stroke:#000000" />
    <path
       d="m 160.11655,60.354634 -0.89493,-2.455806 -20.14363,0.03315 0,5 22.14342,0.209922 z"
       id="path5378-6"
       style="fill:none;stroke:#000000" />
  </g>
  
  


  <g
     id="ECAL"
     style="fill:none;stroke:#000000" class="substep">
		 <path style="fill:none;stroke:blue"
			 d="m 181.11498,612.40254 0,-16.5 70.5,0 70.5,0 0,16.5 0,16.5 -70.5,0 -70.5,0 z"
			 id="path5260" />
		 <path
			 d="m 321.11498,626.90254 0,-1 -139,0 0,2 139,0 z"
			 id="path5258" />
		 <path
			 d="m 321.11498,623.40254 0,-1.5 -139,0 0,3 139,0 z"
			 id="path5256" />
		 <path
			 d="m 321.11498,619.90254 0,-1 -139,0 0,2 139,0 z"
			 id="path5254" />
		 <path
			 d="m 321.11498,616.40254 0,-1.5 -139,0 0,3 139,0 z"
			 id="path5252" />
		 <path
			 d="m 321.11498,612.90254 0,-1 -139,0 0,2 139,0 z"
			 id="path5250" />
		 <path
			 d="m 321.11498,609.40254 0,-1.5 -139,0 0,3 139,0 z"
			 id="path5248" />
		 <path
			 d="m 321.11498,605.40254 0,-1.5 -139,0 0,3 139,0 z"
			 id="path5246" />
		 <path
			 d="m 321.11498,601.90254 0,-1 -139,0 0,2 139,0 z"
			 id="path5244" />
		 <path
			 d="m 321.11498,598.40254 0,-1.5 -139,0 0,3 139,0 z"
			 id="path5242" />
  </g>
</svg>
